# normalized for raylib: triangulated, vt+vn added
mtllib mass_navigation_materials.mtl
o mass_navigation_hotspot_obelisk
usemtl mass_navigation_surface
v -0.420000 0.000000 -0.420000
v 0.420000 0.000000 -0.420000
v 0.420000 0.000000 0.420000
v -0.420000 0.000000 0.420000
v -0.300000 1.150000 -0.300000
v 0.300000 1.150000 -0.300000
v 0.300000 1.150000 0.300000
v -0.300000 1.150000 0.300000
v 0.000000 1.750000 0.000000
vt 0.000000 0.000000
vn 0.436528 0.786694 0.436528
vn -0.616066 0.490841 0.616066
vn -0.436528 0.786694 -0.436528
vn 0.616066 0.490841 -0.616066
vn 0.653676 -0.381333 0.653676
vn -0.653676 -0.381333 0.653676
vn -0.653676 -0.381333 -0.653676
vn 0.653676 -0.381333 -0.653676
vn 0.000000 -1.000000 0.000000
s 1
f 1/1/1 4/1/4 3/1/3
f 1/1/1 3/1/3 2/1/2
f 1/1/1 2/1/2 6/1/6
f 1/1/1 6/1/6 5/1/5
f 2/1/2 3/1/3 7/1/7
f 2/1/2 7/1/7 6/1/6
f 3/1/3 4/1/4 8/1/8
f 3/1/3 8/1/8 7/1/7
f 4/1/4 1/1/1 5/1/5
f 4/1/4 5/1/5 8/1/8
f 5/1/5 6/1/6 9/1/9
f 6/1/6 7/1/7 9/1/9
f 7/1/7 8/1/8 9/1/9
f 8/1/8 5/1/5 9/1/9
