# normalized for raylib: triangulated, vt+vn added
mtllib mass_navigation_materials.mtl
o mass_navigation_blocker_rock
usemtl mass_navigation_surface
v 0.000000 0.000000 -1.000000
v 0.707000 0.000000 -0.707000
v 1.000000 0.000000 0.000000
v 0.707000 0.000000 0.707000
v 0.000000 0.000000 1.000000
v -0.707000 0.000000 0.707000
v -1.000000 0.000000 0.000000
v -0.707000 0.000000 -0.707000
v 0.000000 0.850000 -0.820000
v 0.580000 0.720000 -0.580000
v 0.840000 0.900000 0.000000
v 0.500000 0.680000 0.560000
v 0.000000 0.780000 0.880000
v -0.620000 0.740000 0.540000
v -0.900000 0.860000 0.000000
v -0.540000 0.700000 -0.620000
v 0.000000 1.180000 0.000000
vt 0.000000 0.000000
vn 0.001434 -0.224666 0.974435
vn -0.693337 -0.208678 0.689738
vn -0.962103 -0.272512 0.009747
vn -0.675122 -0.261325 -0.689870
vn -0.004284 -0.208779 -0.977954
vn 0.697765 -0.190736 -0.690466
vn 0.980200 -0.197924 -0.005877
vn 0.683641 -0.243057 0.688155
vn 0.009111 -0.651497 0.758596
vn -0.545784 -0.606524 0.578141
vn -0.729130 -0.683989 -0.022973
vn -0.537446 -0.595755 -0.596848
vn -0.042429 -0.628572 -0.776593
vn 0.539768 -0.606074 -0.584230
vn 0.755319 -0.655281 0.010055
vn 0.547159 -0.612887 0.570076
vn -0.007468 -0.999804 -0.018348
s 1
f 1/1/1 2/1/2 10/1/10
f 1/1/1 10/1/10 9/1/9
f 2/1/2 3/1/3 11/1/11
f 2/1/2 11/1/11 10/1/10
f 3/1/3 4/1/4 12/1/12
f 3/1/3 12/1/12 11/1/11
f 4/1/4 5/1/5 13/1/13
f 4/1/4 13/1/13 12/1/12
f 5/1/5 6/1/6 14/1/14
f 5/1/5 14/1/14 13/1/13
f 6/1/6 7/1/7 15/1/15
f 6/1/6 15/1/15 14/1/14
f 7/1/7 8/1/8 16/1/16
f 7/1/7 16/1/16 15/1/15
f 8/1/8 1/1/1 9/1/9
f 8/1/8 9/1/9 16/1/16
f 9/1/9 10/1/10 17/1/17
f 10/1/10 11/1/11 17/1/17
f 11/1/11 12/1/12 17/1/17
f 12/1/12 13/1/13 17/1/17
f 13/1/13 14/1/14 17/1/17
f 14/1/14 15/1/15 17/1/17
f 15/1/15 16/1/16 17/1/17
f 16/1/16 9/1/9 17/1/17
