{"asset": {"version": "2.0", "generator": "ludots-crowdsim-unit-triangle"}, "scene": 0, "scenes": [{"nodes": [0]}], "nodes": [{"mesh": 0}], "meshes": [{"primitives": [{"attributes": {"POSITION": 0, "NORMAL": 1}, "indices": 2, "material": 0}]}], "materials": [{"pbrMetallicRoughness": {"baseColorFactor": [1, 1, 1, 1], "metallicFactor": 0.0, "roughnessFactor": 0.9}}], "accessors": [{"bufferView": 0, "componentType": 5126, "count": 24, "type": "VEC3", "min": [-0.43301270189221935, 0.0, -0.24999999999999997], "max": [0.43301270189221935, 1.0, 0.5]}, {"bufferView": 1, "componentType": 5126, "count": 24, "type": "VEC3"}, {"bufferView": 2, "componentType": 5123, "count": 24, "type": "SCALAR"}], "bufferViews": [{"buffer": 0, "byteOffset": 0, "byteLength": 288}, {"buffer": 0, "byteOffset": 288, "byteLength": 288}, {"buffer": 0, "byteOffset": 576, "byteLength": 48}], "buffers": [{"byteLength": 624, "uri": "data:application/octet-stream;base64,"}]}