<?xml version="1.0" encoding="utf-8" standalone="no"?>
<!DOCTYPE svg PUBLIC "-//W3C//DTD SVG 1.1//EN"
  "http://www.w3.org/Graphics/SVG/1.1/DTD/svg11.dtd">
<svg xmlns:xlink="http://www.w3.org/1999/xlink" width="1476pt" height="957.6pt" viewBox="0 0 1476 957.6" xmlns="http://www.w3.org/2000/svg" version="1.1">
 <metadata>
  <rdf:RDF xmlns:dc="http://purl.org/dc/elements/1.1/" xmlns:cc="http://creativecommons.org/ns#" xmlns:rdf="http://www.w3.org/1999/02/22-rdf-syntax-ns#">
   <cc:Work>
    <dc:type rdf:resource="http://purl.org/dc/dcmitype/StillImage"/>
    <dc:date>2026-07-20T06:14:17.426474</dc:date>
    <dc:format>image/svg+xml</dc:format>
    <dc:creator>
     <cc:Agent>
      <dc:title>Matplotlib v3.10.9, https://matplotlib.org/</dc:title>
     </cc:Agent>
    </dc:creator>
   </cc:Work>
  </rdf:RDF>
 </metadata>
 <defs>
  <style type="text/css">*{stroke-linejoin: round; stroke-linecap: butt}</style>
 </defs>
 <g id="figure_1">
  <g id="patch_1">
   <path d="M 0 957.6
L 1476 957.6
L 1476 0
L 0 0
z
" style="fill: #ffffff"/>
  </g>
  <g id="axes_1">
   <g id="patch_2">
    <path d="M 352.08 93.6
L 1123.92 93.6
Q 1134 93.6 1134 103.68
L 1134 205.92
Q 1134 216 1123.92 216
L 352.08 216
Q 342 216 342 205.92
L 342 103.68
Q 342 93.6 352.08 93.6
z
" clip-path="url(#p8eebd52bfe)" style="fill: #f4ede9; stroke-dasharray: 6,4; stroke-dashoffset: 0; stroke: #b08d7f; stroke-linejoin: miter"/>
   </g>
   <g id="patch_3">
    <path d="M 53.28 259.2
L 436.32 259.2
Q 446.4 259.2 446.4 269.28
L 446.4 637.92
Q 446.4 648 436.32 648
L 53.28 648
Q 43.2 648 43.2 637.92
L 43.2 269.28
Q 43.2 259.2 53.28 259.2
z
" clip-path="url(#p8eebd52bfe)" style="fill: #edf3ee; stroke-dasharray: 6,4; stroke-dashoffset: 0; stroke: #7fa087; stroke-linejoin: miter"/>
   </g>
   <g id="patch_4">
    <path d="M 546.48 259.2
L 929.52 259.2
Q 939.6 259.2 939.6 269.28
L 939.6 637.92
Q 939.6 648 929.52 648
L 546.48 648
Q 536.4 648 536.4 637.92
L 536.4 269.28
Q 536.4 259.2 546.48 259.2
z
" clip-path="url(#p8eebd52bfe)" style="fill: #e9eff5; stroke-dasharray: 6,4; stroke-dashoffset: 0; stroke: #7490a8; stroke-linejoin: miter"/>
   </g>
   <g id="patch_5">
    <path d="M 1039.68 259.2
L 1422.72 259.2
Q 1432.8 259.2 1432.8 269.28
L 1432.8 637.92
Q 1432.8 648 1422.72 648
L 1039.68 648
Q 1029.6 648 1029.6 637.92
L 1029.6 269.28
Q 1029.6 259.2 1039.68 259.2
z
" clip-path="url(#p8eebd52bfe)" style="fill: #f0f0ea; stroke-dasharray: 6,4; stroke-dashoffset: 0; stroke: #999a7e; stroke-linejoin: miter"/>
   </g>
   <g id="text_1">
    <text style="font-weight: 700; font-size: 10.5px; font-family: 'Microsoft YaHei', 'DejaVu Sans'; text-anchor: middle; fill: #5b6470" x="738" y="109.193438" transform="rotate(-0 738 109.193438)">Ludots Engine Core (Shared)</text>
   </g>
   <g id="text_2">
    <text style="font-weight: 700; font-size: 10.5px; font-family: 'Microsoft YaHei', 'DejaVu Sans'; text-anchor: start; fill: #5b6470" x="54.72" y="274.793437" transform="rotate(-0 54.72 274.793437)">Raylib Adapter</text>
   </g>
   <g id="text_3">
    <text style="font-weight: 700; font-size: 10.5px; font-family: 'Microsoft YaHei', 'DejaVu Sans'; text-anchor: start; fill: #5b6470" x="547.92" y="274.793437" transform="rotate(-0 547.92 274.793437)">Web Adapter</text>
   </g>
   <g id="text_4">
    <text style="font-weight: 700; font-size: 10.5px; font-family: 'Microsoft YaHei', 'DejaVu Sans'; text-anchor: start; fill: #5b6470" x="1041.12" y="274.793437" transform="rotate(-0 1041.12 274.793437)">UE5 Adapter</text>
   </g>
   <g id="patch_6">
    <path d="M 383.76 126
L 480.24 126
Q 486 126 486 131.76
L 486 185.04
Q 486 190.8 480.24 190.8
L 383.76 190.8
Q 378 190.8 378 185.04
L 378 131.76
Q 378 126 383.76 126
z
" clip-path="url(#p8eebd52bfe)" style="fill: #eaf2f1; stroke: #76a09c; stroke-linejoin: miter"/>
   </g>
   <g id="patch_7">
    <path d="M 506.16 126
L 602.64 126
Q 608.4 126 608.4 131.76
L 608.4 185.04
Q 608.4 190.8 602.64 190.8
L 506.16 190.8
Q 500.4 190.8 500.4 185.04
L 500.4 131.76
Q 500.4 126 506.16 126
z
" clip-path="url(#p8eebd52bfe)" style="fill: #edf3ee; stroke: #7fa087; stroke-linejoin: miter"/>
   </g>
   <g id="patch_8">
    <path d="M 628.56 126
L 725.04 126
Q 730.8 126 730.8 131.76
L 730.8 185.04
Q 730.8 190.8 725.04 190.8
L 628.56 190.8
Q 622.8 190.8 622.8 185.04
L 622.8 131.76
Q 622.8 126 628.56 126
z
" clip-path="url(#p8eebd52bfe)" style="fill: #f4ede9; stroke: #b08d7f; stroke-linejoin: miter"/>
   </g>
   <g id="patch_9">
    <path d="M 750.96 126
L 847.44 126
Q 853.2 126 853.2 131.76
L 853.2 185.04
Q 853.2 190.8 847.44 190.8
L 750.96 190.8
Q 745.2 190.8 745.2 185.04
L 745.2 131.76
Q 745.2 126 750.96 126
z
" clip-path="url(#p8eebd52bfe)" style="fill: #e9eff5; stroke: #7490a8; stroke-linejoin: miter"/>
   </g>
   <g id="patch_10">
    <path d="M 873.36 126
L 969.84 126
Q 975.6 126 975.6 131.76
L 975.6 185.04
Q 975.6 190.8 969.84 190.8
L 873.36 190.8
Q 867.6 190.8 867.6 185.04
L 867.6 131.76
Q 867.6 126 873.36 126
z
" clip-path="url(#p8eebd52bfe)" style="fill: #f5f0e8; stroke: #b39b7d; stroke-linejoin: miter"/>
   </g>
   <g id="patch_11">
    <path d="M 995.76 126
L 1092.24 126
Q 1098 126 1098 131.76
L 1098 185.04
Q 1098 190.8 1092.24 190.8
L 995.76 190.8
Q 990 190.8 990 185.04
L 990 131.76
Q 990 126 995.76 126
z
" clip-path="url(#p8eebd52bfe)" style="fill: #f1edf3; stroke: #9d8ba8; stroke-linejoin: miter"/>
   </g>
   <g id="patch_12">
    <path d="M 74.16 309.6
L 242.64 309.6
Q 248.4 309.6 248.4 315.36
L 248.4 368.64
Q 248.4 374.4 242.64 374.4
L 74.16 374.4
Q 68.4 374.4 68.4 368.64
L 68.4 315.36
Q 68.4 309.6 74.16 309.6
z
" clip-path="url(#p8eebd52bfe)" style="fill: #edf3ee; stroke: #7fa087; stroke-linejoin: miter"/>
   </g>
   <g id="patch_13">
    <path d="M 275.76 309.6
L 444.24 309.6
Q 450 309.6 450 315.36
L 450 368.64
Q 450 374.4 444.24 374.4
L 275.76 374.4
Q 270 374.4 270 368.64
L 270 315.36
Q 270 309.6 275.76 309.6
z
" clip-path="url(#p8eebd52bfe)" style="fill: #edf3ee; stroke: #7fa087; stroke-linejoin: miter"/>
   </g>
   <g id="patch_14">
    <path d="M 74.16 396
L 242.64 396
Q 248.4 396 248.4 401.76
L 248.4 455.04
Q 248.4 460.8 242.64 460.8
L 74.16 460.8
Q 68.4 460.8 68.4 455.04
L 68.4 401.76
Q 68.4 396 74.16 396
z
" clip-path="url(#p8eebd52bfe)" style="fill: #edf3ee; stroke: #7fa087; stroke-linejoin: miter"/>
   </g>
   <g id="patch_15">
    <path d="M 275.76 396
L 444.24 396
Q 450 396 450 401.76
L 450 455.04
Q 450 460.8 444.24 460.8
L 275.76 460.8
Q 270 460.8 270 455.04
L 270 401.76
Q 270 396 275.76 396
z
" clip-path="url(#p8eebd52bfe)" style="fill: #edf3ee; stroke: #7fa087; stroke-linejoin: miter"/>
   </g>
   <g id="patch_16">
    <path d="M 74.16 482.4
L 242.64 482.4
Q 248.4 482.4 248.4 488.16
L 248.4 541.44
Q 248.4 547.2 242.64 547.2
L 74.16 547.2
Q 68.4 547.2 68.4 541.44
L 68.4 488.16
Q 68.4 482.4 74.16 482.4
z
" clip-path="url(#p8eebd52bfe)" style="fill: #edf3ee; stroke: #7fa087; stroke-linejoin: miter"/>
   </g>
   <g id="patch_17">
    <path d="M 275.76 482.4
L 444.24 482.4
Q 450 482.4 450 488.16
L 450 541.44
Q 450 547.2 444.24 547.2
L 275.76 547.2
Q 270 547.2 270 541.44
L 270 488.16
Q 270 482.4 275.76 482.4
z
" clip-path="url(#p8eebd52bfe)" style="fill: #edf3ee; stroke: #7fa087; stroke-linejoin: miter"/>
   </g>
   <g id="patch_18">
    <path d="M 74.16 568.8
L 444.24 568.8
Q 450 568.8 450 574.56
L 450 613.44
Q 450 619.2 444.24 619.2
L 74.16 619.2
Q 68.4 619.2 68.4 613.44
L 68.4 574.56
Q 68.4 568.8 74.16 568.8
z
" clip-path="url(#p8eebd52bfe)" style="fill: #edf3ee; stroke: #7fa087; stroke-width: 1.6; stroke-linejoin: miter"/>
   </g>
   <g id="patch_19">
    <path d="M 74.16 676.8
L 444.24 676.8
Q 450 676.8 450 682.56
L 450 721.44
Q 450 727.2 444.24 727.2
L 74.16 727.2
Q 68.4 727.2 68.4 721.44
L 68.4 682.56
Q 68.4 676.8 74.16 676.8
z
" clip-path="url(#p8eebd52bfe)" style="fill: #eceef0; stroke: #828a92; stroke-linejoin: miter"/>
   </g>
   <g id="patch_20">
    <path d="M 74.16 756
L 444.24 756
Q 450 756 450 761.76
L 450 800.64
Q 450 806.4 444.24 806.4
L 74.16 806.4
Q 68.4 806.4 68.4 800.64
L 68.4 761.76
Q 68.4 756 74.16 756
z
" clip-path="url(#p8eebd52bfe)" style="fill: #edf3ee; stroke: #7fa087; stroke-linejoin: miter"/>
   </g>
   <g id="patch_21">
    <path d="M 74.16 835.2
L 444.24 835.2
Q 450 835.2 450 840.96
L 450 879.84
Q 450 885.6 444.24 885.6
L 74.16 885.6
Q 68.4 885.6 68.4 879.84
L 68.4 840.96
Q 68.4 835.2 74.16 835.2
z
" clip-path="url(#p8eebd52bfe)" style="fill: #edf3ee; stroke: #7fa087; stroke-linejoin: miter"/>
   </g>
   <g id="patch_22">
    <path d="M 567.36 309.6
L 735.84 309.6
Q 741.6 309.6 741.6 315.36
L 741.6 368.64
Q 741.6 374.4 735.84 374.4
L 567.36 374.4
Q 561.6 374.4 561.6 368.64
L 561.6 315.36
Q 561.6 309.6 567.36 309.6
z
" clip-path="url(#p8eebd52bfe)" style="fill: #e9eff5; stroke: #7490a8; stroke-linejoin: miter"/>
   </g>
   <g id="patch_23">
    <path d="M 768.96 309.6
L 937.44 309.6
Q 943.2 309.6 943.2 315.36
L 943.2 368.64
Q 943.2 374.4 937.44 374.4
L 768.96 374.4
Q 763.2 374.4 763.2 368.64
L 763.2 315.36
Q 763.2 309.6 768.96 309.6
z
" clip-path="url(#p8eebd52bfe)" style="fill: #e9eff5; stroke: #7490a8; stroke-linejoin: miter"/>
   </g>
   <g id="patch_24">
    <path d="M 567.36 396
L 735.84 396
Q 741.6 396 741.6 401.76
L 741.6 455.04
Q 741.6 460.8 735.84 460.8
L 567.36 460.8
Q 561.6 460.8 561.6 455.04
L 561.6 401.76
Q 561.6 396 567.36 396
z
" clip-path="url(#p8eebd52bfe)" style="fill: #e9eff5; stroke: #7490a8; stroke-linejoin: miter"/>
   </g>
   <g id="patch_25">
    <path d="M 768.96 396
L 937.44 396
Q 943.2 396 943.2 401.76
L 943.2 455.04
Q 943.2 460.8 937.44 460.8
L 768.96 460.8
Q 763.2 460.8 763.2 455.04
L 763.2 401.76
Q 763.2 396 768.96 396
z
" clip-path="url(#p8eebd52bfe)" style="fill: #e9eff5; stroke: #7490a8; stroke-linejoin: miter"/>
   </g>
   <g id="patch_26">
    <path d="M 567.36 482.4
L 735.84 482.4
Q 741.6 482.4 741.6 488.16
L 741.6 541.44
Q 741.6 547.2 735.84 547.2
L 567.36 547.2
Q 561.6 547.2 561.6 541.44
L 561.6 488.16
Q 561.6 482.4 567.36 482.4
z
" clip-path="url(#p8eebd52bfe)" style="fill: #e9eff5; stroke: #7490a8; stroke-linejoin: miter"/>
   </g>
   <g id="patch_27">
    <path d="M 768.96 482.4
L 937.44 482.4
Q 943.2 482.4 943.2 488.16
L 943.2 541.44
Q 943.2 547.2 937.44 547.2
L 768.96 547.2
Q 763.2 547.2 763.2 541.44
L 763.2 488.16
Q 763.2 482.4 768.96 482.4
z
" clip-path="url(#p8eebd52bfe)" style="fill: #e9eff5; stroke: #7490a8; stroke-linejoin: miter"/>
   </g>
   <g id="patch_28">
    <path d="M 567.36 568.8
L 937.44 568.8
Q 943.2 568.8 943.2 574.56
L 943.2 613.44
Q 943.2 619.2 937.44 619.2
L 567.36 619.2
Q 561.6 619.2 561.6 613.44
L 561.6 574.56
Q 561.6 568.8 567.36 568.8
z
" clip-path="url(#p8eebd52bfe)" style="fill: #e9eff5; stroke: #7490a8; stroke-width: 1.6; stroke-linejoin: miter"/>
   </g>
   <g id="patch_29">
    <path d="M 567.36 676.8
L 937.44 676.8
Q 943.2 676.8 943.2 682.56
L 943.2 721.44
Q 943.2 727.2 937.44 727.2
L 567.36 727.2
Q 561.6 727.2 561.6 721.44
L 561.6 682.56
Q 561.6 676.8 567.36 676.8
z
" clip-path="url(#p8eebd52bfe)" style="fill: #eceef0; stroke: #828a92; stroke-linejoin: miter"/>
   </g>
   <g id="patch_30">
    <path d="M 567.36 756
L 937.44 756
Q 943.2 756 943.2 761.76
L 943.2 800.64
Q 943.2 806.4 937.44 806.4
L 567.36 806.4
Q 561.6 806.4 561.6 800.64
L 561.6 761.76
Q 561.6 756 567.36 756
z
" clip-path="url(#p8eebd52bfe)" style="fill: #e9eff5; stroke: #7490a8; stroke-linejoin: miter"/>
   </g>
   <g id="patch_31">
    <path d="M 567.36 835.2
L 937.44 835.2
Q 943.2 835.2 943.2 840.96
L 943.2 879.84
Q 943.2 885.6 937.44 885.6
L 567.36 885.6
Q 561.6 885.6 561.6 879.84
L 561.6 840.96
Q 561.6 835.2 567.36 835.2
z
" clip-path="url(#p8eebd52bfe)" style="fill: #e9eff5; stroke: #7490a8; stroke-linejoin: miter"/>
   </g>
   <g id="patch_32">
    <path d="M 1060.56 309.6
L 1229.04 309.6
Q 1234.8 309.6 1234.8 315.36
L 1234.8 368.64
Q 1234.8 374.4 1229.04 374.4
L 1060.56 374.4
Q 1054.8 374.4 1054.8 368.64
L 1054.8 315.36
Q 1054.8 309.6 1060.56 309.6
z
" clip-path="url(#p8eebd52bfe)" style="fill: #f0f0ea; stroke: #999a7e; stroke-linejoin: miter"/>
   </g>
   <g id="patch_33">
    <path d="M 1262.16 309.6
L 1430.64 309.6
Q 1436.4 309.6 1436.4 315.36
L 1436.4 368.64
Q 1436.4 374.4 1430.64 374.4
L 1262.16 374.4
Q 1256.4 374.4 1256.4 368.64
L 1256.4 315.36
Q 1256.4 309.6 1262.16 309.6
z
" clip-path="url(#p8eebd52bfe)" style="fill: #f0f0ea; stroke: #999a7e; stroke-linejoin: miter"/>
   </g>
   <g id="patch_34">
    <path d="M 1060.56 396
L 1229.04 396
Q 1234.8 396 1234.8 401.76
L 1234.8 455.04
Q 1234.8 460.8 1229.04 460.8
L 1060.56 460.8
Q 1054.8 460.8 1054.8 455.04
L 1054.8 401.76
Q 1054.8 396 1060.56 396
z
" clip-path="url(#p8eebd52bfe)" style="fill: #f0f0ea; stroke: #999a7e; stroke-linejoin: miter"/>
   </g>
   <g id="patch_35">
    <path d="M 1262.16 396
L 1430.64 396
Q 1436.4 396 1436.4 401.76
L 1436.4 455.04
Q 1436.4 460.8 1430.64 460.8
L 1262.16 460.8
Q 1256.4 460.8 1256.4 455.04
L 1256.4 401.76
Q 1256.4 396 1262.16 396
z
" clip-path="url(#p8eebd52bfe)" style="fill: #f0f0ea; stroke: #999a7e; stroke-linejoin: miter"/>
   </g>
   <g id="patch_36">
    <path d="M 1060.56 482.4
L 1229.04 482.4
Q 1234.8 482.4 1234.8 488.16
L 1234.8 541.44
Q 1234.8 547.2 1229.04 547.2
L 1060.56 547.2
Q 1054.8 547.2 1054.8 541.44
L 1054.8 488.16
Q 1054.8 482.4 1060.56 482.4
z
" clip-path="url(#p8eebd52bfe)" style="fill: #f0f0ea; stroke: #999a7e; stroke-linejoin: miter"/>
   </g>
   <g id="patch_37">
    <path d="M 1262.16 482.4
L 1430.64 482.4
Q 1436.4 482.4 1436.4 488.16
L 1436.4 541.44
Q 1436.4 547.2 1430.64 547.2
L 1262.16 547.2
Q 1256.4 547.2 1256.4 541.44
L 1256.4 488.16
Q 1256.4 482.4 1262.16 482.4
z
" clip-path="url(#p8eebd52bfe)" style="fill: #f0f0ea; stroke: #999a7e; stroke-linejoin: miter"/>
   </g>
   <g id="patch_38">
    <path d="M 1060.56 568.8
L 1430.64 568.8
Q 1436.4 568.8 1436.4 574.56
L 1436.4 613.44
Q 1436.4 619.2 1430.64 619.2
L 1060.56 619.2
Q 1054.8 619.2 1054.8 613.44
L 1054.8 574.56
Q 1054.8 568.8 1060.56 568.8
z
" clip-path="url(#p8eebd52bfe)" style="fill: #f0f0ea; stroke: #999a7e; stroke-width: 1.6; stroke-linejoin: miter"/>
   </g>
   <g id="patch_39">
    <path d="M 1060.56 676.8
L 1430.64 676.8
Q 1436.4 676.8 1436.4 682.56
L 1436.4 721.44
Q 1436.4 727.2 1430.64 727.2
L 1060.56 727.2
Q 1054.8 727.2 1054.8 721.44
L 1054.8 682.56
Q 1054.8 676.8 1060.56 676.8
z
" clip-path="url(#p8eebd52bfe)" style="fill: #eceef0; stroke: #828a92; stroke-linejoin: miter"/>
   </g>
   <g id="patch_40">
    <path d="M 1060.56 756
L 1430.64 756
Q 1436.4 756 1436.4 761.76
L 1436.4 800.64
Q 1436.4 806.4 1430.64 806.4
L 1060.56 806.4
Q 1054.8 806.4 1054.8 800.64
L 1054.8 761.76
Q 1054.8 756 1060.56 756
z
" clip-path="url(#p8eebd52bfe)" style="fill: #f0f0ea; stroke: #999a7e; stroke-linejoin: miter"/>
   </g>
   <g id="patch_41">
    <path d="M 1060.56 835.2
L 1430.64 835.2
Q 1436.4 835.2 1436.4 840.96
L 1436.4 879.84
Q 1436.4 885.6 1430.64 885.6
L 1060.56 885.6
Q 1054.8 885.6 1054.8 879.84
L 1054.8 840.96
Q 1054.8 835.2 1060.56 835.2
z
" clip-path="url(#p8eebd52bfe)" style="fill: #f0f0ea; stroke: #999a7e; stroke-linejoin: miter"/>
   </g>
   <g id="text_5">
    <text style="font-weight: 700; font-size: 12.5px; font-family: 'Microsoft YaHei', 'DejaVu Sans'; text-anchor: middle; fill: #23272e" x="432" y="159.032188" transform="rotate(-0 432 159.032188)">ECS</text>
   </g>
   <g id="text_6">
    <text style="font-weight: 700; font-size: 12.5px; font-family: 'Microsoft YaHei', 'DejaVu Sans'; text-anchor: middle; fill: #23272e" x="554.4" y="159.032188" transform="rotate(-0 554.4 159.032188)">GAS</text>
   </g>
   <g id="text_7">
    <text style="font-weight: 700; font-size: 12.5px; font-family: 'Microsoft YaHei', 'DejaVu Sans'; text-anchor: middle; fill: #23272e" x="676.8" y="158.971641" transform="rotate(-0 676.8 158.971641)">SystemGroup</text>
   </g>
   <g id="text_8">
    <text style="font-weight: 700; font-size: 12.5px; font-family: 'Microsoft YaHei', 'DejaVu Sans'; text-anchor: middle; fill: #23272e" x="799.2" y="158.989219" transform="rotate(-0 799.2 158.989219)">Registry</text>
   </g>
   <g id="text_9">
    <text style="font-weight: 700; font-size: 12.5px; font-family: 'Microsoft YaHei', 'DejaVu Sans'; text-anchor: middle; fill: #23272e" x="921.6" y="159.032188" transform="rotate(-0 921.6 159.032188)">Modding</text>
   </g>
   <g id="text_10">
    <text style="font-weight: 700; font-size: 12.5px; font-family: 'Microsoft YaHei', 'DejaVu Sans'; text-anchor: middle; fill: #23272e" x="1044" y="159.032188" transform="rotate(-0 1044 159.032188)">VFS</text>
   </g>
   <g id="text_11">
    <text style="font-weight: 700; font-size: 12.5px; font-family: 'Microsoft YaHei', 'DejaVu Sans'; text-anchor: middle; fill: #23272e" x="158.4" y="342.632187" transform="rotate(-0 158.4 342.632187)">Window</text>
   </g>
   <g id="text_12">
    <text style="font-weight: 700; font-size: 12.5px; font-family: 'Microsoft YaHei', 'DejaVu Sans'; text-anchor: middle; fill: #23272e" x="360" y="342.632187" transform="rotate(-0 360 342.632187)">Input</text>
   </g>
   <g id="text_13">
    <text style="font-weight: 700; font-size: 12.5px; font-family: 'Microsoft YaHei', 'DejaVu Sans'; text-anchor: middle; fill: #23272e" x="158.4" y="429.032188" transform="rotate(-0 158.4 429.032188)">Graphics</text>
   </g>
   <g id="text_14">
    <text style="font-weight: 700; font-size: 12.5px; font-family: 'Microsoft YaHei', 'DejaVu Sans'; text-anchor: middle; fill: #23272e" x="360" y="429.032188" transform="rotate(-0 360 429.032188)">Audio</text>
   </g>
   <g id="text_15">
    <text style="font-weight: 700; font-size: 12.5px; font-family: 'Microsoft YaHei', 'DejaVu Sans'; text-anchor: middle; fill: #23272e" x="158.4" y="515.432188" transform="rotate(-0 158.4 515.432188)">Asset</text>
   </g>
   <g id="text_16">
    <text style="font-weight: 700; font-size: 12.5px; font-family: 'Microsoft YaHei', 'DejaVu Sans'; text-anchor: middle; fill: #23272e" x="360" y="515.432188" transform="rotate(-0 360 515.432188)">Timer</text>
   </g>
   <g id="text_17">
    <text style="font-weight: 700; font-size: 12.5px; font-family: 'Microsoft YaHei', 'DejaVu Sans'; text-anchor: middle; fill: #23272e" x="259.2" y="594.790391" transform="rotate(-0 259.2 594.790391)">IAdapter Interface</text>
   </g>
   <g id="text_18">
    <text style="font-weight: 700; font-size: 12.5px; font-family: 'Microsoft YaHei', 'DejaVu Sans'; text-anchor: middle; fill: #23272e" x="259.2" y="702.632188" transform="rotate(-0 259.2 702.632188)">Raylib C API</text>
   </g>
   <g id="text_19">
    <text style="font-weight: 700; font-size: 12.5px; font-family: 'Microsoft YaHei', 'DejaVu Sans'; text-anchor: middle; fill: #23272e" x="259.2" y="781.832188" transform="rotate(-0 259.2 781.832188)">Desktop (Win/Mac/Linux)</text>
   </g>
   <g id="text_20">
    <text style="font-weight: 700; font-size: 12.5px; font-family: 'Microsoft YaHei', 'DejaVu Sans'; text-anchor: middle; fill: #23272e" x="259.2" y="861.032188" transform="rotate(-0 259.2 861.032188)">Windows / macOS / Linux</text>
   </g>
   <g id="text_21">
    <text style="font-weight: 700; font-size: 12.5px; font-family: 'Microsoft YaHei', 'DejaVu Sans'; text-anchor: middle; fill: #23272e" x="651.6" y="342.632187" transform="rotate(-0 651.6 342.632187)">Canvas</text>
   </g>
   <g id="text_22">
    <text style="font-weight: 700; font-size: 12.5px; font-family: 'Microsoft YaHei', 'DejaVu Sans'; text-anchor: middle; fill: #23272e" x="853.2" y="342.632187" transform="rotate(-0 853.2 342.632187)">WebSocket</text>
   </g>
   <g id="text_23">
    <text style="font-weight: 700; font-size: 12.5px; font-family: 'Microsoft YaHei', 'DejaVu Sans'; text-anchor: middle; fill: #23272e" x="651.6" y="429.032188" transform="rotate(-0 651.6 429.032188)">DOM Event</text>
   </g>
   <g id="text_24">
    <text style="font-weight: 700; font-size: 12.5px; font-family: 'Microsoft YaHei', 'DejaVu Sans'; text-anchor: middle; fill: #23272e" x="853.2" y="429.032188" transform="rotate(-0 853.2 429.032188)">Streamer</text>
   </g>
   <g id="text_25">
    <text style="font-weight: 700; font-size: 12.5px; font-family: 'Microsoft YaHei', 'DejaVu Sans'; text-anchor: middle; fill: #23272e" x="651.6" y="515.432188" transform="rotate(-0 651.6 515.432188)">DeltaComp</text>
   </g>
   <g id="text_26">
    <text style="font-weight: 700; font-size: 12.5px; font-family: 'Microsoft YaHei', 'DejaVu Sans'; text-anchor: middle; fill: #23272e" x="853.2" y="515.432188" transform="rotate(-0 853.2 515.432188)">FrameProto</text>
   </g>
   <g id="text_27">
    <text style="font-weight: 700; font-size: 12.5px; font-family: 'Microsoft YaHei', 'DejaVu Sans'; text-anchor: middle; fill: #23272e" x="752.4" y="594.790391" transform="rotate(-0 752.4 594.790391)">IAdapter Interface</text>
   </g>
   <g id="text_28">
    <text style="font-weight: 700; font-size: 12.5px; font-family: 'Microsoft YaHei', 'DejaVu Sans'; text-anchor: middle; fill: #23272e" x="752.4" y="702.632188" transform="rotate(-0 752.4 702.632188)">Browser APIs (WebGL/WebSocket)</text>
   </g>
   <g id="text_29">
    <text style="font-weight: 700; font-size: 12.5px; font-family: 'Microsoft YaHei', 'DejaVu Sans'; text-anchor: middle; fill: #23272e" x="752.4" y="781.832188" transform="rotate(-0 752.4 781.832188)">Browser (WebAssembly + JS)</text>
   </g>
   <g id="text_30">
    <text style="font-weight: 700; font-size: 12.5px; font-family: 'Microsoft YaHei', 'DejaVu Sans'; text-anchor: middle; fill: #23272e" x="752.4" y="861.032188" transform="rotate(-0 752.4 861.032188)">Any Modern Browser</text>
   </g>
   <g id="text_31">
    <text style="font-weight: 700; font-size: 12.5px; font-family: 'Microsoft YaHei', 'DejaVu Sans'; text-anchor: middle; fill: #23272e" x="1144.8" y="342.632187" transform="rotate(-0 1144.8 342.632187)">World</text>
   </g>
   <g id="text_32">
    <text style="font-weight: 700; font-size: 12.5px; font-family: 'Microsoft YaHei', 'DejaVu Sans'; text-anchor: middle; fill: #23272e" x="1346.4" y="342.632187" transform="rotate(-0 1346.4 342.632187)">Actor</text>
   </g>
   <g id="text_33">
    <text style="font-weight: 700; font-size: 12.5px; font-family: 'Microsoft YaHei', 'DejaVu Sans'; text-anchor: middle; fill: #23272e" x="1144.8" y="429.032188" transform="rotate(-0 1144.8 429.032188)">Render</text>
   </g>
   <g id="text_34">
    <text style="font-weight: 700; font-size: 12.5px; font-family: 'Microsoft YaHei', 'DejaVu Sans'; text-anchor: middle; fill: #23272e" x="1346.4" y="429.032188" transform="rotate(-0 1346.4 429.032188)">Input</text>
   </g>
   <g id="text_35">
    <text style="font-weight: 700; font-size: 12.5px; font-family: 'Microsoft YaHei', 'DejaVu Sans'; text-anchor: middle; fill: #23272e" x="1144.8" y="515.432188" transform="rotate(-0 1144.8 515.432188)">Blueprint</text>
   </g>
   <g id="text_36">
    <text style="font-weight: 700; font-size: 12.5px; font-family: 'Microsoft YaHei', 'DejaVu Sans'; text-anchor: middle; fill: #23272e" x="1346.4" y="515.432188" transform="rotate(-0 1346.4 515.432188)">Tick</text>
   </g>
   <g id="text_37">
    <text style="font-weight: 700; font-size: 12.5px; font-family: 'Microsoft YaHei', 'DejaVu Sans'; text-anchor: middle; fill: #23272e" x="1245.6" y="594.790391" transform="rotate(-0 1245.6 594.790391)">IAdapter Interface</text>
   </g>
   <g id="text_38">
    <text style="font-weight: 700; font-size: 12.5px; font-family: 'Microsoft YaHei', 'DejaVu Sans'; text-anchor: middle; fill: #23272e" x="1245.6" y="702.632188" transform="rotate(-0 1245.6 702.632188)">UE5 C++ / Blueprint API</text>
   </g>
   <g id="text_39">
    <text style="font-weight: 700; font-size: 12.5px; font-family: 'Microsoft YaHei', 'DejaVu Sans'; text-anchor: middle; fill: #23272e" x="1245.6" y="781.832188" transform="rotate(-0 1245.6 781.832188)">UE5 Editor / Standalone</text>
   </g>
   <g id="text_40">
    <text style="font-weight: 700; font-size: 12.5px; font-family: 'Microsoft YaHei', 'DejaVu Sans'; text-anchor: middle; fill: #23272e" x="1245.6" y="861.032188" transform="rotate(-0 1245.6 861.032188)">UE5 Runtime (Win/Linux)</text>
   </g>
   <g id="patch_42">
    <path d="M 635.076642 216.613103
Q 528.074464 251.258394 448.780843 329.11939
" clip-path="url(#p8eebd52bfe)" style="fill: none; stroke: #8a94a3; stroke-width: 1.2; stroke-linecap: round"/>
    <path d="M 453.88727 327.468814
L 448.780843 329.11939
L 450.524238 324.043903
z
" clip-path="url(#p8eebd52bfe)" style="fill: #8a94a3; stroke: #8a94a3; stroke-width: 1.2; stroke-linecap: round"/>
   </g>
   <g id="patch_43">
    <path d="M 738 218.00127
Q 738 237.601093 738 255.859275
" clip-path="url(#p8eebd52bfe)" style="fill: none; stroke: #8a94a3; stroke-width: 1.2; stroke-linecap: round"/>
    <path d="M 740.4 251.059275
L 738 255.859275
L 735.6 251.059275
z
" clip-path="url(#p8eebd52bfe)" style="fill: #8a94a3; stroke: #8a94a3; stroke-width: 1.2; stroke-linecap: round"/>
   </g>
   <g id="patch_44">
    <path d="M 840.923358 216.613103
Q 947.925536 251.258394 1027.219157 329.11939
" clip-path="url(#p8eebd52bfe)" style="fill: none; stroke: #8a94a3; stroke-width: 1.2; stroke-linecap: round"/>
    <path d="M 1025.475762 324.043903
L 1027.219157 329.11939
L 1022.11273 327.468814
z
" clip-path="url(#p8eebd52bfe)" style="fill: #8a94a3; stroke: #8a94a3; stroke-width: 1.2; stroke-linecap: round"/>
   </g>
   <g id="line2d_1">
    <path d="M 259.2 619.2
L 259.2 676.8
" clip-path="url(#p8eebd52bfe)" style="fill: none; stroke: #8a94a3; stroke-width: 1.2; stroke-linecap: round"/>
   </g>
   <g id="line2d_2">
    <path d="M 259.2 727.2
L 259.2 756
" clip-path="url(#p8eebd52bfe)" style="fill: none; stroke: #8a94a3; stroke-width: 1.2; stroke-linecap: round"/>
   </g>
   <g id="line2d_3">
    <path d="M 259.2 806.4
L 259.2 835.2
" clip-path="url(#p8eebd52bfe)" style="fill: none; stroke: #8a94a3; stroke-width: 1.2; stroke-linecap: round"/>
   </g>
   <g id="line2d_4">
    <path d="M 752.4 619.2
L 752.4 676.8
" clip-path="url(#p8eebd52bfe)" style="fill: none; stroke: #8a94a3; stroke-width: 1.2; stroke-linecap: round"/>
   </g>
   <g id="line2d_5">
    <path d="M 752.4 727.2
L 752.4 756
" clip-path="url(#p8eebd52bfe)" style="fill: none; stroke: #8a94a3; stroke-width: 1.2; stroke-linecap: round"/>
   </g>
   <g id="line2d_6">
    <path d="M 752.4 806.4
L 752.4 835.2
" clip-path="url(#p8eebd52bfe)" style="fill: none; stroke: #8a94a3; stroke-width: 1.2; stroke-linecap: round"/>
   </g>
   <g id="line2d_7">
    <path d="M 1245.6 619.2
L 1245.6 676.8
" clip-path="url(#p8eebd52bfe)" style="fill: none; stroke: #8a94a3; stroke-width: 1.2; stroke-linecap: round"/>
   </g>
   <g id="line2d_8">
    <path d="M 1245.6 727.2
L 1245.6 756
" clip-path="url(#p8eebd52bfe)" style="fill: none; stroke: #8a94a3; stroke-width: 1.2; stroke-linecap: round"/>
   </g>
   <g id="line2d_9">
    <path d="M 1245.6 806.4
L 1245.6 835.2
" clip-path="url(#p8eebd52bfe)" style="fill: none; stroke: #8a94a3; stroke-width: 1.2; stroke-linecap: round"/>
   </g>
   <g id="patch_45">
    <path d="M 259.2 621.200391
Q 259.2 648.0008 259.2 674.80121
" clip-path="url(#p8eebd52bfe)" style="fill: none"/>
    <path d="M 261.6 670.00121
L 259.2 674.80121
L 256.8 670.00121
z
" clip-path="url(#p8eebd52bfe)" style="fill: #8a94a3"/>
   </g>
   <g id="patch_46">
    <path d="M 259.2 729.200391
Q 259.2 741.600771 259.2 754.001152
" clip-path="url(#p8eebd52bfe)" style="fill: none"/>
    <path d="M 261.6 749.201152
L 259.2 754.001152
L 256.8 749.201152
z
" clip-path="url(#p8eebd52bfe)" style="fill: #8a94a3"/>
   </g>
   <g id="patch_47">
    <path d="M 259.2 808.400391
Q 259.2 820.800771 259.2 833.201152
" clip-path="url(#p8eebd52bfe)" style="fill: none"/>
    <path d="M 261.6 828.401152
L 259.2 833.201152
L 256.8 828.401152
z
" clip-path="url(#p8eebd52bfe)" style="fill: #8a94a3"/>
   </g>
   <g id="patch_48">
    <path d="M 752.4 621.200391
Q 752.4 648.0008 752.4 674.80121
" clip-path="url(#p8eebd52bfe)" style="fill: none"/>
    <path d="M 754.8 670.00121
L 752.4 674.80121
L 750 670.00121
z
" clip-path="url(#p8eebd52bfe)" style="fill: #8a94a3"/>
   </g>
   <g id="patch_49">
    <path d="M 752.4 729.200391
Q 752.4 741.600771 752.4 754.001152
" clip-path="url(#p8eebd52bfe)" style="fill: none"/>
    <path d="M 754.8 749.201152
L 752.4 754.001152
L 750 749.201152
z
" clip-path="url(#p8eebd52bfe)" style="fill: #8a94a3"/>
   </g>
   <g id="patch_50">
    <path d="M 752.4 808.400391
Q 752.4 820.800771 752.4 833.201152
" clip-path="url(#p8eebd52bfe)" style="fill: none"/>
    <path d="M 754.8 828.401152
L 752.4 833.201152
L 750 828.401152
z
" clip-path="url(#p8eebd52bfe)" style="fill: #8a94a3"/>
   </g>
   <g id="patch_51">
    <path d="M 1245.6 621.200391
Q 1245.6 648.0008 1245.6 674.80121
" clip-path="url(#p8eebd52bfe)" style="fill: none"/>
    <path d="M 1248 670.00121
L 1245.6 674.80121
L 1243.2 670.00121
z
" clip-path="url(#p8eebd52bfe)" style="fill: #8a94a3"/>
   </g>
   <g id="patch_52">
    <path d="M 1245.6 729.200391
Q 1245.6 741.600771 1245.6 754.001152
" clip-path="url(#p8eebd52bfe)" style="fill: none"/>
    <path d="M 1248 749.201152
L 1245.6 754.001152
L 1243.2 749.201152
z
" clip-path="url(#p8eebd52bfe)" style="fill: #8a94a3"/>
   </g>
   <g id="patch_53">
    <path d="M 1245.6 808.400391
Q 1245.6 820.800771 1245.6 833.201152
" clip-path="url(#p8eebd52bfe)" style="fill: none"/>
    <path d="M 1248 828.401152
L 1245.6 833.201152
L 1243.2 828.401152
z
" clip-path="url(#p8eebd52bfe)" style="fill: #8a94a3"/>
   </g>
   <g id="text_41">
    <text style="font-weight: 700; font-size: 20px; font-family: 'Microsoft YaHei', 'DejaVu Sans'; text-anchor: middle; fill: #181b20" x="738" y="40.720625" transform="rotate(-0 738 40.720625)">Ludots Adapter Platform - Three Platform Comparison</text>
   </g>
   <g id="text_42">
    <text style="font-size: 12px; font-family: 'Microsoft YaHei', 'DejaVu Sans'; text-anchor: middle; fill: #5b6470" x="738" y="68.6325" transform="rotate(-0 738 68.6325)">Raylib (Native) vs Web (Browser) vs UE5 (Plugin)</text>
   </g>
   <g id="patch_54">
    <path d="M 36 100.8
L 172.8 100.8
Q 180 100.8 180 108
L 180 226.08
Q 180 233.28 172.8 233.28
L 36 233.28
Q 28.8 233.28 28.8 226.08
L 28.8 108
Q 28.8 100.8 36 100.8
z
" clip-path="url(#p8eebd52bfe)" style="fill: #ffffff; stroke: #dfe3e9; stroke-linejoin: miter"/>
   </g>
   <g id="text_43">
    <text style="font-weight: 700; font-size: 10.5px; font-family: 'Microsoft YaHei', 'DejaVu Sans'; text-anchor: start; fill: #23272e" x="41.76" y="117.833438" transform="rotate(-0 41.76 117.833438)">Legend</text>
   </g>
   <g id="patch_55">
    <path d="M 45.36 131.4
L 58.32 131.4
Q 61.92 131.4 61.92 135
L 61.92 142.2
Q 61.92 145.8 58.32 145.8
L 45.36 145.8
Q 41.76 145.8 41.76 142.2
L 41.76 135
Q 41.76 131.4 45.36 131.4
z
" clip-path="url(#p8eebd52bfe)" style="fill: #f4ede9; stroke: #b08d7f; stroke-linejoin: miter"/>
   </g>
   <g id="text_44">
    <text style="font-size: 10.2px; font-family: 'Microsoft YaHei', 'DejaVu Sans'; text-anchor: start; fill: #3a4149" x="67.68" y="141.350016" transform="rotate(-0 67.68 141.350016)">Engine Core</text>
   </g>
   <g id="patch_56">
    <path d="M 45.36 155.16
L 58.32 155.16
Q 61.92 155.16 61.92 158.76
L 61.92 165.96
Q 61.92 169.56 58.32 169.56
L 45.36 169.56
Q 41.76 169.56 41.76 165.96
L 41.76 158.76
Q 41.76 155.16 45.36 155.16
z
" clip-path="url(#p8eebd52bfe)" style="fill: #edf3ee; stroke: #7fa087; stroke-linejoin: miter"/>
   </g>
   <g id="text_45">
    <text style="font-size: 10.2px; font-family: 'Microsoft YaHei', 'DejaVu Sans'; text-anchor: start; fill: #3a4149" x="67.68" y="165.1395" transform="rotate(-0 67.68 165.1395)">Raylib</text>
   </g>
   <g id="patch_57">
    <path d="M 45.36 178.92
L 58.32 178.92
Q 61.92 178.92 61.92 182.52
L 61.92 189.72
Q 61.92 193.32 58.32 193.32
L 45.36 193.32
Q 41.76 193.32 41.76 189.72
L 41.76 182.52
Q 41.76 178.92 45.36 178.92
z
" clip-path="url(#p8eebd52bfe)" style="fill: #e9eff5; stroke: #7490a8; stroke-linejoin: miter"/>
   </g>
   <g id="text_46">
    <text style="font-size: 10.2px; font-family: 'Microsoft YaHei', 'DejaVu Sans'; text-anchor: start; fill: #3a4149" x="67.68" y="188.928984" transform="rotate(-0 67.68 188.928984)">Web</text>
   </g>
   <g id="patch_58">
    <path d="M 45.36 202.68
L 58.32 202.68
Q 61.92 202.68 61.92 206.28
L 61.92 213.48
Q 61.92 217.08 58.32 217.08
L 45.36 217.08
Q 41.76 217.08 41.76 213.48
L 41.76 206.28
Q 41.76 202.68 45.36 202.68
z
" clip-path="url(#p8eebd52bfe)" style="fill: #f0f0ea; stroke: #999a7e; stroke-linejoin: miter"/>
   </g>
   <g id="text_47">
    <text style="font-size: 10.2px; font-family: 'Microsoft YaHei', 'DejaVu Sans'; text-anchor: start; fill: #3a4149" x="67.68" y="212.688984" transform="rotate(-0 67.68 212.688984)">UE5</text>
   </g>
  </g>
 </g>
 <defs>
  <clipPath id="p8eebd52bfe">
   <rect x="0" y="0" width="1476" height="957.6"/>
  </clipPath>
 </defs>
</svg>
