<?xml version="1.0" encoding="utf-8" standalone="no"?>
<!DOCTYPE svg PUBLIC "-//W3C//DTD SVG 1.1//EN"
  "http://www.w3.org/Graphics/SVG/1.1/DTD/svg11.dtd">
<svg xmlns:xlink="http://www.w3.org/1999/xlink" width="846pt" height="679.68pt" viewBox="0 0 846 679.68" xmlns="http://www.w3.org/2000/svg" version="1.1">
 <metadata>
  <rdf:RDF xmlns:dc="http://purl.org/dc/elements/1.1/" xmlns:cc="http://creativecommons.org/ns#" xmlns:rdf="http://www.w3.org/1999/02/22-rdf-syntax-ns#">
   <cc:Work>
    <dc:type rdf:resource="http://purl.org/dc/dcmitype/StillImage"/>
    <dc:date>2026-07-02T20:11:53.826604</dc:date>
    <dc:format>image/svg+xml</dc:format>
    <dc:creator>
     <cc:Agent>
      <dc:title>Matplotlib v3.10.9, https://matplotlib.org/</dc:title>
     </cc:Agent>
    </dc:creator>
   </cc:Work>
  </rdf:RDF>
 </metadata>
 <defs>
  <style type="text/css">*{stroke-linejoin: round; stroke-linecap: butt}</style>
 </defs>
 <g id="figure_1">
  <g id="patch_1">
   <path d="M 0 679.68
L 846 679.68
L 846 0
L 0 0
z
" style="fill: #faf7f2"/>
  </g>
  <g id="axes_1">
   <g id="patch_2">
    <path d="M 142.248206 215.28013
Q 150.648929 215.959202 156.263646 215.505561
" style="fill: none; stroke: #e0d8d0; stroke-width: 2.5; stroke-linecap: round"/>
    <path d="M 152.115573 213.834187
L 156.263646 215.505561
L 152.437703 217.821195
" style="fill: none; stroke: #e0d8d0; stroke-width: 2.5; stroke-linecap: round"/>
   </g>
   <g id="patch_3">
    <path d="M 254.514206 215.28013
Q 262.914929 215.959202 268.529646 215.505561
" style="fill: none; stroke: #e0d8d0; stroke-width: 2.5; stroke-linecap: round"/>
    <path d="M 264.381573 213.834187
L 268.529646 215.505561
L 264.703703 217.821195
" style="fill: none; stroke: #e0d8d0; stroke-width: 2.5; stroke-linecap: round"/>
   </g>
   <g id="patch_4">
    <path d="M 366.780206 215.28013
Q 375.180929 215.959202 380.795646 215.505561
" style="fill: none; stroke: #e0d8d0; stroke-width: 2.5; stroke-linecap: round"/>
    <path d="M 376.647573 213.834187
L 380.795646 215.505561
L 376.969703 217.821195
" style="fill: none; stroke: #e0d8d0; stroke-width: 2.5; stroke-linecap: round"/>
   </g>
   <g id="patch_5">
    <path d="M 479.046206 215.28013
Q 487.446929 215.959202 493.061646 215.505561
" style="fill: none; stroke: #e0d8d0; stroke-width: 2.5; stroke-linecap: round"/>
    <path d="M 488.913573 213.834187
L 493.061646 215.505561
L 489.235703 217.821195
" style="fill: none; stroke: #e0d8d0; stroke-width: 2.5; stroke-linecap: round"/>
   </g>
   <g id="patch_6">
    <path d="M 591.312206 215.28013
Q 599.712929 215.959202 605.327646 215.505561
" style="fill: none; stroke: #e0d8d0; stroke-width: 2.5; stroke-linecap: round"/>
    <path d="M 601.179573 213.834187
L 605.327646 215.505561
L 601.501703 217.821195
" style="fill: none; stroke: #e0d8d0; stroke-width: 2.5; stroke-linecap: round"/>
   </g>
   <g id="patch_7">
    <path d="M 703.578206 215.28013
Q 711.978929 215.959202 717.593646 215.505561
" style="fill: none; stroke: #e0d8d0; stroke-width: 2.5; stroke-linecap: round"/>
    <path d="M 713.445573 213.834187
L 717.593646 215.505561
L 713.767703 217.821195
" style="fill: none; stroke: #e0d8d0; stroke-width: 2.5; stroke-linecap: round"/>
   </g>
   <g id="patch_8">
    <path d="M 766.4001 172.494277
Q 431.316383 -27.532848 97.672661 171.634221
" style="fill: none; stroke-dasharray: 5.55,2.4; stroke-dashoffset: 0; stroke: #6b6560; stroke-width: 1.5; stroke-linecap: round"/>
    <path d="M 102.132385 171.301253
L 97.672661 171.634221
L 100.082121 167.866661
" style="fill: none; stroke-dasharray: 5.55,2.4; stroke-dashoffset: 0; stroke: #6b6560; stroke-width: 1.5; stroke-linecap: round"/>
   </g>
   <g id="patch_9">
    <path d="M 44.622 485.37
L 144.414 485.37
Q 152.73 485.37 152.73 477.054
L 152.73 368.946
Q 152.73 360.63 144.414 360.63
L 44.622 360.63
Q 36.306 360.63 36.306 368.946
L 36.306 477.054
Q 36.306 485.37 44.622 485.37
z
" clip-path="url(#p7fb5f970dc)" style="fill: #e4e7e3; opacity: 0.5; stroke-dasharray: 3.7,1.6; stroke-dashoffset: 0; stroke: #6b8e8e; stroke-linejoin: miter"/>
   </g>
   <g id="patch_10">
    <path d="M 156.888 485.37
L 256.68 485.37
Q 264.996 485.37 264.996 477.054
L 264.996 368.946
Q 264.996 360.63 256.68 360.63
L 156.888 360.63
Q 148.572 360.63 148.572 368.946
L 148.572 477.054
Q 148.572 485.37 156.888 485.37
z
" clip-path="url(#p7fb5f970dc)" style="fill: #e4e7e3; opacity: 0.5; stroke-dasharray: 3.7,1.6; stroke-dashoffset: 0; stroke: #6b8e8e; stroke-linejoin: miter"/>
   </g>
   <g id="patch_11">
    <path d="M 269.154 485.37
L 368.946 485.37
Q 377.262 485.37 377.262 477.054
L 377.262 368.946
Q 377.262 360.63 368.946 360.63
L 269.154 360.63
Q 260.838 360.63 260.838 368.946
L 260.838 477.054
Q 260.838 485.37 269.154 485.37
z
" clip-path="url(#p7fb5f970dc)" style="fill: #f1dfd7; opacity: 0.5; stroke-dasharray: 3.7,1.6; stroke-dashoffset: 0; stroke: #c45c3e; stroke-linejoin: miter"/>
   </g>
   <g id="patch_12">
    <path d="M 381.42 485.37
L 481.212 485.37
Q 489.528 485.37 489.528 477.054
L 489.528 368.946
Q 489.528 360.63 481.212 360.63
L 381.42 360.63
Q 373.104 360.63 373.104 368.946
L 373.104 477.054
Q 373.104 485.37 381.42 485.37
z
" clip-path="url(#p7fb5f970dc)" style="fill: #f1dfd7; opacity: 0.5; stroke-dasharray: 3.7,1.6; stroke-dashoffset: 0; stroke: #c45c3e; stroke-linejoin: miter"/>
   </g>
   <g id="patch_13">
    <path d="M 493.686 485.37
L 593.478 485.37
Q 601.794 485.37 601.794 477.054
L 601.794 368.946
Q 601.794 360.63 593.478 360.63
L 493.686 360.63
Q 485.37 360.63 485.37 368.946
L 485.37 477.054
Q 485.37 485.37 493.686 485.37
z
" clip-path="url(#p7fb5f970dc)" style="fill: #e9e2db; opacity: 0.5; stroke-dasharray: 3.7,1.6; stroke-dashoffset: 0; stroke: #8e6b5c; stroke-linejoin: miter"/>
   </g>
   <g id="patch_14">
    <path d="M 605.952 485.37
L 705.744 485.37
Q 714.06 485.37 714.06 477.054
L 714.06 368.946
Q 714.06 360.63 705.744 360.63
L 605.952 360.63
Q 597.636 360.63 597.636 368.946
L 597.636 477.054
Q 597.636 485.37 605.952 485.37
z
" clip-path="url(#p7fb5f970dc)" style="fill: #e6e2e3; opacity: 0.5; stroke-dasharray: 3.7,1.6; stroke-dashoffset: 0; stroke: #7a6b8e; stroke-linejoin: miter"/>
   </g>
   <g id="patch_15">
    <path d="M 718.218 485.37
L 818.01 485.37
Q 826.326 485.37 826.326 477.054
L 826.326 368.946
Q 826.326 360.63 818.01 360.63
L 718.218 360.63
Q 709.902 360.63 709.902 368.946
L 709.902 477.054
Q 709.902 485.37 718.218 485.37
z
" clip-path="url(#p7fb5f970dc)" style="fill: #e4e7e3; opacity: 0.5; stroke-dasharray: 3.7,1.6; stroke-dashoffset: 0; stroke: #6b8e8e; stroke-linejoin: miter"/>
   </g>
   <g id="patch_16">
    <path d="M 86.202 260.838
L 102.834 260.838
Q 144.414 260.838 144.414 219.258
L 144.414 210.942
Q 144.414 169.362 102.834 169.362
L 86.202 169.362
Q 44.622 169.362 44.622 210.942
L 44.622 219.258
Q 44.622 260.838 86.202 260.838
z
" clip-path="url(#p7fb5f970dc)" style="fill: #c0cdca; stroke: #6b8e8e; stroke-width: 2.5; stroke-linejoin: miter"/>
   </g>
   <g id="patch_17">
    <path d="M 165.204 260.838
L 248.364 260.838
Q 256.68 260.838 256.68 252.522
L 256.68 177.678
Q 256.68 169.362 248.364 169.362
L 165.204 169.362
Q 156.888 169.362 156.888 177.678
L 156.888 252.522
Q 156.888 260.838 165.204 260.838
z
" clip-path="url(#p7fb5f970dc)" style="fill: #d6dcd8; stroke: #6b8e8e; stroke-width: 2; stroke-linejoin: miter"/>
   </g>
   <g id="patch_18">
    <path d="M 277.47 260.838
L 360.63 260.838
Q 368.946 260.838 368.946 252.522
L 368.946 177.678
Q 368.946 169.362 360.63 169.362
L 277.47 169.362
Q 269.154 169.362 269.154 177.678
L 269.154 252.522
Q 269.154 260.838 277.47 260.838
z
" clip-path="url(#p7fb5f970dc)" style="fill: #ecd0c4; stroke: #c45c3e; stroke-width: 2; stroke-linejoin: miter"/>
   </g>
   <g id="patch_19">
    <path d="M 389.736 260.838
L 472.896 260.838
Q 481.212 260.838 481.212 252.522
L 481.212 177.678
Q 481.212 169.362 472.896 169.362
L 389.736 169.362
Q 381.42 169.362 381.42 177.678
L 381.42 252.522
Q 381.42 260.838 389.736 260.838
z
" clip-path="url(#p7fb5f970dc)" style="fill: #ecd0c4; stroke: #c45c3e; stroke-width: 2; stroke-linejoin: miter"/>
   </g>
   <g id="patch_20">
    <path d="M 502.002 260.838
L 585.162 260.838
Q 593.478 260.838 593.478 252.522
L 593.478 177.678
Q 593.478 169.362 585.162 169.362
L 502.002 169.362
Q 493.686 169.362 493.686 177.678
L 493.686 252.522
Q 493.686 260.838 502.002 260.838
z
" clip-path="url(#p7fb5f970dc)" style="fill: #ded4cc; stroke: #8e6b5c; stroke-width: 2; stroke-linejoin: miter"/>
   </g>
   <g id="patch_21">
    <path d="M 614.268 260.838
L 697.428 260.838
Q 705.744 260.838 705.744 252.522
L 705.744 177.678
Q 705.744 169.362 697.428 169.362
L 614.268 169.362
Q 605.952 169.362 605.952 177.678
L 605.952 252.522
Q 605.952 260.838 614.268 260.838
z
" clip-path="url(#p7fb5f970dc)" style="fill: #d9d4d8; stroke: #7a6b8e; stroke-width: 2; stroke-linejoin: miter"/>
   </g>
   <g id="patch_22">
    <path d="M 759.798 260.838
L 776.43 260.838
Q 818.01 260.838 818.01 219.258
L 818.01 210.942
Q 818.01 169.362 776.43 169.362
L 759.798 169.362
Q 718.218 169.362 718.218 210.942
L 718.218 219.258
Q 718.218 260.838 759.798 260.838
z
" clip-path="url(#p7fb5f970dc)" style="fill: #c0cdca; stroke: #6b8e8e; stroke-width: 2.5; stroke-linejoin: miter"/>
   </g>
   <g id="patch_23">
    <path d="M 32.148 418.842
L 82.044 418.842
Q 94.518 418.842 94.518 406.368
L 94.518 389.736
Q 94.518 377.262 82.044 377.262
L 32.148 377.262
Q 19.674 377.262 19.674 389.736
L 19.674 406.368
Q 19.674 418.842 32.148 418.842
z
" clip-path="url(#p7fb5f970dc)" style="fill: #cfd7d4; opacity: 0.9; stroke: #e0d8d0; stroke-width: 1.5; stroke-linejoin: miter"/>
   </g>
   <g id="patch_24">
    <path d="M 90.36 460.422
L 140.256 460.422
Q 152.73 460.422 152.73 447.948
L 152.73 431.316
Q 152.73 418.842 140.256 418.842
L 90.36 418.842
Q 77.886 418.842 77.886 431.316
L 77.886 447.948
Q 77.886 460.422 90.36 460.422
z
" clip-path="url(#p7fb5f970dc)" style="fill: #cfd7d4; opacity: 0.9; stroke: #e0d8d0; stroke-width: 1.5; stroke-linejoin: miter"/>
   </g>
   <g id="patch_25">
    <path d="M 144.414 418.842
L 194.31 418.842
Q 206.784 418.842 206.784 406.368
L 206.784 389.736
Q 206.784 377.262 194.31 377.262
L 144.414 377.262
Q 131.94 377.262 131.94 389.736
L 131.94 406.368
Q 131.94 418.842 144.414 418.842
z
" clip-path="url(#p7fb5f970dc)" style="fill: #cfd7d4; opacity: 0.9; stroke: #e0d8d0; stroke-width: 1.5; stroke-linejoin: miter"/>
   </g>
   <g id="patch_26">
    <path d="M 202.626 460.422
L 252.522 460.422
Q 264.996 460.422 264.996 447.948
L 264.996 431.316
Q 264.996 418.842 252.522 418.842
L 202.626 418.842
Q 190.152 418.842 190.152 431.316
L 190.152 447.948
Q 190.152 460.422 202.626 460.422
z
" clip-path="url(#p7fb5f970dc)" style="fill: #cfd7d4; opacity: 0.9; stroke: #e0d8d0; stroke-width: 1.5; stroke-linejoin: miter"/>
   </g>
   <g id="patch_27">
    <path d="M 256.68 418.842
L 306.576 418.842
Q 319.05 418.842 319.05 406.368
L 319.05 389.736
Q 319.05 377.262 306.576 377.262
L 256.68 377.262
Q 244.206 377.262 244.206 389.736
L 244.206 406.368
Q 244.206 418.842 256.68 418.842
z
" clip-path="url(#p7fb5f970dc)" style="fill: #e9c8bb; opacity: 0.9; stroke: #e0d8d0; stroke-width: 1.5; stroke-linejoin: miter"/>
   </g>
   <g id="patch_28">
    <path d="M 314.892 460.422
L 364.788 460.422
Q 377.262 460.422 377.262 447.948
L 377.262 431.316
Q 377.262 418.842 364.788 418.842
L 314.892 418.842
Q 302.418 418.842 302.418 431.316
L 302.418 447.948
Q 302.418 460.422 314.892 460.422
z
" clip-path="url(#p7fb5f970dc)" style="fill: #e9c8bb; opacity: 0.9; stroke: #e0d8d0; stroke-width: 1.5; stroke-linejoin: miter"/>
   </g>
   <g id="patch_29">
    <path d="M 368.946 418.842
L 418.842 418.842
Q 431.316 418.842 431.316 406.368
L 431.316 389.736
Q 431.316 377.262 418.842 377.262
L 368.946 377.262
Q 356.472 377.262 356.472 389.736
L 356.472 406.368
Q 356.472 418.842 368.946 418.842
z
" clip-path="url(#p7fb5f970dc)" style="fill: #e9c8bb; opacity: 0.9; stroke: #e0d8d0; stroke-width: 1.5; stroke-linejoin: miter"/>
   </g>
   <g id="patch_30">
    <path d="M 427.158 460.422
L 477.054 460.422
Q 489.528 460.422 489.528 447.948
L 489.528 431.316
Q 489.528 418.842 477.054 418.842
L 427.158 418.842
Q 414.684 418.842 414.684 431.316
L 414.684 447.948
Q 414.684 460.422 427.158 460.422
z
" clip-path="url(#p7fb5f970dc)" style="fill: #e9c8bb; opacity: 0.9; stroke: #e0d8d0; stroke-width: 1.5; stroke-linejoin: miter"/>
   </g>
   <g id="patch_31">
    <path d="M 481.212 418.842
L 531.108 418.842
Q 543.582 418.842 543.582 406.368
L 543.582 389.736
Q 543.582 377.262 531.108 377.262
L 481.212 377.262
Q 468.738 377.262 468.738 389.736
L 468.738 406.368
Q 468.738 418.842 481.212 418.842
z
" clip-path="url(#p7fb5f970dc)" style="fill: #d9cdc4; opacity: 0.9; stroke: #e0d8d0; stroke-width: 1.5; stroke-linejoin: miter"/>
   </g>
   <g id="patch_32">
    <path d="M 539.424 460.422
L 589.32 460.422
Q 601.794 460.422 601.794 447.948
L 601.794 431.316
Q 601.794 418.842 589.32 418.842
L 539.424 418.842
Q 526.95 418.842 526.95 431.316
L 526.95 447.948
Q 526.95 460.422 539.424 460.422
z
" clip-path="url(#p7fb5f970dc)" style="fill: #d9cdc4; opacity: 0.9; stroke: #e0d8d0; stroke-width: 1.5; stroke-linejoin: miter"/>
   </g>
   <g id="patch_33">
    <path d="M 593.478 418.842
L 643.374 418.842
Q 655.848 418.842 655.848 406.368
L 655.848 389.736
Q 655.848 377.262 643.374 377.262
L 593.478 377.262
Q 581.004 377.262 581.004 389.736
L 581.004 406.368
Q 581.004 418.842 593.478 418.842
z
" clip-path="url(#p7fb5f970dc)" style="fill: #d3cdd4; opacity: 0.9; stroke: #e0d8d0; stroke-width: 1.5; stroke-linejoin: miter"/>
   </g>
   <g id="patch_34">
    <path d="M 651.69 460.422
L 701.586 460.422
Q 714.06 460.422 714.06 447.948
L 714.06 431.316
Q 714.06 418.842 701.586 418.842
L 651.69 418.842
Q 639.216 418.842 639.216 431.316
L 639.216 447.948
Q 639.216 460.422 651.69 460.422
z
" clip-path="url(#p7fb5f970dc)" style="fill: #d3cdd4; opacity: 0.9; stroke: #e0d8d0; stroke-width: 1.5; stroke-linejoin: miter"/>
   </g>
   <g id="patch_35">
    <path d="M 709.902 502.002
L 759.798 502.002
Q 772.272 502.002 772.272 489.528
L 772.272 472.896
Q 772.272 460.422 759.798 460.422
L 709.902 460.422
Q 697.428 460.422 697.428 472.896
L 697.428 489.528
Q 697.428 502.002 709.902 502.002
z
" clip-path="url(#p7fb5f970dc)" style="fill: #d3cdd4; opacity: 0.9; stroke: #e0d8d0; stroke-width: 1.5; stroke-linejoin: miter"/>
   </g>
   <g id="patch_36">
    <path d="M 705.744 418.842
L 755.64 418.842
Q 768.114 418.842 768.114 406.368
L 768.114 389.736
Q 768.114 377.262 755.64 377.262
L 705.744 377.262
Q 693.27 377.262 693.27 389.736
L 693.27 406.368
Q 693.27 418.842 705.744 418.842
z
" clip-path="url(#p7fb5f970dc)" style="fill: #cfd7d4; opacity: 0.9; stroke: #e0d8d0; stroke-width: 1.5; stroke-linejoin: miter"/>
   </g>
   <g id="patch_37">
    <path d="M 763.956 460.422
L 813.852 460.422
Q 826.326 460.422 826.326 447.948
L 826.326 431.316
Q 826.326 418.842 813.852 418.842
L 763.956 418.842
Q 751.482 418.842 751.482 431.316
L 751.482 447.948
Q 751.482 460.422 763.956 460.422
z
" clip-path="url(#p7fb5f970dc)" style="fill: #cfd7d4; opacity: 0.9; stroke: #e0d8d0; stroke-width: 1.5; stroke-linejoin: miter"/>
   </g>
   <g id="text_1">
    <!-- Ludots Web Client Frame Flow -->
    <g style="fill: #2d2a26" transform="translate(294.53625 36.740812) scale(0.18 -0.18)">
     <defs>
      <path id="SegoeUI-Bold-4c" d="M 3181 0
L 513 0
L 513 4481
L 1522 4481
L 1522 819
L 3181 819
L 3181 0
z
" transform="scale(0.015625)"/>
      <path id="SegoeUI-Bold-75" d="M 3456 0
L 2472 0
L 2472 488
L 2456 488
Q 2091 -78 1478 -78
Q 366 -78 366 1269
L 366 3200
L 1350 3200
L 1350 1356
Q 1350 678 1888 678
Q 2153 678 2312 864
Q 2472 1050 2472 1369
L 2472 3200
L 3456 3200
L 3456 0
z
" transform="scale(0.015625)"/>
      <path id="SegoeUI-Bold-64" d="M 3547 0
L 2559 0
L 2559 441
L 2547 441
Q 2209 -78 1556 -78
Q 956 -78 590 345
Q 225 769 225 1528
Q 225 2322 628 2800
Q 1031 3278 1684 3278
Q 2303 3278 2547 2834
L 2559 2834
L 2559 4738
L 3547 4738
L 3547 0
z
M 2578 1556
L 2578 1797
Q 2578 2109 2397 2315
Q 2216 2522 1925 2522
Q 1597 2522 1412 2264
Q 1228 2006 1228 1556
Q 1228 1134 1406 906
Q 1584 678 1900 678
Q 2200 678 2389 918
Q 2578 1159 2578 1556
z
" transform="scale(0.015625)"/>
      <path id="SegoeUI-Bold-6f" d="M 1941 -78
Q 1141 -78 683 370
Q 225 819 225 1588
Q 225 2381 700 2829
Q 1175 3278 1984 3278
Q 2781 3278 3234 2829
Q 3688 2381 3688 1644
Q 3688 847 3220 384
Q 2753 -78 1941 -78
z
M 1966 2522
Q 1616 2522 1422 2281
Q 1228 2041 1228 1600
Q 1228 678 1972 678
Q 2681 678 2681 1625
Q 2681 2522 1966 2522
z
" transform="scale(0.015625)"/>
      <path id="SegoeUI-Bold-74" d="M 2350 38
Q 2131 -78 1691 -78
Q 647 -78 647 1006
L 647 2472
L 128 2472
L 128 3200
L 647 3200
L 647 3891
L 1631 4172
L 1631 3200
L 2350 3200
L 2350 2472
L 1631 2472
L 1631 1178
Q 1631 678 2028 678
Q 2184 678 2350 769
L 2350 38
z
" transform="scale(0.015625)"/>
      <path id="SegoeUI-Bold-73" d="M 206 84
L 206 884
Q 450 738 692 666
Q 934 594 1150 594
Q 1413 594 1564 666
Q 1716 738 1716 884
Q 1716 978 1647 1040
Q 1578 1103 1470 1150
Q 1363 1197 1234 1234
Q 1106 1272 988 1319
Q 797 1391 651 1473
Q 506 1556 407 1665
Q 309 1775 257 1919
Q 206 2063 206 2259
Q 206 2528 323 2722
Q 441 2916 636 3039
Q 831 3163 1082 3220
Q 1334 3278 1606 3278
Q 1819 3278 2037 3245
Q 2256 3213 2469 3150
L 2469 2388
Q 2281 2497 2067 2551
Q 1853 2606 1647 2606
Q 1550 2606 1464 2589
Q 1378 2572 1312 2539
Q 1247 2506 1209 2454
Q 1172 2403 1172 2338
Q 1172 2250 1228 2187
Q 1284 2125 1375 2079
Q 1466 2034 1577 1998
Q 1688 1963 1797 1925
Q 1994 1856 2153 1775
Q 2313 1694 2427 1584
Q 2541 1475 2602 1328
Q 2663 1181 2663 978
Q 2663 694 2539 492
Q 2416 291 2211 164
Q 2006 38 1739 -20
Q 1472 -78 1184 -78
Q 656 -78 206 84
z
" transform="scale(0.015625)"/>
      <path id="SegoeUI-Bold-20" transform="scale(0.015625)"/>
      <path id="SegoeUI-Bold-57" d="M 6375 4481
L 5191 0
L 4072 0
L 3328 2875
Q 3269 3100 3256 3378
L 3244 3378
Q 3216 3072 3163 2875
L 2400 0
L 1234 0
L 56 4481
L 1159 4481
L 1791 1497
Q 1831 1306 1850 984
L 1869 984
Q 1881 1225 1959 1509
L 2772 4481
L 3853 4481
L 4588 1472
Q 4628 1306 4659 991
L 4672 991
Q 4684 1238 4738 1491
L 5356 4481
L 6375 4481
z
" transform="scale(0.015625)"/>
      <path id="SegoeUI-Bold-65" d="M 3291 1319
L 1203 1319
Q 1253 622 2081 622
Q 2609 622 3009 872
L 3009 159
Q 2566 -78 1856 -78
Q 1081 -78 653 351
Q 225 781 225 1550
Q 225 2347 687 2812
Q 1150 3278 1825 3278
Q 2525 3278 2908 2862
Q 3291 2447 3291 1734
L 3291 1319
z
M 2375 1925
Q 2375 2613 1819 2613
Q 1581 2613 1407 2416
Q 1234 2219 1197 1925
L 2375 1925
z
" transform="scale(0.015625)"/>
      <path id="SegoeUI-Bold-62" d="M 1416 372
L 1403 372
L 1403 0
L 416 0
L 416 4738
L 1403 4738
L 1403 2719
L 1416 2719
Q 1781 3278 2456 3278
Q 3075 3278 3409 2853
Q 3744 2428 3744 1691
Q 3744 891 3353 406
Q 2963 -78 2309 -78
Q 1719 -78 1416 372
z
M 1388 1722
L 1388 1394
Q 1388 1084 1566 881
Q 1744 678 2022 678
Q 2359 678 2545 939
Q 2731 1200 2731 1678
Q 2731 2075 2561 2298
Q 2391 2522 2075 2522
Q 1778 2522 1583 2300
Q 1388 2078 1388 1722
z
" transform="scale(0.015625)"/>
      <path id="SegoeUI-Bold-43" d="M 3725 159
Q 3234 -78 2444 -78
Q 1413 -78 822 528
Q 231 1134 231 2144
Q 231 3219 895 3887
Q 1559 4556 2619 4556
Q 3275 4556 3725 4391
L 3725 3419
Q 3275 3688 2700 3688
Q 2069 3688 1681 3291
Q 1294 2894 1294 2216
Q 1294 1566 1659 1180
Q 2025 794 2644 794
Q 3234 794 3725 1081
L 3725 159
z
" transform="scale(0.015625)"/>
      <path id="SegoeUI-Bold-6c" d="M 1403 0
L 416 0
L 416 4738
L 1403 4738
L 1403 0
z
" transform="scale(0.015625)"/>
      <path id="SegoeUI-Bold-69" d="M 916 3706
Q 666 3706 506 3854
Q 347 4003 347 4219
Q 347 4441 506 4581
Q 666 4722 916 4722
Q 1169 4722 1326 4581
Q 1484 4441 1484 4219
Q 1484 3994 1326 3850
Q 1169 3706 916 3706
z
M 1403 0
L 416 0
L 416 3200
L 1403 3200
L 1403 0
z
" transform="scale(0.015625)"/>
      <path id="SegoeUI-Bold-6e" d="M 3506 0
L 2522 0
L 2522 1778
Q 2522 2522 1991 2522
Q 1734 2522 1568 2325
Q 1403 2128 1403 1825
L 1403 0
L 416 0
L 416 3200
L 1403 3200
L 1403 2694
L 1416 2694
Q 1769 3278 2444 3278
Q 3506 3278 3506 1959
L 3506 0
z
" transform="scale(0.015625)"/>
      <path id="SegoeUI-Bold-46" d="M 3103 3659
L 1522 3659
L 1522 2559
L 2975 2559
L 2975 1741
L 1522 1741
L 1522 0
L 513 0
L 513 4481
L 3103 4481
L 3103 3659
z
" transform="scale(0.015625)"/>
      <path id="SegoeUI-Bold-72" d="M 2503 2309
Q 2325 2406 2088 2406
Q 1766 2406 1584 2170
Q 1403 1934 1403 1528
L 1403 0
L 416 0
L 416 3200
L 1403 3200
L 1403 2606
L 1416 2606
Q 1650 3256 2259 3256
Q 2416 3256 2503 3219
L 2503 2309
z
" transform="scale(0.015625)"/>
      <path id="SegoeUI-Bold-61" d="M 3078 0
L 2144 0
L 2144 459
L 2131 459
Q 1809 -78 1178 -78
Q 713 -78 445 186
Q 178 450 178 891
Q 178 1822 1281 1966
L 2150 2081
Q 2150 2606 1581 2606
Q 1009 2606 494 2266
L 494 3009
Q 700 3116 1058 3197
Q 1416 3278 1709 3278
Q 3078 3278 3078 1913
L 3078 0
z
M 2150 1300
L 2150 1516
L 1569 1441
Q 1088 1378 1088 1006
Q 1088 838 1205 730
Q 1322 622 1522 622
Q 1800 622 1975 814
Q 2150 1006 2150 1300
z
" transform="scale(0.015625)"/>
      <path id="SegoeUI-Bold-6d" d="M 5497 0
L 4513 0
L 4513 1825
Q 4513 2522 4000 2522
Q 3756 2522 3603 2312
Q 3450 2103 3450 1791
L 3450 0
L 2463 0
L 2463 1844
Q 2463 2522 1959 2522
Q 1706 2522 1554 2322
Q 1403 2122 1403 1778
L 1403 0
L 416 0
L 416 3200
L 1403 3200
L 1403 2700
L 1416 2700
Q 1569 2956 1845 3117
Q 2122 3278 2450 3278
Q 3128 3278 3378 2681
Q 3744 3278 4453 3278
Q 5497 3278 5497 1991
L 5497 0
z
" transform="scale(0.015625)"/>
      <path id="SegoeUI-Bold-77" d="M 5050 3200
L 4128 0
L 3091 0
L 2619 1875
Q 2572 2063 2566 2284
L 2547 2284
Q 2525 2041 2484 1888
L 1978 0
L 953 0
L 50 3200
L 1056 3200
L 1497 1113
Q 1528 966 1544 756
L 1563 756
Q 1578 975 1619 1125
L 2169 3200
L 3109 3200
L 3603 1113
Q 3622 1034 3647 750
L 3669 750
Q 3684 931 3719 1113
L 4134 3200
L 5050 3200
z
" transform="scale(0.015625)"/>
     </defs>
     <use xlink:href="#SegoeUI-Bold-4c"/>
     <use xlink:href="#SegoeUI-Bold-75" transform="translate(51.123047 0)"/>
     <use xlink:href="#SegoeUI-Bold-64" transform="translate(111.621094 0)"/>
     <use xlink:href="#SegoeUI-Bold-6f" transform="translate(173.535156 0)"/>
     <use xlink:href="#SegoeUI-Bold-74" transform="translate(234.667969 0)"/>
     <use xlink:href="#SegoeUI-Bold-73" transform="translate(273.583984 0)"/>
     <use xlink:href="#SegoeUI-Bold-20" transform="translate(317.578125 0)"/>
     <use xlink:href="#SegoeUI-Bold-57" transform="translate(345.166016 0)"/>
     <use xlink:href="#SegoeUI-Bold-65" transform="translate(443.029297 0)"/>
     <use xlink:href="#SegoeUI-Bold-62" transform="translate(497.130859 0)"/>
     <use xlink:href="#SegoeUI-Bold-20" transform="translate(559.142578 0)"/>
     <use xlink:href="#SegoeUI-Bold-43" transform="translate(586.730469 0)"/>
     <use xlink:href="#SegoeUI-Bold-6c" transform="translate(649.132812 0)"/>
     <use xlink:href="#SegoeUI-Bold-69" transform="translate(677.550781 0)"/>
     <use xlink:href="#SegoeUI-Bold-65" transform="translate(705.96875 0)"/>
     <use xlink:href="#SegoeUI-Bold-6e" transform="translate(760.070312 0)"/>
     <use xlink:href="#SegoeUI-Bold-74" transform="translate(820.568359 0)"/>
     <use xlink:href="#SegoeUI-Bold-20" transform="translate(859.484375 0)"/>
     <use xlink:href="#SegoeUI-Bold-46" transform="translate(887.072266 0)"/>
     <use xlink:href="#SegoeUI-Bold-72" transform="translate(939.074219 0)"/>
     <use xlink:href="#SegoeUI-Bold-61" transform="translate(978.869141 0)"/>
     <use xlink:href="#SegoeUI-Bold-6d" transform="translate(1032.677734 0)"/>
     <use xlink:href="#SegoeUI-Bold-65" transform="translate(1124.279297 0)"/>
     <use xlink:href="#SegoeUI-Bold-20" transform="translate(1178.380859 0)"/>
     <use xlink:href="#SegoeUI-Bold-46" transform="translate(1205.96875 0)"/>
     <use xlink:href="#SegoeUI-Bold-6c" transform="translate(1257.970703 0)"/>
     <use xlink:href="#SegoeUI-Bold-6f" transform="translate(1286.388672 0)"/>
     <use xlink:href="#SegoeUI-Bold-77" transform="translate(1347.521484 0)"/>
    </g>
   </g>
   <g id="text_2">
    <!-- Connect → Frame → Decode → Render → Input → Send -->
    <g style="fill: #6b6560" transform="translate(288.360859 59.902719) scale(0.11 -0.11)">
     <defs>
      <path id="SegoeUI-43" d="M 3638 188
Q 3141 -75 2400 -75
Q 1444 -75 869 540
Q 294 1156 294 2156
Q 294 3231 941 3893
Q 1588 4556 2581 4556
Q 3219 4556 3638 4372
L 3638 3813
Q 3156 4081 2575 4081
Q 1803 4081 1323 3565
Q 844 3050 844 2188
Q 844 1369 1292 883
Q 1741 397 2469 397
Q 3144 397 3638 697
L 3638 188
z
" transform="scale(0.015625)"/>
      <path id="SegoeUI-6f" d="M 1856 -75
Q 1147 -75 723 373
Q 300 822 300 1563
Q 300 2369 740 2822
Q 1181 3275 1931 3275
Q 2647 3275 3048 2834
Q 3450 2394 3450 1613
Q 3450 847 3017 386
Q 2584 -75 1856 -75
z
M 1894 2844
Q 1400 2844 1112 2508
Q 825 2172 825 1581
Q 825 1013 1115 684
Q 1406 356 1894 356
Q 2391 356 2658 678
Q 2925 1000 2925 1594
Q 2925 2194 2658 2519
Q 2391 2844 1894 2844
z
" transform="scale(0.015625)"/>
      <path id="SegoeUI-6e" d="M 3175 0
L 2663 0
L 2663 1825
Q 2663 2844 1919 2844
Q 1534 2844 1282 2555
Q 1031 2266 1031 1825
L 1031 0
L 519 0
L 519 3200
L 1031 3200
L 1031 2669
L 1044 2669
Q 1406 3275 2094 3275
Q 2619 3275 2897 2936
Q 3175 2597 3175 1956
L 3175 0
z
" transform="scale(0.015625)"/>
      <path id="SegoeUI-65" d="M 3091 1472
L 831 1472
Q 844 938 1119 647
Q 1394 356 1875 356
Q 2416 356 2869 713
L 2869 231
Q 2447 -75 1753 -75
Q 1075 -75 687 361
Q 300 797 300 1588
Q 300 2334 723 2804
Q 1147 3275 1775 3275
Q 2403 3275 2747 2869
Q 3091 2463 3091 1741
L 3091 1472
z
M 2566 1906
Q 2563 2350 2352 2597
Q 2141 2844 1766 2844
Q 1403 2844 1150 2584
Q 897 2325 838 1906
L 2566 1906
z
" transform="scale(0.015625)"/>
      <path id="SegoeUI-63" d="M 2700 147
Q 2331 -75 1825 -75
Q 1141 -75 720 370
Q 300 816 300 1525
Q 300 2316 753 2795
Q 1206 3275 1963 3275
Q 2384 3275 2706 3119
L 2706 2594
Q 2350 2844 1944 2844
Q 1453 2844 1139 2492
Q 825 2141 825 1569
Q 825 1006 1120 681
Q 1416 356 1913 356
Q 2331 356 2700 634
L 2700 147
z
" transform="scale(0.015625)"/>
      <path id="SegoeUI-74" d="M 2003 31
Q 1822 -69 1525 -69
Q 684 -69 684 869
L 684 2763
L 134 2763
L 134 3200
L 684 3200
L 684 3981
L 1197 4147
L 1197 3200
L 2003 3200
L 2003 2763
L 1197 2763
L 1197 959
Q 1197 638 1306 500
Q 1416 363 1669 363
Q 1863 363 2003 469
L 2003 31
z
" transform="scale(0.015625)"/>
      <path id="SegoeUI-20" transform="scale(0.015625)"/>
      <path id="SegoeUI-2192" d="M 722 2075
L 4441 2075
L 4056 2450
L 4056 2913
L 5056 1875
L 5056 1863
L 4056 825
L 4056 1288
L 4434 1656
L 722 1656
L 722 2075
z
" transform="scale(0.015625)"/>
      <path id="SegoeUI-46" d="M 2863 4006
L 1113 4006
L 1113 2456
L 2731 2456
L 2731 1984
L 1113 1984
L 1113 0
L 588 0
L 588 4481
L 2863 4481
L 2863 4006
z
" transform="scale(0.015625)"/>
      <path id="SegoeUI-72" d="M 2188 2681
Q 2053 2784 1800 2784
Q 1472 2784 1251 2475
Q 1031 2166 1031 1631
L 1031 0
L 519 0
L 519 3200
L 1031 3200
L 1031 2541
L 1044 2541
Q 1153 2878 1378 3067
Q 1603 3256 1881 3256
Q 2081 3256 2188 3213
L 2188 2681
z
" transform="scale(0.015625)"/>
      <path id="SegoeUI-61" d="M 2809 0
L 2297 0
L 2297 500
L 2284 500
Q 1950 -75 1300 -75
Q 822 -75 551 178
Q 281 431 281 850
Q 281 1747 1338 1894
L 2297 2028
Q 2297 2844 1638 2844
Q 1059 2844 594 2450
L 594 2975
Q 1066 3275 1681 3275
Q 2809 3275 2809 2081
L 2809 0
z
M 2297 1619
L 1525 1513
Q 1169 1463 987 1336
Q 806 1209 806 888
Q 806 653 973 504
Q 1141 356 1419 356
Q 1800 356 2048 623
Q 2297 891 2297 1300
L 2297 1619
z
" transform="scale(0.015625)"/>
      <path id="SegoeUI-6d" d="M 5063 0
L 4550 0
L 4550 1838
Q 4550 2369 4386 2606
Q 4222 2844 3834 2844
Q 3506 2844 3276 2544
Q 3047 2244 3047 1825
L 3047 0
L 2534 0
L 2534 1900
Q 2534 2844 1806 2844
Q 1469 2844 1250 2561
Q 1031 2278 1031 1825
L 1031 0
L 519 0
L 519 3200
L 1031 3200
L 1031 2694
L 1044 2694
Q 1384 3275 2038 3275
Q 2366 3275 2609 3092
Q 2853 2909 2944 2613
Q 3300 3275 4006 3275
Q 5063 3275 5063 1972
L 5063 0
z
" transform="scale(0.015625)"/>
      <path id="SegoeUI-44" d="M 588 0
L 588 4481
L 1825 4481
Q 4194 4481 4194 2297
Q 4194 1259 3536 629
Q 2878 0 1775 0
L 588 0
z
M 1113 4006
L 1113 475
L 1781 475
Q 2663 475 3153 947
Q 3644 1419 3644 2284
Q 3644 4006 1813 4006
L 1113 4006
z
" transform="scale(0.015625)"/>
      <path id="SegoeUI-64" d="M 3250 0
L 2738 0
L 2738 544
L 2725 544
Q 2369 -75 1625 -75
Q 1022 -75 661 354
Q 300 784 300 1525
Q 300 2319 700 2797
Q 1100 3275 1766 3275
Q 2425 3275 2725 2756
L 2738 2756
L 2738 4738
L 3250 4738
L 3250 0
z
M 2738 1447
L 2738 1919
Q 2738 2306 2481 2575
Q 2225 2844 1831 2844
Q 1363 2844 1094 2500
Q 825 2156 825 1550
Q 825 997 1083 676
Q 1341 356 1775 356
Q 2203 356 2470 665
Q 2738 975 2738 1447
z
" transform="scale(0.015625)"/>
      <path id="SegoeUI-52" d="M 3800 0
L 3175 0
L 2425 1256
Q 2322 1431 2225 1554
Q 2128 1678 2026 1756
Q 1925 1834 1808 1870
Q 1691 1906 1544 1906
L 1113 1906
L 1113 0
L 588 0
L 588 4481
L 1925 4481
Q 2219 4481 2467 4407
Q 2716 4334 2898 4184
Q 3081 4034 3184 3811
Q 3288 3588 3288 3288
Q 3288 3053 3217 2858
Q 3147 2663 3017 2509
Q 2888 2356 2705 2248
Q 2522 2141 2294 2081
L 2294 2069
Q 2406 2019 2489 1955
Q 2572 1891 2647 1803
Q 2722 1716 2795 1605
Q 2869 1494 2959 1347
L 3800 0
z
M 1113 4006
L 1113 2381
L 1825 2381
Q 2022 2381 2189 2440
Q 2356 2500 2478 2611
Q 2600 2722 2669 2883
Q 2738 3044 2738 3244
Q 2738 3603 2505 3804
Q 2272 4006 1831 4006
L 1113 4006
z
" transform="scale(0.015625)"/>
      <path id="SegoeUI-49" d="M 1113 0
L 588 0
L 588 4481
L 1113 4481
L 1113 0
z
" transform="scale(0.015625)"/>
      <path id="SegoeUI-70" d="M 1044 463
L 1031 463
L 1031 -1472
L 519 -1472
L 519 3200
L 1031 3200
L 1031 2638
L 1044 2638
Q 1422 3275 2150 3275
Q 2769 3275 3116 2845
Q 3463 2416 3463 1694
Q 3463 891 3072 408
Q 2681 -75 2003 -75
Q 1381 -75 1044 463
z
M 1031 1753
L 1031 1306
Q 1031 909 1289 632
Q 1547 356 1944 356
Q 2409 356 2673 712
Q 2938 1069 2938 1703
Q 2938 2238 2691 2541
Q 2444 2844 2022 2844
Q 1575 2844 1303 2533
Q 1031 2222 1031 1753
z
" transform="scale(0.015625)"/>
      <path id="SegoeUI-75" d="M 3106 0
L 2594 0
L 2594 506
L 2581 506
Q 2263 -75 1594 -75
Q 450 -75 450 1288
L 450 3200
L 959 3200
L 959 1369
Q 959 356 1734 356
Q 2109 356 2351 632
Q 2594 909 2594 1356
L 2594 3200
L 3106 3200
L 3106 0
z
" transform="scale(0.015625)"/>
      <path id="SegoeUI-53" d="M 378 181
L 378 800
Q 484 706 632 631
Q 781 556 945 504
Q 1109 453 1275 425
Q 1441 397 1581 397
Q 2066 397 2305 576
Q 2544 756 2544 1094
Q 2544 1275 2464 1409
Q 2384 1544 2243 1655
Q 2103 1766 1911 1867
Q 1719 1969 1497 2081
Q 1263 2200 1059 2322
Q 856 2444 706 2591
Q 556 2738 470 2923
Q 384 3109 384 3359
Q 384 3666 518 3892
Q 653 4119 872 4266
Q 1091 4413 1370 4484
Q 1650 4556 1941 4556
Q 2603 4556 2906 4397
L 2906 3806
Q 2509 4081 1888 4081
Q 1716 4081 1544 4045
Q 1372 4009 1237 3928
Q 1103 3847 1018 3719
Q 934 3591 934 3406
Q 934 3234 998 3109
Q 1063 2984 1188 2881
Q 1313 2778 1492 2681
Q 1672 2584 1906 2469
Q 2147 2350 2362 2219
Q 2578 2088 2740 1928
Q 2903 1769 2998 1575
Q 3094 1381 3094 1131
Q 3094 800 2964 570
Q 2834 341 2614 197
Q 2394 53 2106 -11
Q 1819 -75 1500 -75
Q 1394 -75 1237 -58
Q 1081 -41 918 -8
Q 756 25 611 73
Q 466 122 378 181
z
" transform="scale(0.015625)"/>
     </defs>
     <use xlink:href="#SegoeUI-43"/>
     <use xlink:href="#SegoeUI-6f" transform="translate(61.914062 0)"/>
     <use xlink:href="#SegoeUI-6e" transform="translate(120.507812 0)"/>
     <use xlink:href="#SegoeUI-6e" transform="translate(177.099609 0)"/>
     <use xlink:href="#SegoeUI-65" transform="translate(233.691406 0)"/>
     <use xlink:href="#SegoeUI-63" transform="translate(285.986328 0)"/>
     <use xlink:href="#SegoeUI-74" transform="translate(332.177734 0)"/>
     <use xlink:href="#SegoeUI-20" transform="translate(366.064453 0)"/>
     <use xlink:href="#SegoeUI-2192" transform="translate(393.457031 0)"/>
     <use xlink:href="#SegoeUI-20" transform="translate(479.736328 0)"/>
     <use xlink:href="#SegoeUI-46" transform="translate(507.128906 0)"/>
     <use xlink:href="#SegoeUI-72" transform="translate(555.957031 0)"/>
     <use xlink:href="#SegoeUI-61" transform="translate(590.722656 0)"/>
     <use xlink:href="#SegoeUI-6d" transform="translate(641.601562 0)"/>
     <use xlink:href="#SegoeUI-65" transform="translate(727.734375 0)"/>
     <use xlink:href="#SegoeUI-20" transform="translate(780.029297 0)"/>
     <use xlink:href="#SegoeUI-2192" transform="translate(807.421875 0)"/>
     <use xlink:href="#SegoeUI-20" transform="translate(893.701172 0)"/>
     <use xlink:href="#SegoeUI-44" transform="translate(921.09375 0)"/>
     <use xlink:href="#SegoeUI-65" transform="translate(991.210938 0)"/>
     <use xlink:href="#SegoeUI-63" transform="translate(1043.505859 0)"/>
     <use xlink:href="#SegoeUI-6f" transform="translate(1089.697266 0)"/>
     <use xlink:href="#SegoeUI-64" transform="translate(1148.291016 0)"/>
     <use xlink:href="#SegoeUI-65" transform="translate(1207.177734 0)"/>
     <use xlink:href="#SegoeUI-20" transform="translate(1259.472656 0)"/>
     <use xlink:href="#SegoeUI-2192" transform="translate(1286.865234 0)"/>
     <use xlink:href="#SegoeUI-20" transform="translate(1373.144531 0)"/>
     <use xlink:href="#SegoeUI-52" transform="translate(1400.537109 0)"/>
     <use xlink:href="#SegoeUI-65" transform="translate(1457.601562 0)"/>
     <use xlink:href="#SegoeUI-6e" transform="translate(1509.896484 0)"/>
     <use xlink:href="#SegoeUI-64" transform="translate(1566.488281 0)"/>
     <use xlink:href="#SegoeUI-65" transform="translate(1625.375 0)"/>
     <use xlink:href="#SegoeUI-72" transform="translate(1677.669922 0)"/>
     <use xlink:href="#SegoeUI-20" transform="translate(1712.435547 0)"/>
     <use xlink:href="#SegoeUI-2192" transform="translate(1739.828125 0)"/>
     <use xlink:href="#SegoeUI-20" transform="translate(1826.107422 0)"/>
     <use xlink:href="#SegoeUI-49" transform="translate(1853.5 0)"/>
     <use xlink:href="#SegoeUI-6e" transform="translate(1880.111328 0)"/>
     <use xlink:href="#SegoeUI-70" transform="translate(1936.703125 0)"/>
     <use xlink:href="#SegoeUI-75" transform="translate(1995.492188 0)"/>
     <use xlink:href="#SegoeUI-74" transform="translate(2052.083984 0)"/>
     <use xlink:href="#SegoeUI-20" transform="translate(2085.970703 0)"/>
     <use xlink:href="#SegoeUI-2192" transform="translate(2113.363281 0)"/>
     <use xlink:href="#SegoeUI-20" transform="translate(2199.642578 0)"/>
     <use xlink:href="#SegoeUI-53" transform="translate(2227.035156 0)"/>
     <use xlink:href="#SegoeUI-65" transform="translate(2280.160156 0)"/>
     <use xlink:href="#SegoeUI-6e" transform="translate(2332.455078 0)"/>
     <use xlink:href="#SegoeUI-64" transform="translate(2389.046875 0)"/>
    </g>
   </g>
   <g id="text_3">
    <!-- Connect -->
    <g style="fill: #2d2a26" transform="translate(77.166984 217.396406) scale(0.09 -0.09)">
     <defs>
      <path id="SegoeUI-Bold-63" d="M 2841 116
Q 2506 -78 1875 -78
Q 1138 -78 681 369
Q 225 816 225 1522
Q 225 2338 714 2808
Q 1203 3278 2022 3278
Q 2588 3278 2841 3128
L 2841 2291
Q 2531 2522 2150 2522
Q 1725 2522 1476 2273
Q 1228 2025 1228 1588
Q 1228 1163 1465 920
Q 1703 678 2119 678
Q 2488 678 2841 909
L 2841 116
z
" transform="scale(0.015625)"/>
     </defs>
     <use xlink:href="#SegoeUI-Bold-43"/>
     <use xlink:href="#SegoeUI-Bold-6f" transform="translate(62.402344 0)"/>
     <use xlink:href="#SegoeUI-Bold-6e" transform="translate(123.535156 0)"/>
     <use xlink:href="#SegoeUI-Bold-6e" transform="translate(184.033203 0)"/>
     <use xlink:href="#SegoeUI-Bold-65" transform="translate(244.53125 0)"/>
     <use xlink:href="#SegoeUI-Bold-63" transform="translate(298.632812 0)"/>
     <use xlink:href="#SegoeUI-Bold-74" transform="translate(346.630859 0)"/>
    </g>
   </g>
   <g id="text_4">
    <!-- Receive -->
    <g style="fill: #2d2a26" transform="translate(190.820953 217.396406) scale(0.09 -0.09)">
     <defs>
      <path id="SegoeUI-Bold-52" d="M 4272 0
L 3113 0
L 2416 1153
Q 2338 1284 2266 1387
Q 2194 1491 2120 1564
Q 2047 1638 1967 1677
Q 1888 1716 1794 1716
L 1522 1716
L 1522 0
L 513 0
L 513 4481
L 2113 4481
Q 3744 4481 3744 3263
Q 3744 3028 3672 2829
Q 3600 2631 3469 2472
Q 3338 2313 3152 2197
Q 2966 2081 2738 2016
L 2738 2003
Q 2838 1972 2931 1901
Q 3025 1831 3112 1737
Q 3200 1644 3279 1536
Q 3359 1428 3425 1325
L 4272 0
z
M 1522 3725
L 1522 2478
L 1959 2478
Q 2284 2478 2481 2666
Q 2681 2856 2681 3138
Q 2681 3725 1978 3725
L 1522 3725
z
" transform="scale(0.015625)"/>
      <path id="SegoeUI-Bold-76" d="M 3463 3200
L 2272 0
L 1147 0
L 13 3200
L 1069 3200
L 1625 1228
Q 1719 894 1734 659
L 1747 659
Q 1769 881 1863 1209
L 2431 3200
L 3463 3200
z
" transform="scale(0.015625)"/>
     </defs>
     <use xlink:href="#SegoeUI-Bold-52"/>
     <use xlink:href="#SegoeUI-Bold-65" transform="translate(62.783203 0)"/>
     <use xlink:href="#SegoeUI-Bold-63" transform="translate(116.884766 0)"/>
     <use xlink:href="#SegoeUI-Bold-65" transform="translate(164.882812 0)"/>
     <use xlink:href="#SegoeUI-Bold-69" transform="translate(218.984375 0)"/>
     <use xlink:href="#SegoeUI-Bold-76" transform="translate(247.402344 0)"/>
     <use xlink:href="#SegoeUI-Bold-65" transform="translate(300.601562 0)"/>
    </g>
   </g>
   <g id="text_5">
    <!-- Decode -->
    <g style="fill: #2d2a26" transform="translate(303.164297 217.396406) scale(0.09 -0.09)">
     <defs>
      <path id="SegoeUI-Bold-44" d="M 513 0
L 513 4481
L 2100 4481
Q 4488 4481 4488 2297
Q 4488 1250 3836 625
Q 3184 0 2100 0
L 513 0
z
M 1522 3659
L 1522 819
L 2022 819
Q 2678 819 3051 1212
Q 3425 1606 3425 2284
Q 3425 2925 3054 3292
Q 2684 3659 2016 3659
L 1522 3659
z
" transform="scale(0.015625)"/>
     </defs>
     <use xlink:href="#SegoeUI-Bold-44"/>
     <use xlink:href="#SegoeUI-Bold-65" transform="translate(73.730469 0)"/>
     <use xlink:href="#SegoeUI-Bold-63" transform="translate(127.832031 0)"/>
     <use xlink:href="#SegoeUI-Bold-6f" transform="translate(175.830078 0)"/>
     <use xlink:href="#SegoeUI-Bold-64" transform="translate(236.962891 0)"/>
     <use xlink:href="#SegoeUI-Bold-65" transform="translate(298.876953 0)"/>
    </g>
   </g>
   <g id="text_6">
    <!-- ECS Sync -->
    <g style="fill: #2d2a26" transform="translate(412.633969 217.352813) scale(0.09 -0.09)">
     <defs>
      <path id="SegoeUI-Bold-45" d="M 3200 0
L 513 0
L 513 4481
L 3097 4481
L 3097 3659
L 1522 3659
L 1522 2663
L 2988 2663
L 2988 1844
L 1522 1844
L 1522 819
L 3200 819
L 3200 0
z
" transform="scale(0.015625)"/>
      <path id="SegoeUI-Bold-53" d="M 306 172
L 306 1172
Q 578 944 897 830
Q 1216 716 1541 716
Q 1731 716 1873 750
Q 2016 784 2111 845
Q 2206 906 2253 989
Q 2300 1072 2300 1169
Q 2300 1300 2225 1403
Q 2150 1506 2020 1593
Q 1891 1681 1712 1762
Q 1534 1844 1328 1928
Q 803 2147 545 2462
Q 288 2778 288 3225
Q 288 3575 428 3826
Q 569 4078 811 4240
Q 1053 4403 1372 4479
Q 1691 4556 2047 4556
Q 2397 4556 2667 4514
Q 2938 4472 3166 4384
L 3166 3450
Q 3053 3528 2920 3587
Q 2788 3647 2647 3686
Q 2506 3725 2367 3744
Q 2228 3763 2103 3763
Q 1931 3763 1790 3730
Q 1650 3697 1553 3637
Q 1456 3578 1403 3495
Q 1350 3413 1350 3309
Q 1350 3197 1409 3108
Q 1469 3019 1578 2939
Q 1688 2859 1844 2782
Q 2000 2706 2197 2625
Q 2466 2513 2680 2386
Q 2894 2259 3047 2100
Q 3200 1941 3281 1736
Q 3363 1531 3363 1259
Q 3363 884 3220 629
Q 3078 375 2834 217
Q 2591 59 2267 -9
Q 1944 -78 1584 -78
Q 1216 -78 883 -15
Q 550 47 306 172
z
" transform="scale(0.015625)"/>
      <path id="SegoeUI-Bold-79" d="M 3463 3200
L 2163 -256
Q 1694 -1503 750 -1503
Q 391 -1503 159 -1422
L 159 -634
Q 356 -750 588 -750
Q 969 -750 1119 -391
L 1288 6
L -13 3200
L 1081 3200
L 1678 1253
Q 1734 1072 1766 825
L 1778 825
Q 1806 1006 1881 1247
L 2484 3200
L 3463 3200
z
" transform="scale(0.015625)"/>
     </defs>
     <use xlink:href="#SegoeUI-Bold-45"/>
     <use xlink:href="#SegoeUI-Bold-43" transform="translate(53.222656 0)"/>
     <use xlink:href="#SegoeUI-Bold-53" transform="translate(115.625 0)"/>
     <use xlink:href="#SegoeUI-Bold-20" transform="translate(171.679688 0)"/>
     <use xlink:href="#SegoeUI-Bold-53" transform="translate(199.267578 0)"/>
     <use xlink:href="#SegoeUI-Bold-79" transform="translate(252.822266 0)"/>
     <use xlink:href="#SegoeUI-Bold-6e" transform="translate(306.630859 0)"/>
     <use xlink:href="#SegoeUI-Bold-63" transform="translate(367.128906 0)"/>
    </g>
   </g>
   <g id="text_7">
    <!-- Render -->
    <g style="fill: #2d2a26" transform="translate(528.587156 217.396406) scale(0.09 -0.09)">
     <use xlink:href="#SegoeUI-Bold-52"/>
     <use xlink:href="#SegoeUI-Bold-65" transform="translate(62.783203 0)"/>
     <use xlink:href="#SegoeUI-Bold-6e" transform="translate(116.884766 0)"/>
     <use xlink:href="#SegoeUI-Bold-64" transform="translate(177.382812 0)"/>
     <use xlink:href="#SegoeUI-Bold-65" transform="translate(239.296875 0)"/>
     <use xlink:href="#SegoeUI-Bold-72" transform="translate(293.398438 0)"/>
    </g>
   </g>
   <g id="text_8">
    <!-- Input -->
    <g style="fill: #2d2a26" transform="translate(644.434875 217.396406) scale(0.09 -0.09)">
     <defs>
      <path id="SegoeUI-Bold-49" d="M 1522 0
L 513 0
L 513 4481
L 1522 4481
L 1522 0
z
" transform="scale(0.015625)"/>
      <path id="SegoeUI-Bold-70" d="M 1416 372
L 1403 372
L 1403 -1472
L 416 -1472
L 416 3200
L 1403 3200
L 1403 2719
L 1416 2719
Q 1781 3278 2444 3278
Q 3066 3278 3405 2851
Q 3744 2425 3744 1691
Q 3744 891 3348 406
Q 2953 -78 2297 -78
Q 1719 -78 1416 372
z
M 1388 1684
L 1388 1428
Q 1388 1097 1563 887
Q 1738 678 2022 678
Q 2359 678 2545 939
Q 2731 1200 2731 1678
Q 2731 2522 2075 2522
Q 1772 2522 1580 2292
Q 1388 2063 1388 1684
z
" transform="scale(0.015625)"/>
     </defs>
     <use xlink:href="#SegoeUI-Bold-49"/>
     <use xlink:href="#SegoeUI-Bold-6e" transform="translate(31.689453 0)"/>
     <use xlink:href="#SegoeUI-Bold-70" transform="translate(92.1875 0)"/>
     <use xlink:href="#SegoeUI-Bold-75" transform="translate(154.199219 0)"/>
     <use xlink:href="#SegoeUI-Bold-74" transform="translate(214.697266 0)"/>
    </g>
   </g>
   <g id="text_9">
    <!-- Send -->
    <g style="fill: #2d2a26" transform="translate(757.647281 217.396406) scale(0.09 -0.09)">
     <use xlink:href="#SegoeUI-Bold-53"/>
     <use xlink:href="#SegoeUI-Bold-65" transform="translate(56.054688 0)"/>
     <use xlink:href="#SegoeUI-Bold-6e" transform="translate(110.15625 0)"/>
     <use xlink:href="#SegoeUI-Bold-64" transform="translate(170.654297 0)"/>
    </g>
   </g>
   <g id="text_10">
    <!-- Next Frame (loop) -->
    <g style="fill: #6b6560" transform="translate(383.242969 109.543563) scale(0.1 -0.1)">
     <defs>
      <path id="SegoeUI-4e" d="M 4200 0
L 3556 0
L 1250 3572
Q 1163 3706 1106 3853
L 1088 3853
Q 1113 3709 1113 3238
L 1113 0
L 588 0
L 588 4481
L 1269 4481
L 3513 966
Q 3653 747 3694 666
L 3706 666
Q 3675 859 3675 1325
L 3675 4481
L 4200 4481
L 4200 0
z
" transform="scale(0.015625)"/>
      <path id="SegoeUI-78" d="M 2856 3200
L 1781 1581
L 2838 0
L 2241 0
L 1613 1038
Q 1553 1134 1472 1281
L 1459 1281
Q 1444 1253 1313 1038
L 672 0
L 81 0
L 1172 1569
L 128 3200
L 725 3200
L 1344 2106
Q 1413 1984 1478 1856
L 1491 1856
L 2291 3200
L 2856 3200
z
" transform="scale(0.015625)"/>
      <path id="SegoeUI-28" d="M 1863 -1019
L 1406 -1019
Q 438 88 438 1709
Q 438 3338 1406 4481
L 1869 4481
Q 888 3294 888 1716
Q 888 150 1863 -1019
z
" transform="scale(0.015625)"/>
      <path id="SegoeUI-6c" d="M 1031 0
L 519 0
L 519 4738
L 1031 4738
L 1031 0
z
" transform="scale(0.015625)"/>
      <path id="SegoeUI-29" d="M 531 -1019
L 75 -1019
Q 1050 150 1050 1716
Q 1050 3294 69 4481
L 531 4481
Q 1506 3338 1506 1709
Q 1506 88 531 -1019
z
" transform="scale(0.015625)"/>
     </defs>
     <use xlink:href="#SegoeUI-4e"/>
     <use xlink:href="#SegoeUI-65" transform="translate(74.804688 0)"/>
     <use xlink:href="#SegoeUI-78" transform="translate(127.099609 0)"/>
     <use xlink:href="#SegoeUI-74" transform="translate(172.998047 0)"/>
     <use xlink:href="#SegoeUI-20" transform="translate(206.884766 0)"/>
     <use xlink:href="#SegoeUI-46" transform="translate(234.277344 0)"/>
     <use xlink:href="#SegoeUI-72" transform="translate(283.105469 0)"/>
     <use xlink:href="#SegoeUI-61" transform="translate(317.871094 0)"/>
     <use xlink:href="#SegoeUI-6d" transform="translate(368.75 0)"/>
     <use xlink:href="#SegoeUI-65" transform="translate(454.882812 0)"/>
     <use xlink:href="#SegoeUI-20" transform="translate(507.177734 0)"/>
     <use xlink:href="#SegoeUI-28" transform="translate(534.570312 0)"/>
     <use xlink:href="#SegoeUI-6c" transform="translate(564.746094 0)"/>
     <use xlink:href="#SegoeUI-6f" transform="translate(588.964844 0)"/>
     <use xlink:href="#SegoeUI-6f" transform="translate(647.558594 0)"/>
     <use xlink:href="#SegoeUI-70" transform="translate(706.152344 0)"/>
     <use xlink:href="#SegoeUI-29" transform="translate(764.941406 0)"/>
    </g>
   </g>
   <g id="patch_38">
    <path d="M 32.148 418.842
L 82.044 418.842
Q 94.518 418.842 94.518 406.368
L 94.518 389.736
Q 94.518 377.262 82.044 377.262
L 32.148 377.262
Q 19.674 377.262 19.674 389.736
L 19.674 406.368
Q 19.674 418.842 32.148 418.842
L 32.148 418.842
z
" clip-path="url(#p7fb5f970dc)" style="fill: none; stroke: #6b8e8e; stroke-width: 2.5; stroke-linejoin: miter"/>
   </g>
   <g id="patch_39">
    <path d="M 90.36 460.422
L 140.256 460.422
Q 152.73 460.422 152.73 447.948
L 152.73 431.316
Q 152.73 418.842 140.256 418.842
L 90.36 418.842
Q 77.886 418.842 77.886 431.316
L 77.886 447.948
Q 77.886 460.422 90.36 460.422
L 90.36 460.422
z
" clip-path="url(#p7fb5f970dc)" style="fill: none; stroke: #6b8e8e; stroke-width: 2.5; stroke-linejoin: miter"/>
   </g>
   <g id="patch_40">
    <path d="M 144.414 418.842
L 194.31 418.842
Q 206.784 418.842 206.784 406.368
L 206.784 389.736
Q 206.784 377.262 194.31 377.262
L 144.414 377.262
Q 131.94 377.262 131.94 389.736
L 131.94 406.368
Q 131.94 418.842 144.414 418.842
L 144.414 418.842
z
" clip-path="url(#p7fb5f970dc)" style="fill: none; stroke: #6b8e8e; stroke-width: 2.5; stroke-linejoin: miter"/>
   </g>
   <g id="patch_41">
    <path d="M 202.626 460.422
L 252.522 460.422
Q 264.996 460.422 264.996 447.948
L 264.996 431.316
Q 264.996 418.842 252.522 418.842
L 202.626 418.842
Q 190.152 418.842 190.152 431.316
L 190.152 447.948
Q 190.152 460.422 202.626 460.422
L 202.626 460.422
z
" clip-path="url(#p7fb5f970dc)" style="fill: none; stroke: #6b8e8e; stroke-width: 2.5; stroke-linejoin: miter"/>
   </g>
   <g id="patch_42">
    <path d="M 256.68 418.842
L 306.576 418.842
Q 319.05 418.842 319.05 406.368
L 319.05 389.736
Q 319.05 377.262 306.576 377.262
L 256.68 377.262
Q 244.206 377.262 244.206 389.736
L 244.206 406.368
Q 244.206 418.842 256.68 418.842
L 256.68 418.842
z
" clip-path="url(#p7fb5f970dc)" style="fill: none; stroke: #c45c3e; stroke-width: 2.5; stroke-linejoin: miter"/>
   </g>
   <g id="patch_43">
    <path d="M 314.892 460.422
L 364.788 460.422
Q 377.262 460.422 377.262 447.948
L 377.262 431.316
Q 377.262 418.842 364.788 418.842
L 314.892 418.842
Q 302.418 418.842 302.418 431.316
L 302.418 447.948
Q 302.418 460.422 314.892 460.422
L 314.892 460.422
z
" clip-path="url(#p7fb5f970dc)" style="fill: none; stroke: #c45c3e; stroke-width: 2.5; stroke-linejoin: miter"/>
   </g>
   <g id="patch_44">
    <path d="M 368.946 418.842
L 418.842 418.842
Q 431.316 418.842 431.316 406.368
L 431.316 389.736
Q 431.316 377.262 418.842 377.262
L 368.946 377.262
Q 356.472 377.262 356.472 389.736
L 356.472 406.368
Q 356.472 418.842 368.946 418.842
L 368.946 418.842
z
" clip-path="url(#p7fb5f970dc)" style="fill: none; stroke: #c45c3e; stroke-width: 2.5; stroke-linejoin: miter"/>
   </g>
   <g id="patch_45">
    <path d="M 427.158 460.422
L 477.054 460.422
Q 489.528 460.422 489.528 447.948
L 489.528 431.316
Q 489.528 418.842 477.054 418.842
L 427.158 418.842
Q 414.684 418.842 414.684 431.316
L 414.684 447.948
Q 414.684 460.422 427.158 460.422
L 427.158 460.422
z
" clip-path="url(#p7fb5f970dc)" style="fill: none; stroke: #c45c3e; stroke-width: 2.5; stroke-linejoin: miter"/>
   </g>
   <g id="patch_46">
    <path d="M 481.212 418.842
L 531.108 418.842
Q 543.582 418.842 543.582 406.368
L 543.582 389.736
Q 543.582 377.262 531.108 377.262
L 481.212 377.262
Q 468.738 377.262 468.738 389.736
L 468.738 406.368
Q 468.738 418.842 481.212 418.842
L 481.212 418.842
z
" clip-path="url(#p7fb5f970dc)" style="fill: none; stroke: #8e6b5c; stroke-width: 2.5; stroke-linejoin: miter"/>
   </g>
   <g id="patch_47">
    <path d="M 539.424 460.422
L 589.32 460.422
Q 601.794 460.422 601.794 447.948
L 601.794 431.316
Q 601.794 418.842 589.32 418.842
L 539.424 418.842
Q 526.95 418.842 526.95 431.316
L 526.95 447.948
Q 526.95 460.422 539.424 460.422
L 539.424 460.422
z
" clip-path="url(#p7fb5f970dc)" style="fill: none; stroke: #8e6b5c; stroke-width: 2.5; stroke-linejoin: miter"/>
   </g>
   <g id="patch_48">
    <path d="M 593.478 418.842
L 643.374 418.842
Q 655.848 418.842 655.848 406.368
L 655.848 389.736
Q 655.848 377.262 643.374 377.262
L 593.478 377.262
Q 581.004 377.262 581.004 389.736
L 581.004 406.368
Q 581.004 418.842 593.478 418.842
L 593.478 418.842
z
" clip-path="url(#p7fb5f970dc)" style="fill: none; stroke: #7a6b8e; stroke-width: 2.5; stroke-linejoin: miter"/>
   </g>
   <g id="patch_49">
    <path d="M 651.69 460.422
L 701.586 460.422
Q 714.06 460.422 714.06 447.948
L 714.06 431.316
Q 714.06 418.842 701.586 418.842
L 651.69 418.842
Q 639.216 418.842 639.216 431.316
L 639.216 447.948
Q 639.216 460.422 651.69 460.422
L 651.69 460.422
z
" clip-path="url(#p7fb5f970dc)" style="fill: none; stroke: #7a6b8e; stroke-width: 2.5; stroke-linejoin: miter"/>
   </g>
   <g id="patch_50">
    <path d="M 709.902 502.002
L 759.798 502.002
Q 772.272 502.002 772.272 489.528
L 772.272 472.896
Q 772.272 460.422 759.798 460.422
L 709.902 460.422
Q 697.428 460.422 697.428 472.896
L 697.428 489.528
Q 697.428 502.002 709.902 502.002
L 709.902 502.002
z
" clip-path="url(#p7fb5f970dc)" style="fill: none; stroke: #7a6b8e; stroke-width: 2.5; stroke-linejoin: miter"/>
   </g>
   <g id="patch_51">
    <path d="M 705.744 418.842
L 755.64 418.842
Q 768.114 418.842 768.114 406.368
L 768.114 389.736
Q 768.114 377.262 755.64 377.262
L 705.744 377.262
Q 693.27 377.262 693.27 389.736
L 693.27 406.368
Q 693.27 418.842 705.744 418.842
L 705.744 418.842
z
" clip-path="url(#p7fb5f970dc)" style="fill: none; stroke: #6b8e8e; stroke-width: 2.5; stroke-linejoin: miter"/>
   </g>
   <g id="patch_52">
    <path d="M 763.956 460.422
L 813.852 460.422
Q 826.326 460.422 826.326 447.948
L 826.326 431.316
Q 826.326 418.842 813.852 418.842
L 763.956 418.842
Q 751.482 418.842 751.482 431.316
L 751.482 447.948
Q 751.482 460.422 763.956 460.422
L 763.956 460.422
z
" clip-path="url(#p7fb5f970dc)" style="fill: none; stroke: #6b8e8e; stroke-width: 2.5; stroke-linejoin: miter"/>
   </g>
   <g id="text_11">
    <g id="patch_53">
     <path d="M 48.78 651.8895
L 375.71 651.8895
Q 379.71 651.8895 379.71 647.8895
L 379.71 630.9
Q 379.71 626.9 375.71 626.9
L 48.78 626.9
Q 44.78 626.9 44.78 630.9
L 44.78 647.8895
Q 44.78 651.8895 48.78 651.8895
z
" style="fill: #f2e8e0; opacity: 0.8; stroke: #e0d8d0; stroke-linejoin: miter"/>
    </g>
    <!-- Frame Protocol: [Header(4B) | Entity Delta | Component Mask | Interpolation Key] -->
    <g style="fill: #6b6560" transform="translate(48.78 637.0175) scale(0.08 -0.08)">
     <defs>
      <path id="SegoeUI-50" d="M 1113 1694
L 1113 0
L 588 0
L 588 4481
L 1819 4481
Q 2538 4481 2933 4131
Q 3328 3781 3328 3144
Q 3328 2506 2889 2100
Q 2450 1694 1703 1694
L 1113 1694
z
M 1113 4006
L 1113 2169
L 1663 2169
Q 2206 2169 2492 2417
Q 2778 2666 2778 3119
Q 2778 4006 1728 4006
L 1113 4006
z
" transform="scale(0.015625)"/>
      <path id="SegoeUI-3a" d="M 697 2575
Q 553 2575 451 2678
Q 350 2781 350 2925
Q 350 3069 451 3169
Q 553 3269 697 3269
Q 844 3269 947 3169
Q 1050 3069 1050 2925
Q 1050 2781 947 2678
Q 844 2575 697 2575
z
M 697 -69
Q 553 -69 451 34
Q 350 138 350 281
Q 350 425 451 529
Q 553 634 697 634
Q 844 634 947 529
Q 1050 425 1050 281
Q 1050 138 947 34
Q 844 -69 697 -69
z
" transform="scale(0.015625)"/>
      <path id="SegoeUI-5b" d="M 1775 -1019
L 625 -1019
L 625 4481
L 1775 4481
L 1775 4109
L 1081 4109
L 1081 -647
L 1775 -647
L 1775 -1019
z
" transform="scale(0.015625)"/>
      <path id="SegoeUI-48" d="M 3956 0
L 3431 0
L 3431 2044
L 1113 2044
L 1113 0
L 588 0
L 588 4481
L 1113 4481
L 1113 2516
L 3431 2516
L 3431 4481
L 3956 4481
L 3956 0
z
" transform="scale(0.015625)"/>
      <path id="SegoeUI-34" d="M 2656 4481
L 2656 1522
L 3231 1522
L 3231 1053
L 2656 1053
L 2656 0
L 2150 0
L 2150 1053
L 44 1053
L 44 1497
Q 338 1828 638 2204
Q 938 2581 1211 2968
Q 1484 3356 1717 3742
Q 1950 4128 2109 4481
L 2656 4481
z
M 622 1522
L 2150 1522
L 2150 3716
Q 1916 3306 1706 2984
Q 1497 2663 1308 2400
Q 1119 2138 947 1925
Q 775 1713 622 1522
z
" transform="scale(0.015625)"/>
      <path id="SegoeUI-42" d="M 588 0
L 588 4481
L 1863 4481
Q 2444 4481 2784 4197
Q 3125 3913 3125 3456
Q 3125 3075 2919 2794
Q 2713 2513 2350 2394
L 2350 2381
Q 2803 2328 3075 2039
Q 3347 1750 3347 1288
Q 3347 713 2934 356
Q 2522 0 1894 0
L 588 0
z
M 1113 4006
L 1113 2559
L 1650 2559
Q 2081 2559 2328 2767
Q 2575 2975 2575 3353
Q 2575 4006 1716 4006
L 1113 4006
z
M 1113 2088
L 1113 475
L 1825 475
Q 2288 475 2542 694
Q 2797 913 2797 1294
Q 2797 2088 1716 2088
L 1113 2088
z
" transform="scale(0.015625)"/>
      <path id="SegoeUI-7c" d="M 1000 -1506
L 538 -1506
L 538 4894
L 1000 4894
L 1000 -1506
z
" transform="scale(0.015625)"/>
      <path id="SegoeUI-45" d="M 2963 0
L 588 0
L 588 4481
L 2863 4481
L 2863 4006
L 1113 4006
L 1113 2516
L 2731 2516
L 2731 2044
L 1113 2044
L 1113 475
L 2963 475
L 2963 0
z
" transform="scale(0.015625)"/>
      <path id="SegoeUI-69" d="M 781 4013
Q 644 4013 547 4106
Q 450 4200 450 4344
Q 450 4488 547 4583
Q 644 4678 781 4678
Q 922 4678 1020 4583
Q 1119 4488 1119 4344
Q 1119 4206 1020 4109
Q 922 4013 781 4013
z
M 1031 0
L 519 0
L 519 3200
L 1031 3200
L 1031 0
z
" transform="scale(0.015625)"/>
      <path id="SegoeUI-79" d="M 3066 3200
L 1594 -513
Q 1200 -1506 488 -1506
Q 288 -1506 153 -1466
L 153 -1006
Q 319 -1063 456 -1063
Q 844 -1063 1038 -600
L 1294 6
L 44 3200
L 613 3200
L 1478 738
Q 1494 691 1544 494
L 1563 494
Q 1578 569 1625 731
L 2534 3200
L 3066 3200
z
" transform="scale(0.015625)"/>
      <path id="SegoeUI-4d" d="M 5156 0
L 4634 0
L 4634 3006
Q 4634 3363 4678 3878
L 4666 3878
Q 4591 3575 4531 3444
L 3000 0
L 2744 0
L 1216 3419
Q 1150 3569 1081 3878
L 1069 3878
Q 1094 3609 1094 3000
L 1094 0
L 588 0
L 588 4481
L 1281 4481
L 2656 1356
Q 2816 997 2863 819
L 2881 819
Q 3016 1188 3097 1369
L 4500 4481
L 5156 4481
L 5156 0
z
" transform="scale(0.015625)"/>
      <path id="SegoeUI-73" d="M 325 116
L 325 666
Q 744 356 1247 356
Q 1922 356 1922 806
Q 1922 934 1864 1023
Q 1806 1113 1707 1181
Q 1609 1250 1476 1304
Q 1344 1359 1191 1419
Q 978 1503 817 1589
Q 656 1675 548 1783
Q 441 1891 386 2028
Q 331 2166 331 2350
Q 331 2575 434 2748
Q 538 2922 709 3039
Q 881 3156 1101 3215
Q 1322 3275 1556 3275
Q 1972 3275 2300 3131
L 2300 2613
Q 1947 2844 1488 2844
Q 1344 2844 1228 2811
Q 1113 2778 1030 2718
Q 947 2659 901 2576
Q 856 2494 856 2394
Q 856 2269 901 2184
Q 947 2100 1034 2034
Q 1122 1969 1247 1916
Q 1372 1863 1531 1800
Q 1744 1719 1912 1633
Q 2081 1547 2200 1439
Q 2319 1331 2383 1190
Q 2447 1050 2447 856
Q 2447 619 2342 444
Q 2238 269 2063 153
Q 1888 38 1659 -18
Q 1431 -75 1181 -75
Q 688 -75 325 116
z
" transform="scale(0.015625)"/>
      <path id="SegoeUI-6b" d="M 3175 0
L 2456 0
L 1044 1538
L 1031 1538
L 1031 0
L 519 0
L 519 4738
L 1031 4738
L 1031 1734
L 1044 1734
L 2388 3200
L 3059 3200
L 1575 1656
L 3175 0
z
" transform="scale(0.015625)"/>
      <path id="SegoeUI-4b" d="M 3706 0
L 2975 0
L 1244 2050
Q 1147 2166 1125 2206
L 1113 2206
L 1113 0
L 588 0
L 588 4481
L 1113 4481
L 1113 2375
L 1125 2375
Q 1169 2444 1244 2528
L 2919 4481
L 3572 4481
L 1650 2331
L 3706 0
z
" transform="scale(0.015625)"/>
      <path id="SegoeUI-5d" d="M 1313 -1019
L 166 -1019
L 166 -647
L 856 -647
L 856 4109
L 166 4109
L 166 4481
L 1313 4481
L 1313 -1019
z
" transform="scale(0.015625)"/>
     </defs>
     <use xlink:href="#SegoeUI-46"/>
     <use xlink:href="#SegoeUI-72" transform="translate(48.828125 0)"/>
     <use xlink:href="#SegoeUI-61" transform="translate(83.59375 0)"/>
     <use xlink:href="#SegoeUI-6d" transform="translate(134.472656 0)"/>
     <use xlink:href="#SegoeUI-65" transform="translate(220.605469 0)"/>
     <use xlink:href="#SegoeUI-20" transform="translate(272.900391 0)"/>
     <use xlink:href="#SegoeUI-50" transform="translate(300.292969 0)"/>
     <use xlink:href="#SegoeUI-72" transform="translate(356.298828 0)"/>
     <use xlink:href="#SegoeUI-6f" transform="translate(389.689453 0)"/>
     <use xlink:href="#SegoeUI-74" transform="translate(448.283203 0)"/>
     <use xlink:href="#SegoeUI-6f" transform="translate(481.419922 0)"/>
     <use xlink:href="#SegoeUI-63" transform="translate(540.013672 0)"/>
     <use xlink:href="#SegoeUI-6f" transform="translate(586.205078 0)"/>
     <use xlink:href="#SegoeUI-6c" transform="translate(644.798828 0)"/>
     <use xlink:href="#SegoeUI-3a" transform="translate(669.017578 0)"/>
     <use xlink:href="#SegoeUI-20" transform="translate(690.697266 0)"/>
     <use xlink:href="#SegoeUI-5b" transform="translate(718.089844 0)"/>
     <use xlink:href="#SegoeUI-48" transform="translate(748.265625 0)"/>
     <use xlink:href="#SegoeUI-65" transform="translate(819.261719 0)"/>
     <use xlink:href="#SegoeUI-61" transform="translate(871.556641 0)"/>
     <use xlink:href="#SegoeUI-64" transform="translate(922.435547 0)"/>
     <use xlink:href="#SegoeUI-65" transform="translate(981.322266 0)"/>
     <use xlink:href="#SegoeUI-72" transform="translate(1033.617188 0)"/>
     <use xlink:href="#SegoeUI-28" transform="translate(1068.382812 0)"/>
     <use xlink:href="#SegoeUI-34" transform="translate(1098.558594 0)"/>
     <use xlink:href="#SegoeUI-42" transform="translate(1152.464844 0)"/>
     <use xlink:href="#SegoeUI-29" transform="translate(1209.789062 0)"/>
     <use xlink:href="#SegoeUI-20" transform="translate(1239.964844 0)"/>
     <use xlink:href="#SegoeUI-7c" transform="translate(1267.357422 0)"/>
     <use xlink:href="#SegoeUI-20" transform="translate(1291.283203 0)"/>
     <use xlink:href="#SegoeUI-45" transform="translate(1318.675781 0)"/>
     <use xlink:href="#SegoeUI-6e" transform="translate(1369.261719 0)"/>
     <use xlink:href="#SegoeUI-74" transform="translate(1425.853516 0)"/>
     <use xlink:href="#SegoeUI-69" transform="translate(1459.740234 0)"/>
     <use xlink:href="#SegoeUI-74" transform="translate(1483.958984 0)"/>
     <use xlink:href="#SegoeUI-79" transform="translate(1517.845703 0)"/>
     <use xlink:href="#SegoeUI-20" transform="translate(1566.234375 0)"/>
     <use xlink:href="#SegoeUI-44" transform="translate(1593.626953 0)"/>
     <use xlink:href="#SegoeUI-65" transform="translate(1663.744141 0)"/>
     <use xlink:href="#SegoeUI-6c" transform="translate(1716.039062 0)"/>
     <use xlink:href="#SegoeUI-74" transform="translate(1740.257812 0)"/>
     <use xlink:href="#SegoeUI-61" transform="translate(1774.144531 0)"/>
     <use xlink:href="#SegoeUI-20" transform="translate(1825.023438 0)"/>
     <use xlink:href="#SegoeUI-7c" transform="translate(1852.416016 0)"/>
     <use xlink:href="#SegoeUI-20" transform="translate(1876.341797 0)"/>
     <use xlink:href="#SegoeUI-43" transform="translate(1903.734375 0)"/>
     <use xlink:href="#SegoeUI-6f" transform="translate(1965.648438 0)"/>
     <use xlink:href="#SegoeUI-6d" transform="translate(2024.242188 0)"/>
     <use xlink:href="#SegoeUI-70" transform="translate(2110.375 0)"/>
     <use xlink:href="#SegoeUI-6f" transform="translate(2169.164062 0)"/>
     <use xlink:href="#SegoeUI-6e" transform="translate(2227.757812 0)"/>
     <use xlink:href="#SegoeUI-65" transform="translate(2284.349609 0)"/>
     <use xlink:href="#SegoeUI-6e" transform="translate(2336.644531 0)"/>
     <use xlink:href="#SegoeUI-74" transform="translate(2393.236328 0)"/>
     <use xlink:href="#SegoeUI-20" transform="translate(2427.123047 0)"/>
     <use xlink:href="#SegoeUI-4d" transform="translate(2454.515625 0)"/>
     <use xlink:href="#SegoeUI-61" transform="translate(2544.310547 0)"/>
     <use xlink:href="#SegoeUI-73" transform="translate(2595.189453 0)"/>
     <use xlink:href="#SegoeUI-6b" transform="translate(2637.621094 0)"/>
     <use xlink:href="#SegoeUI-20" transform="translate(2687.328125 0)"/>
     <use xlink:href="#SegoeUI-7c" transform="translate(2714.720703 0)"/>
     <use xlink:href="#SegoeUI-20" transform="translate(2738.646484 0)"/>
     <use xlink:href="#SegoeUI-49" transform="translate(2766.039062 0)"/>
     <use xlink:href="#SegoeUI-6e" transform="translate(2792.650391 0)"/>
     <use xlink:href="#SegoeUI-74" transform="translate(2849.242188 0)"/>
     <use xlink:href="#SegoeUI-65" transform="translate(2882.378906 0)"/>
     <use xlink:href="#SegoeUI-72" transform="translate(2934.673828 0)"/>
     <use xlink:href="#SegoeUI-70" transform="translate(2969.439453 0)"/>
     <use xlink:href="#SegoeUI-6f" transform="translate(3028.228516 0)"/>
     <use xlink:href="#SegoeUI-6c" transform="translate(3086.822266 0)"/>
     <use xlink:href="#SegoeUI-61" transform="translate(3111.041016 0)"/>
     <use xlink:href="#SegoeUI-74" transform="translate(3161.919922 0)"/>
     <use xlink:href="#SegoeUI-69" transform="translate(3195.806641 0)"/>
     <use xlink:href="#SegoeUI-6f" transform="translate(3220.025391 0)"/>
     <use xlink:href="#SegoeUI-6e" transform="translate(3278.619141 0)"/>
     <use xlink:href="#SegoeUI-20" transform="translate(3335.210938 0)"/>
     <use xlink:href="#SegoeUI-4b" transform="translate(3362.603516 0)"/>
     <use xlink:href="#SegoeUI-65" transform="translate(3419.236328 0)"/>
     <use xlink:href="#SegoeUI-79" transform="translate(3471.53125 0)"/>
     <use xlink:href="#SegoeUI-5d" transform="translate(3519.919922 0)"/>
    </g>
    <!-- WebSocket binary mode, 60Hz server tick, client-side prediction disabled in streaming mode. -->
    <g style="fill: #6b6560" transform="translate(48.78 646.007) scale(0.08 -0.08)">
     <defs>
      <path id="SegoeUI-57" d="M 5900 4481
L 4634 0
L 4019 0
L 3097 3275
Q 3038 3484 3025 3731
L 3013 3731
Q 2994 3500 2931 3281
L 2003 0
L 1394 0
L 81 4481
L 659 4481
L 1613 1044
Q 1672 828 1688 594
L 1703 594
Q 1719 759 1800 1044
L 2791 4481
L 3294 4481
L 4244 1019
Q 4294 841 4319 600
L 4331 600
Q 4344 763 4416 1031
L 5331 4481
L 5900 4481
z
" transform="scale(0.015625)"/>
      <path id="SegoeUI-62" d="M 1044 463
L 1031 463
L 1031 0
L 519 0
L 519 4738
L 1031 4738
L 1031 2638
L 1044 2638
Q 1422 3275 2150 3275
Q 2766 3275 3114 2845
Q 3463 2416 3463 1694
Q 3463 891 3072 408
Q 2681 -75 2003 -75
Q 1369 -75 1044 463
z
M 1031 1753
L 1031 1306
Q 1031 909 1289 632
Q 1547 356 1944 356
Q 2409 356 2673 712
Q 2938 1069 2938 1703
Q 2938 2238 2691 2541
Q 2444 2844 2022 2844
Q 1575 2844 1303 2533
Q 1031 2222 1031 1753
z
" transform="scale(0.015625)"/>
      <path id="SegoeUI-2c" d="M 988 713
L 488 -825
L 122 -825
L 488 713
L 988 713
z
" transform="scale(0.015625)"/>
      <path id="SegoeUI-36" d="M 3194 1422
Q 3194 1094 3087 819
Q 2981 544 2793 344
Q 2606 144 2347 33
Q 2088 -78 1784 -78
Q 1447 -78 1180 62
Q 913 203 727 467
Q 541 731 444 1112
Q 347 1494 347 1972
Q 347 2556 476 3032
Q 606 3509 845 3848
Q 1084 4188 1421 4372
Q 1759 4556 2175 4556
Q 2638 4556 2919 4428
L 2919 3944
Q 2572 4122 2188 4122
Q 1888 4122 1647 3987
Q 1406 3853 1234 3608
Q 1063 3363 970 3016
Q 878 2669 878 2244
L 891 2244
Q 1200 2803 1913 2803
Q 2206 2803 2442 2703
Q 2678 2603 2845 2420
Q 3013 2238 3103 1984
Q 3194 1731 3194 1422
z
M 2669 1356
Q 2669 1591 2609 1778
Q 2550 1966 2439 2097
Q 2328 2228 2165 2298
Q 2003 2369 1797 2369
Q 1606 2369 1443 2297
Q 1281 2225 1162 2101
Q 1044 1978 976 1814
Q 909 1650 909 1466
Q 909 1234 975 1032
Q 1041 831 1159 681
Q 1278 531 1442 445
Q 1606 359 1806 359
Q 2000 359 2159 432
Q 2319 506 2431 637
Q 2544 769 2606 951
Q 2669 1134 2669 1356
z
" transform="scale(0.015625)"/>
      <path id="SegoeUI-30" d="M 3188 2259
Q 3188 1697 3086 1262
Q 2984 828 2792 529
Q 2600 231 2320 76
Q 2041 -78 1684 -78
Q 1347 -78 1083 70
Q 819 219 637 503
Q 456 788 362 1202
Q 269 1616 269 2150
Q 269 2738 367 3188
Q 466 3638 656 3942
Q 847 4247 1130 4401
Q 1413 4556 1778 4556
Q 3188 4556 3188 2259
z
M 2663 2209
Q 2663 4122 1753 4122
Q 794 4122 794 2175
Q 794 359 1734 359
Q 2663 359 2663 2209
z
" transform="scale(0.015625)"/>
      <path id="SegoeUI-7a" d="M 2750 3053
L 856 438
L 2731 438
L 2731 0
L 103 0
L 103 159
L 1997 2763
L 281 2763
L 281 3200
L 2750 3200
L 2750 3053
z
" transform="scale(0.015625)"/>
      <path id="SegoeUI-76" d="M 3034 3200
L 1759 0
L 1256 0
L 44 3200
L 606 3200
L 1419 875
Q 1509 619 1531 428
L 1544 428
Q 1575 669 1644 863
L 2494 3200
L 3034 3200
z
" transform="scale(0.015625)"/>
      <path id="SegoeUI-2d" d="M 2156 1581
L 450 1581
L 450 1984
L 2156 1984
L 2156 1581
z
" transform="scale(0.015625)"/>
      <path id="SegoeUI-67" d="M 3250 256
Q 3250 -1506 1563 -1506
Q 969 -1506 525 -1281
L 525 -769
Q 1066 -1069 1556 -1069
Q 2738 -1069 2738 188
L 2738 538
L 2725 538
Q 2359 -75 1625 -75
Q 1028 -75 664 351
Q 300 778 300 1497
Q 300 2313 692 2794
Q 1084 3275 1766 3275
Q 2413 3275 2725 2756
L 2738 2756
L 2738 3200
L 3250 3200
L 3250 256
z
M 2738 1447
L 2738 1919
Q 2738 2300 2480 2572
Q 2222 2844 1838 2844
Q 1363 2844 1094 2498
Q 825 2153 825 1531
Q 825 997 1083 676
Q 1341 356 1766 356
Q 2197 356 2467 662
Q 2738 969 2738 1447
z
" transform="scale(0.015625)"/>
      <path id="SegoeUI-2e" d="M 697 -69
Q 553 -69 451 34
Q 350 138 350 281
Q 350 425 451 529
Q 553 634 697 634
Q 844 634 947 529
Q 1050 425 1050 281
Q 1050 138 947 34
Q 844 -69 697 -69
z
" transform="scale(0.015625)"/>
     </defs>
     <use xlink:href="#SegoeUI-57"/>
     <use xlink:href="#SegoeUI-65" transform="translate(91.033203 0)"/>
     <use xlink:href="#SegoeUI-62" transform="translate(143.328125 0)"/>
     <use xlink:href="#SegoeUI-53" transform="translate(202.117188 0)"/>
     <use xlink:href="#SegoeUI-6f" transform="translate(255.242188 0)"/>
     <use xlink:href="#SegoeUI-63" transform="translate(313.835938 0)"/>
     <use xlink:href="#SegoeUI-6b" transform="translate(360.027344 0)"/>
     <use xlink:href="#SegoeUI-65" transform="translate(407.734375 0)"/>
     <use xlink:href="#SegoeUI-74" transform="translate(460.029297 0)"/>
     <use xlink:href="#SegoeUI-20" transform="translate(493.916016 0)"/>
     <use xlink:href="#SegoeUI-62" transform="translate(521.308594 0)"/>
     <use xlink:href="#SegoeUI-69" transform="translate(580.097656 0)"/>
     <use xlink:href="#SegoeUI-6e" transform="translate(604.316406 0)"/>
     <use xlink:href="#SegoeUI-61" transform="translate(660.908203 0)"/>
     <use xlink:href="#SegoeUI-72" transform="translate(711.787109 0)"/>
     <use xlink:href="#SegoeUI-79" transform="translate(750.552734 0)"/>
     <use xlink:href="#SegoeUI-20" transform="translate(798.941406 0)"/>
     <use xlink:href="#SegoeUI-6d" transform="translate(826.333984 0)"/>
     <use xlink:href="#SegoeUI-6f" transform="translate(912.466797 0)"/>
     <use xlink:href="#SegoeUI-64" transform="translate(971.060547 0)"/>
     <use xlink:href="#SegoeUI-65" transform="translate(1029.947266 0)"/>
     <use xlink:href="#SegoeUI-2c" transform="translate(1082.242188 0)"/>
     <use xlink:href="#SegoeUI-20" transform="translate(1103.921875 0)"/>
     <use xlink:href="#SegoeUI-36" transform="translate(1131.314453 0)"/>
     <use xlink:href="#SegoeUI-30" transform="translate(1185.220703 0)"/>
     <use xlink:href="#SegoeUI-48" transform="translate(1239.126953 0)"/>
     <use xlink:href="#SegoeUI-7a" transform="translate(1310.123047 0)"/>
     <use xlink:href="#SegoeUI-20" transform="translate(1355.337891 0)"/>
     <use xlink:href="#SegoeUI-73" transform="translate(1382.730469 0)"/>
     <use xlink:href="#SegoeUI-65" transform="translate(1425.162109 0)"/>
     <use xlink:href="#SegoeUI-72" transform="translate(1477.457031 0)"/>
     <use xlink:href="#SegoeUI-76" transform="translate(1516.222656 0)"/>
     <use xlink:href="#SegoeUI-65" transform="translate(1563.498047 0)"/>
     <use xlink:href="#SegoeUI-72" transform="translate(1615.792969 0)"/>
     <use xlink:href="#SegoeUI-20" transform="translate(1650.558594 0)"/>
     <use xlink:href="#SegoeUI-74" transform="translate(1677.951172 0)"/>
     <use xlink:href="#SegoeUI-69" transform="translate(1711.837891 0)"/>
     <use xlink:href="#SegoeUI-63" transform="translate(1736.056641 0)"/>
     <use xlink:href="#SegoeUI-6b" transform="translate(1782.248047 0)"/>
     <use xlink:href="#SegoeUI-2c" transform="translate(1835.955078 0)"/>
     <use xlink:href="#SegoeUI-20" transform="translate(1857.634766 0)"/>
     <use xlink:href="#SegoeUI-63" transform="translate(1885.027344 0)"/>
     <use xlink:href="#SegoeUI-6c" transform="translate(1931.21875 0)"/>
     <use xlink:href="#SegoeUI-69" transform="translate(1955.4375 0)"/>
     <use xlink:href="#SegoeUI-65" transform="translate(1979.65625 0)"/>
     <use xlink:href="#SegoeUI-6e" transform="translate(2031.951172 0)"/>
     <use xlink:href="#SegoeUI-74" transform="translate(2088.542969 0)"/>
     <use xlink:href="#SegoeUI-2d" transform="translate(2116.929688 0)"/>
     <use xlink:href="#SegoeUI-73" transform="translate(2156.919922 0)"/>
     <use xlink:href="#SegoeUI-69" transform="translate(2199.351562 0)"/>
     <use xlink:href="#SegoeUI-64" transform="translate(2223.570312 0)"/>
     <use xlink:href="#SegoeUI-65" transform="translate(2282.457031 0)"/>
     <use xlink:href="#SegoeUI-20" transform="translate(2334.751953 0)"/>
     <use xlink:href="#SegoeUI-70" transform="translate(2362.144531 0)"/>
     <use xlink:href="#SegoeUI-72" transform="translate(2420.933594 0)"/>
     <use xlink:href="#SegoeUI-65" transform="translate(2454.324219 0)"/>
     <use xlink:href="#SegoeUI-64" transform="translate(2506.619141 0)"/>
     <use xlink:href="#SegoeUI-69" transform="translate(2565.505859 0)"/>
     <use xlink:href="#SegoeUI-63" transform="translate(2589.724609 0)"/>
     <use xlink:href="#SegoeUI-74" transform="translate(2635.916016 0)"/>
     <use xlink:href="#SegoeUI-69" transform="translate(2669.802734 0)"/>
     <use xlink:href="#SegoeUI-6f" transform="translate(2694.021484 0)"/>
     <use xlink:href="#SegoeUI-6e" transform="translate(2752.615234 0)"/>
     <use xlink:href="#SegoeUI-20" transform="translate(2809.207031 0)"/>
     <use xlink:href="#SegoeUI-64" transform="translate(2836.599609 0)"/>
     <use xlink:href="#SegoeUI-69" transform="translate(2895.486328 0)"/>
     <use xlink:href="#SegoeUI-73" transform="translate(2919.705078 0)"/>
     <use xlink:href="#SegoeUI-61" transform="translate(2962.136719 0)"/>
     <use xlink:href="#SegoeUI-62" transform="translate(3013.015625 0)"/>
     <use xlink:href="#SegoeUI-6c" transform="translate(3071.804688 0)"/>
     <use xlink:href="#SegoeUI-65" transform="translate(3096.023438 0)"/>
     <use xlink:href="#SegoeUI-64" transform="translate(3148.318359 0)"/>
     <use xlink:href="#SegoeUI-20" transform="translate(3207.205078 0)"/>
     <use xlink:href="#SegoeUI-69" transform="translate(3234.597656 0)"/>
     <use xlink:href="#SegoeUI-6e" transform="translate(3258.816406 0)"/>
     <use xlink:href="#SegoeUI-20" transform="translate(3315.408203 0)"/>
     <use xlink:href="#SegoeUI-73" transform="translate(3342.800781 0)"/>
     <use xlink:href="#SegoeUI-74" transform="translate(3385.232422 0)"/>
     <use xlink:href="#SegoeUI-72" transform="translate(3419.119141 0)"/>
     <use xlink:href="#SegoeUI-65" transform="translate(3452.509766 0)"/>
     <use xlink:href="#SegoeUI-61" transform="translate(3504.804688 0)"/>
     <use xlink:href="#SegoeUI-6d" transform="translate(3555.683594 0)"/>
     <use xlink:href="#SegoeUI-69" transform="translate(3641.816406 0)"/>
     <use xlink:href="#SegoeUI-6e" transform="translate(3666.035156 0)"/>
     <use xlink:href="#SegoeUI-67" transform="translate(3722.626953 0)"/>
     <use xlink:href="#SegoeUI-20" transform="translate(3781.513672 0)"/>
     <use xlink:href="#SegoeUI-6d" transform="translate(3808.90625 0)"/>
     <use xlink:href="#SegoeUI-6f" transform="translate(3895.039062 0)"/>
     <use xlink:href="#SegoeUI-64" transform="translate(3953.632812 0)"/>
     <use xlink:href="#SegoeUI-65" transform="translate(4012.519531 0)"/>
     <use xlink:href="#SegoeUI-2e" transform="translate(4064.814453 0)"/>
    </g>
   </g>
   <g id="text_12">
    <!-- Handshake -->
    <g style="fill: #2d2a26" transform="translate(38.9135 399.838094) scale(0.07 -0.07)">
     <defs>
      <path id="SegoeUI-Bold-48" d="M 4391 0
L 3378 0
L 3378 1825
L 1522 1825
L 1522 0
L 513 0
L 513 4481
L 1522 4481
L 1522 2694
L 3378 2694
L 3378 4481
L 4391 4481
L 4391 0
z
" transform="scale(0.015625)"/>
      <path id="SegoeUI-Bold-68" d="M 3488 0
L 2503 0
L 2503 1819
Q 2503 2522 1991 2522
Q 1728 2522 1565 2325
Q 1403 2128 1403 1825
L 1403 0
L 416 0
L 416 4738
L 1403 4738
L 1403 2725
L 1416 2725
Q 1778 3278 2400 3278
Q 3488 3278 3488 1966
L 3488 0
z
" transform="scale(0.015625)"/>
      <path id="SegoeUI-Bold-6b" d="M 3622 0
L 2438 0
L 1416 1588
L 1403 1588
L 1403 0
L 416 0
L 416 4738
L 1403 4738
L 1403 1722
L 1416 1722
L 2369 3200
L 3541 3200
L 2394 1697
L 3622 0
z
" transform="scale(0.015625)"/>
     </defs>
     <use xlink:href="#SegoeUI-Bold-48"/>
     <use xlink:href="#SegoeUI-Bold-61" transform="translate(76.611328 0)"/>
     <use xlink:href="#SegoeUI-Bold-6e" transform="translate(130.419922 0)"/>
     <use xlink:href="#SegoeUI-Bold-64" transform="translate(190.917969 0)"/>
     <use xlink:href="#SegoeUI-Bold-73" transform="translate(252.832031 0)"/>
     <use xlink:href="#SegoeUI-Bold-68" transform="translate(296.826172 0)"/>
     <use xlink:href="#SegoeUI-Bold-61" transform="translate(357.03125 0)"/>
     <use xlink:href="#SegoeUI-Bold-6b" transform="translate(410.839844 0)"/>
     <use xlink:href="#SegoeUI-Bold-65" transform="translate(465.373047 0)"/>
    </g>
   </g>
   <g id="text_13">
    <!-- Auth -->
    <g style="fill: #2d2a26" transform="translate(107.260188 441.418094) scale(0.07 -0.07)">
     <defs>
      <path id="SegoeUI-Bold-41" d="M 4453 0
L 3353 0
L 3034 997
L 1441 997
L 1125 0
L 31 0
L 1663 4481
L 2859 4481
L 4453 0
z
M 2803 1772
L 2322 3278
Q 2269 3447 2247 3681
L 2222 3681
Q 2206 3484 2144 3291
L 1656 1772
L 2803 1772
z
" transform="scale(0.015625)"/>
     </defs>
     <use xlink:href="#SegoeUI-Bold-41"/>
     <use xlink:href="#SegoeUI-Bold-75" transform="translate(70.3125 0)"/>
     <use xlink:href="#SegoeUI-Bold-74" transform="translate(130.810547 0)"/>
     <use xlink:href="#SegoeUI-Bold-68" transform="translate(169.726562 0)"/>
    </g>
   </g>
   <g id="text_14">
    <!-- Frame Protocol -->
    <g style="fill: #2d2a26" transform="translate(144.226531 399.838094) scale(0.07 -0.07)">
     <defs>
      <path id="SegoeUI-Bold-50" d="M 1522 1544
L 1522 0
L 513 0
L 513 4481
L 2094 4481
Q 3788 4481 3788 3053
Q 3788 2378 3302 1961
Q 2816 1544 2003 1544
L 1522 1544
z
M 1522 3706
L 1522 2309
L 1919 2309
Q 2725 2309 2725 3016
Q 2725 3706 1919 3706
L 1522 3706
z
" transform="scale(0.015625)"/>
     </defs>
     <use xlink:href="#SegoeUI-Bold-46"/>
     <use xlink:href="#SegoeUI-Bold-72" transform="translate(52.001953 0)"/>
     <use xlink:href="#SegoeUI-Bold-61" transform="translate(91.796875 0)"/>
     <use xlink:href="#SegoeUI-Bold-6d" transform="translate(145.605469 0)"/>
     <use xlink:href="#SegoeUI-Bold-65" transform="translate(237.207031 0)"/>
     <use xlink:href="#SegoeUI-Bold-20" transform="translate(291.308594 0)"/>
     <use xlink:href="#SegoeUI-Bold-50" transform="translate(318.896484 0)"/>
     <use xlink:href="#SegoeUI-Bold-72" transform="translate(380.322266 0)"/>
     <use xlink:href="#SegoeUI-Bold-6f" transform="translate(419.742188 0)"/>
     <use xlink:href="#SegoeUI-Bold-74" transform="translate(480.875 0)"/>
     <use xlink:href="#SegoeUI-Bold-6f" transform="translate(519.416016 0)"/>
     <use xlink:href="#SegoeUI-Bold-63" transform="translate(580.548828 0)"/>
     <use xlink:href="#SegoeUI-Bold-6f" transform="translate(628.546875 0)"/>
     <use xlink:href="#SegoeUI-Bold-6c" transform="translate(689.679688 0)"/>
    </g>
   </g>
   <g id="text_15">
    <!-- Checksum -->
    <g style="fill: #2d2a26" transform="translate(210.888297 441.418094) scale(0.07 -0.07)">
     <use xlink:href="#SegoeUI-Bold-43"/>
     <use xlink:href="#SegoeUI-Bold-68" transform="translate(62.402344 0)"/>
     <use xlink:href="#SegoeUI-Bold-65" transform="translate(122.607422 0)"/>
     <use xlink:href="#SegoeUI-Bold-63" transform="translate(176.708984 0)"/>
     <use xlink:href="#SegoeUI-Bold-6b" transform="translate(224.707031 0)"/>
     <use xlink:href="#SegoeUI-Bold-73" transform="translate(280.615234 0)"/>
     <use xlink:href="#SegoeUI-Bold-75" transform="translate(324.609375 0)"/>
     <use xlink:href="#SegoeUI-Bold-6d" transform="translate(385.107422 0)"/>
    </g>
   </g>
   <g id="text_16">
    <!-- Delta Patch -->
    <g style="fill: #2d2a26" transform="translate(262.865266 399.838094) scale(0.07 -0.07)">
     <use xlink:href="#SegoeUI-Bold-44"/>
     <use xlink:href="#SegoeUI-Bold-65" transform="translate(73.730469 0)"/>
     <use xlink:href="#SegoeUI-Bold-6c" transform="translate(127.832031 0)"/>
     <use xlink:href="#SegoeUI-Bold-74" transform="translate(156.25 0)"/>
     <use xlink:href="#SegoeUI-Bold-61" transform="translate(195.166016 0)"/>
     <use xlink:href="#SegoeUI-Bold-20" transform="translate(248.974609 0)"/>
     <use xlink:href="#SegoeUI-Bold-50" transform="translate(276.5625 0)"/>
     <use xlink:href="#SegoeUI-Bold-61" transform="translate(335.488281 0)"/>
     <use xlink:href="#SegoeUI-Bold-74" transform="translate(389.296875 0)"/>
     <use xlink:href="#SegoeUI-Bold-63" transform="translate(427.837891 0)"/>
     <use xlink:href="#SegoeUI-Bold-68" transform="translate(475.835938 0)"/>
    </g>
   </g>
   <g id="text_17">
    <!-- BitPack -->
    <g style="fill: #2d2a26" transform="translate(327.656719 441.418094) scale(0.07 -0.07)">
     <defs>
      <path id="SegoeUI-Bold-42" d="M 513 0
L 513 4481
L 2144 4481
Q 2894 4481 3297 4206
Q 3700 3931 3700 3431
Q 3700 3069 3454 2797
Q 3209 2525 2828 2419
L 2828 2406
Q 3306 2347 3592 2053
Q 3878 1759 3878 1338
Q 3878 722 3437 361
Q 2997 0 2234 0
L 513 0
z
M 1522 3738
L 1522 2675
L 1966 2675
Q 2278 2675 2458 2826
Q 2638 2978 2638 3244
Q 2638 3738 1900 3738
L 1522 3738
z
M 1522 1925
L 1522 744
L 2069 744
Q 2419 744 2617 906
Q 2816 1069 2816 1350
Q 2816 1619 2620 1772
Q 2425 1925 2075 1925
L 1522 1925
z
" transform="scale(0.015625)"/>
     </defs>
     <use xlink:href="#SegoeUI-Bold-42"/>
     <use xlink:href="#SegoeUI-Bold-69" transform="translate(64.111328 0)"/>
     <use xlink:href="#SegoeUI-Bold-74" transform="translate(92.529297 0)"/>
     <use xlink:href="#SegoeUI-Bold-50" transform="translate(131.445312 0)"/>
     <use xlink:href="#SegoeUI-Bold-61" transform="translate(190.371094 0)"/>
     <use xlink:href="#SegoeUI-Bold-63" transform="translate(244.179688 0)"/>
     <use xlink:href="#SegoeUI-Bold-6b" transform="translate(292.177734 0)"/>
    </g>
   </g>
   <g id="text_18">
    <!-- Component Diff -->
    <g style="fill: #2d2a26" transform="translate(367.33775 399.879109) scale(0.07 -0.07)">
     <defs>
      <path id="SegoeUI-Bold-66" d="M 2503 3981
Q 2313 4056 2138 4056
Q 1663 4056 1663 3541
L 1663 3200
L 2394 3200
L 2394 2472
L 1663 2472
L 1663 0
L 678 0
L 678 2472
L 141 2472
L 141 3200
L 678 3200
L 678 3597
Q 678 4144 1034 4478
Q 1391 4813 2003 4813
Q 2303 4813 2503 4750
L 2503 3981
z
" transform="scale(0.015625)"/>
     </defs>
     <use xlink:href="#SegoeUI-Bold-43"/>
     <use xlink:href="#SegoeUI-Bold-6f" transform="translate(62.402344 0)"/>
     <use xlink:href="#SegoeUI-Bold-6d" transform="translate(123.535156 0)"/>
     <use xlink:href="#SegoeUI-Bold-70" transform="translate(215.136719 0)"/>
     <use xlink:href="#SegoeUI-Bold-6f" transform="translate(277.148438 0)"/>
     <use xlink:href="#SegoeUI-Bold-6e" transform="translate(338.28125 0)"/>
     <use xlink:href="#SegoeUI-Bold-65" transform="translate(398.779297 0)"/>
     <use xlink:href="#SegoeUI-Bold-6e" transform="translate(452.880859 0)"/>
     <use xlink:href="#SegoeUI-Bold-74" transform="translate(513.378906 0)"/>
     <use xlink:href="#SegoeUI-Bold-20" transform="translate(552.294922 0)"/>
     <use xlink:href="#SegoeUI-Bold-44" transform="translate(579.882812 0)"/>
     <use xlink:href="#SegoeUI-Bold-69" transform="translate(653.613281 0)"/>
     <use xlink:href="#SegoeUI-Bold-66" transform="translate(682.03125 0)"/>
     <use xlink:href="#SegoeUI-Bold-66" transform="translate(720.361328 0)"/>
    </g>
   </g>
   <g id="text_19">
    <!-- Interpolation -->
    <g style="fill: #2d2a26" transform="translate(430.440453 441.418094) scale(0.07 -0.07)">
     <use xlink:href="#SegoeUI-Bold-49"/>
     <use xlink:href="#SegoeUI-Bold-6e" transform="translate(31.689453 0)"/>
     <use xlink:href="#SegoeUI-Bold-74" transform="translate(92.1875 0)"/>
     <use xlink:href="#SegoeUI-Bold-65" transform="translate(130.728516 0)"/>
     <use xlink:href="#SegoeUI-Bold-72" transform="translate(184.830078 0)"/>
     <use xlink:href="#SegoeUI-Bold-70" transform="translate(224.625 0)"/>
     <use xlink:href="#SegoeUI-Bold-6f" transform="translate(286.636719 0)"/>
     <use xlink:href="#SegoeUI-Bold-6c" transform="translate(347.769531 0)"/>
     <use xlink:href="#SegoeUI-Bold-61" transform="translate(376.1875 0)"/>
     <use xlink:href="#SegoeUI-Bold-74" transform="translate(429.996094 0)"/>
     <use xlink:href="#SegoeUI-Bold-69" transform="translate(468.912109 0)"/>
     <use xlink:href="#SegoeUI-Bold-6f" transform="translate(497.330078 0)"/>
     <use xlink:href="#SegoeUI-Bold-6e" transform="translate(558.462891 0)"/>
    </g>
   </g>
   <g id="text_20">
    <!-- Performer -->
    <g style="fill: #2d2a26" transform="translate(489.364922 399.838094) scale(0.07 -0.07)">
     <use xlink:href="#SegoeUI-Bold-50"/>
     <use xlink:href="#SegoeUI-Bold-65" transform="translate(58.425781 0)"/>
     <use xlink:href="#SegoeUI-Bold-72" transform="translate(112.527344 0)"/>
     <use xlink:href="#SegoeUI-Bold-66" transform="translate(154.822266 0)"/>
     <use xlink:href="#SegoeUI-Bold-6f" transform="translate(193.152344 0)"/>
     <use xlink:href="#SegoeUI-Bold-72" transform="translate(254.285156 0)"/>
     <use xlink:href="#SegoeUI-Bold-6d" transform="translate(294.330078 0)"/>
     <use xlink:href="#SegoeUI-Bold-65" transform="translate(385.931641 0)"/>
     <use xlink:href="#SegoeUI-Bold-72" transform="translate(440.033203 0)"/>
    </g>
   </g>
   <g id="text_21">
    <!-- Command Buffer -->
    <g style="fill: #2d2a26" transform="translate(536.170203 441.418094) scale(0.07 -0.07)">
     <use xlink:href="#SegoeUI-Bold-43"/>
     <use xlink:href="#SegoeUI-Bold-6f" transform="translate(62.402344 0)"/>
     <use xlink:href="#SegoeUI-Bold-6d" transform="translate(123.535156 0)"/>
     <use xlink:href="#SegoeUI-Bold-6d" transform="translate(215.136719 0)"/>
     <use xlink:href="#SegoeUI-Bold-61" transform="translate(306.738281 0)"/>
     <use xlink:href="#SegoeUI-Bold-6e" transform="translate(360.546875 0)"/>
     <use xlink:href="#SegoeUI-Bold-64" transform="translate(421.044922 0)"/>
     <use xlink:href="#SegoeUI-Bold-20" transform="translate(482.958984 0)"/>
     <use xlink:href="#SegoeUI-Bold-42" transform="translate(510.546875 0)"/>
     <use xlink:href="#SegoeUI-Bold-75" transform="translate(574.658203 0)"/>
     <use xlink:href="#SegoeUI-Bold-66" transform="translate(635.15625 0)"/>
     <use xlink:href="#SegoeUI-Bold-66" transform="translate(673.486328 0)"/>
     <use xlink:href="#SegoeUI-Bold-65" transform="translate(711.816406 0)"/>
     <use xlink:href="#SegoeUI-Bold-72" transform="translate(765.917969 0)"/>
    </g>
   </g>
   <g id="text_22">
    <!-- Raw Input -->
    <g style="fill: #2d2a26" transform="translate(601.624359 399.838094) scale(0.07 -0.07)">
     <use xlink:href="#SegoeUI-Bold-52"/>
     <use xlink:href="#SegoeUI-Bold-61" transform="translate(65.283203 0)"/>
     <use xlink:href="#SegoeUI-Bold-77" transform="translate(119.091797 0)"/>
     <use xlink:href="#SegoeUI-Bold-20" transform="translate(198.828125 0)"/>
     <use xlink:href="#SegoeUI-Bold-49" transform="translate(226.416016 0)"/>
     <use xlink:href="#SegoeUI-Bold-6e" transform="translate(258.105469 0)"/>
     <use xlink:href="#SegoeUI-Bold-70" transform="translate(318.603516 0)"/>
     <use xlink:href="#SegoeUI-Bold-75" transform="translate(380.615234 0)"/>
     <use xlink:href="#SegoeUI-Bold-74" transform="translate(441.113281 0)"/>
    </g>
   </g>
   <g id="text_23">
    <!-- Order -->
    <g style="fill: #2d2a26" transform="translate(667.150266 441.418094) scale(0.07 -0.07)">
     <defs>
      <path id="SegoeUI-Bold-4f" d="M 2406 -78
Q 1444 -78 837 548
Q 231 1175 231 2181
Q 231 3244 847 3900
Q 1463 4556 2478 4556
Q 3438 4556 4030 3928
Q 4622 3300 4622 2272
Q 4622 1216 4008 569
Q 3394 -78 2406 -78
z
M 2450 3688
Q 1919 3688 1606 3289
Q 1294 2891 1294 2234
Q 1294 1569 1606 1181
Q 1919 794 2425 794
Q 2947 794 3253 1170
Q 3559 1547 3559 2216
Q 3559 2913 3262 3300
Q 2966 3688 2450 3688
z
" transform="scale(0.015625)"/>
     </defs>
     <use xlink:href="#SegoeUI-Bold-4f"/>
     <use xlink:href="#SegoeUI-Bold-72" transform="translate(75.830078 0)"/>
     <use xlink:href="#SegoeUI-Bold-64" transform="translate(115.25 0)"/>
     <use xlink:href="#SegoeUI-Bold-65" transform="translate(177.164062 0)"/>
     <use xlink:href="#SegoeUI-Bold-72" transform="translate(231.265625 0)"/>
    </g>
   </g>
   <g id="text_24">
    <!-- Command -->
    <g style="fill: #2d2a26" transform="translate(717.945 482.998094) scale(0.07 -0.07)">
     <use xlink:href="#SegoeUI-Bold-43"/>
     <use xlink:href="#SegoeUI-Bold-6f" transform="translate(62.402344 0)"/>
     <use xlink:href="#SegoeUI-Bold-6d" transform="translate(123.535156 0)"/>
     <use xlink:href="#SegoeUI-Bold-6d" transform="translate(215.136719 0)"/>
     <use xlink:href="#SegoeUI-Bold-61" transform="translate(306.738281 0)"/>
     <use xlink:href="#SegoeUI-Bold-6e" transform="translate(360.546875 0)"/>
     <use xlink:href="#SegoeUI-Bold-64" transform="translate(421.044922 0)"/>
    </g>
   </g>
   <g id="text_25">
    <!-- Command Buffer -->
    <g style="fill: #2d2a26" transform="translate(702.490203 399.838094) scale(0.07 -0.07)">
     <use xlink:href="#SegoeUI-Bold-43"/>
     <use xlink:href="#SegoeUI-Bold-6f" transform="translate(62.402344 0)"/>
     <use xlink:href="#SegoeUI-Bold-6d" transform="translate(123.535156 0)"/>
     <use xlink:href="#SegoeUI-Bold-6d" transform="translate(215.136719 0)"/>
     <use xlink:href="#SegoeUI-Bold-61" transform="translate(306.738281 0)"/>
     <use xlink:href="#SegoeUI-Bold-6e" transform="translate(360.546875 0)"/>
     <use xlink:href="#SegoeUI-Bold-64" transform="translate(421.044922 0)"/>
     <use xlink:href="#SegoeUI-Bold-20" transform="translate(482.958984 0)"/>
     <use xlink:href="#SegoeUI-Bold-42" transform="translate(510.546875 0)"/>
     <use xlink:href="#SegoeUI-Bold-75" transform="translate(574.658203 0)"/>
     <use xlink:href="#SegoeUI-Bold-66" transform="translate(635.15625 0)"/>
     <use xlink:href="#SegoeUI-Bold-66" transform="translate(673.486328 0)"/>
     <use xlink:href="#SegoeUI-Bold-65" transform="translate(711.816406 0)"/>
     <use xlink:href="#SegoeUI-Bold-72" transform="translate(765.917969 0)"/>
    </g>
   </g>
   <g id="text_26">
    <!-- Emit -->
    <g style="fill: #2d2a26" transform="translate(781.477984 441.418094) scale(0.07 -0.07)">
     <use xlink:href="#SegoeUI-Bold-45"/>
     <use xlink:href="#SegoeUI-Bold-6d" transform="translate(53.222656 0)"/>
     <use xlink:href="#SegoeUI-Bold-69" transform="translate(144.824219 0)"/>
     <use xlink:href="#SegoeUI-Bold-74" transform="translate(173.242188 0)"/>
    </g>
   </g>
   <g id="patch_54">
    <path d="M 152.73 235.89
C 158.243572 235.89 163.532066 233.699434 167.43075 229.80075
C 171.329434 225.902066 173.52 220.613572 173.52 215.1
C 173.52 209.586428 171.329434 204.297934 167.43075 200.39925
C 163.532066 196.500566 158.243572 194.31 152.73 194.31
C 147.216428 194.31 141.927934 196.500566 138.02925 200.39925
C 134.130566 204.297934 131.94 209.586428 131.94 215.1
C 131.94 220.613572 134.130566 225.902066 138.02925 229.80075
C 141.927934 233.699434 147.216428 235.89 152.73 235.89
z
" clip-path="url(#p7fb5f970dc)" style="fill: #6b8e8e; stroke: #ffffff; stroke-width: 2; stroke-linejoin: miter"/>
   </g>
   <g id="patch_55">
    <path d="M 264.996 235.89
C 270.509572 235.89 275.798066 233.699434 279.69675 229.80075
C 283.595434 225.902066 285.786 220.613572 285.786 215.1
C 285.786 209.586428 283.595434 204.297934 279.69675 200.39925
C 275.798066 196.500566 270.509572 194.31 264.996 194.31
C 259.482428 194.31 254.193934 196.500566 250.29525 200.39925
C 246.396566 204.297934 244.206 209.586428 244.206 215.1
C 244.206 220.613572 246.396566 225.902066 250.29525 229.80075
C 254.193934 233.699434 259.482428 235.89 264.996 235.89
z
" clip-path="url(#p7fb5f970dc)" style="fill: #c45c3e; stroke: #ffffff; stroke-width: 2; stroke-linejoin: miter"/>
   </g>
   <g id="patch_56">
    <path d="M 377.262 235.89
C 382.775572 235.89 388.064066 233.699434 391.96275 229.80075
C 395.861434 225.902066 398.052 220.613572 398.052 215.1
C 398.052 209.586428 395.861434 204.297934 391.96275 200.39925
C 388.064066 196.500566 382.775572 194.31 377.262 194.31
C 371.748428 194.31 366.459934 196.500566 362.56125 200.39925
C 358.662566 204.297934 356.472 209.586428 356.472 215.1
C 356.472 220.613572 358.662566 225.902066 362.56125 229.80075
C 366.459934 233.699434 371.748428 235.89 377.262 235.89
z
" clip-path="url(#p7fb5f970dc)" style="fill: #c45c3e; stroke: #ffffff; stroke-width: 2; stroke-linejoin: miter"/>
   </g>
   <g id="patch_57">
    <path d="M 489.528 235.89
C 495.041572 235.89 500.330066 233.699434 504.22875 229.80075
C 508.127434 225.902066 510.318 220.613572 510.318 215.1
C 510.318 209.586428 508.127434 204.297934 504.22875 200.39925
C 500.330066 196.500566 495.041572 194.31 489.528 194.31
C 484.014428 194.31 478.725934 196.500566 474.82725 200.39925
C 470.928566 204.297934 468.738 209.586428 468.738 215.1
C 468.738 220.613572 470.928566 225.902066 474.82725 229.80075
C 478.725934 233.699434 484.014428 235.89 489.528 235.89
z
" clip-path="url(#p7fb5f970dc)" style="fill: #8e6b5c; stroke: #ffffff; stroke-width: 2; stroke-linejoin: miter"/>
   </g>
   <g id="patch_58">
    <path d="M 601.794 235.89
C 607.307572 235.89 612.596066 233.699434 616.49475 229.80075
C 620.393434 225.902066 622.584 220.613572 622.584 215.1
C 622.584 209.586428 620.393434 204.297934 616.49475 200.39925
C 612.596066 196.500566 607.307572 194.31 601.794 194.31
C 596.280428 194.31 590.991934 196.500566 587.09325 200.39925
C 583.194566 204.297934 581.004 209.586428 581.004 215.1
C 581.004 220.613572 583.194566 225.902066 587.09325 229.80075
C 590.991934 233.699434 596.280428 235.89 601.794 235.89
z
" clip-path="url(#p7fb5f970dc)" style="fill: #7a6b8e; stroke: #ffffff; stroke-width: 2; stroke-linejoin: miter"/>
   </g>
   <g id="text_27">
    <!-- 1 -->
    <g style="fill: #ffffff" transform="translate(150.141797 217.396406) scale(0.09 -0.09)">
     <defs>
      <path id="SegoeUI-Bold-31" d="M 2600 4581
L 2600 0
L 1616 0
L 1616 3469
Q 1534 3397 1423 3333
Q 1313 3269 1188 3217
Q 1063 3166 928 3130
Q 794 3094 663 3078
L 663 3909
Q 1047 4022 1387 4197
Q 1728 4372 2003 4581
L 2600 4581
z
" transform="scale(0.015625)"/>
     </defs>
     <use xlink:href="#SegoeUI-Bold-31"/>
    </g>
   </g>
   <g id="text_28">
    <!-- 2 -->
    <g style="fill: #ffffff" transform="translate(262.407797 217.396406) scale(0.09 -0.09)">
     <defs>
      <path id="SegoeUI-Bold-32" d="M 1341 819
L 3241 819
L 3241 0
L 259 0
L 259 338
Q 259 681 375 954
Q 491 1228 666 1445
Q 841 1663 1048 1830
Q 1256 1997 1444 2131
Q 1641 2272 1789 2400
Q 1938 2528 2039 2654
Q 2141 2781 2191 2911
Q 2241 3041 2241 3188
Q 2241 3475 2078 3622
Q 1916 3769 1581 3769
Q 1003 3769 475 3309
L 475 4178
Q 1059 4556 1794 4556
Q 2134 4556 2404 4467
Q 2675 4378 2862 4212
Q 3050 4047 3148 3811
Q 3247 3575 3247 3284
Q 3247 2975 3151 2734
Q 3056 2494 2898 2297
Q 2741 2100 2534 1936
Q 2328 1772 2106 1619
Q 1956 1513 1817 1408
Q 1678 1303 1572 1201
Q 1466 1100 1403 1003
Q 1341 906 1341 819
z
" transform="scale(0.015625)"/>
     </defs>
     <use xlink:href="#SegoeUI-Bold-32"/>
    </g>
   </g>
   <g id="text_29">
    <!-- 3 -->
    <g style="fill: #ffffff" transform="translate(374.673797 217.396406) scale(0.09 -0.09)">
     <defs>
      <path id="SegoeUI-Bold-33" d="M 366 147
L 366 1006
Q 816 678 1416 678
Q 1794 678 2005 840
Q 2216 1003 2216 1294
Q 2216 1594 1955 1756
Q 1694 1919 1238 1919
L 822 1919
L 822 2675
L 1206 2675
Q 2081 2675 2081 3256
Q 2081 3803 1409 3803
Q 959 3803 534 3513
L 534 4319
Q 1006 4556 1634 4556
Q 2322 4556 2705 4247
Q 3088 3938 3088 3444
Q 3088 2566 2197 2344
L 2197 2328
Q 2672 2269 2947 1983
Q 3222 1697 3222 1281
Q 3222 653 2762 287
Q 2303 -78 1494 -78
Q 800 -78 366 147
z
" transform="scale(0.015625)"/>
     </defs>
     <use xlink:href="#SegoeUI-Bold-33"/>
    </g>
   </g>
   <g id="text_30">
    <!-- 4 -->
    <g style="fill: #ffffff" transform="translate(486.939797 217.396406) scale(0.09 -0.09)">
     <defs>
      <path id="SegoeUI-Bold-34" d="M 2975 4481
L 2975 1656
L 3513 1656
L 3513 919
L 2975 919
L 2975 0
L 2075 0
L 2075 919
L 122 919
L 122 1691
Q 381 1981 659 2326
Q 938 2672 1197 3037
Q 1456 3403 1679 3773
Q 1903 4144 2059 4481
L 2975 4481
z
M 1006 1656
L 2075 1656
L 2075 3222
Q 1966 3019 1837 2811
Q 1709 2603 1568 2401
Q 1428 2200 1284 2011
Q 1141 1822 1006 1656
z
" transform="scale(0.015625)"/>
     </defs>
     <use xlink:href="#SegoeUI-Bold-34"/>
    </g>
   </g>
   <g id="text_31">
    <!-- 5 -->
    <g style="fill: #ffffff" transform="translate(599.205797 217.396406) scale(0.09 -0.09)">
     <defs>
      <path id="SegoeUI-Bold-35" d="M 444 116
L 444 959
Q 903 678 1422 678
Q 1813 678 2033 864
Q 2253 1050 2253 1369
Q 2253 2034 1313 2034
Q 966 2034 513 1981
L 681 4481
L 3053 4481
L 3053 3675
L 1434 3675
L 1372 2778
Q 1613 2797 1788 2797
Q 2478 2797 2868 2434
Q 3259 2072 3259 1459
Q 3259 781 2793 351
Q 2328 -78 1531 -78
Q 884 -78 444 116
z
" transform="scale(0.015625)"/>
     </defs>
     <use xlink:href="#SegoeUI-Bold-35"/>
    </g>
   </g>
  </g>
 </g>
 <defs>
  <clipPath id="p7fb5f970dc">
   <rect x="7.2" y="7.2" width="831.6" height="665.28"/>
  </clipPath>
 </defs>
</svg>
