<?xml version="1.0" encoding="utf-8" standalone="no"?>
<!DOCTYPE svg PUBLIC "-//W3C//DTD SVG 1.1//EN"
  "http://www.w3.org/Graphics/SVG/1.1/DTD/svg11.dtd">
<svg xmlns:xlink="http://www.w3.org/1999/xlink" width="1425.6pt" height="1123.2pt" viewBox="0 0 1425.6 1123.2" xmlns="http://www.w3.org/2000/svg" version="1.1">
 <metadata>
  <rdf:RDF xmlns:dc="http://purl.org/dc/elements/1.1/" xmlns:cc="http://creativecommons.org/ns#" xmlns:rdf="http://www.w3.org/1999/02/22-rdf-syntax-ns#">
   <cc:Work>
    <dc:type rdf:resource="http://purl.org/dc/dcmitype/StillImage"/>
    <dc:date>2026-07-20T06:14:21.442304</dc:date>
    <dc:format>image/svg+xml</dc:format>
    <dc:creator>
     <cc:Agent>
      <dc:title>Matplotlib v3.10.9, https://matplotlib.org/</dc:title>
     </cc:Agent>
    </dc:creator>
   </cc:Work>
  </rdf:RDF>
 </metadata>
 <defs>
  <style type="text/css">*{stroke-linejoin: round; stroke-linecap: butt}</style>
 </defs>
 <g id="figure_1">
  <g id="patch_1">
   <path d="M 0 1123.2
L 1425.6 1123.2
L 1425.6 0
L 0 0
z
" style="fill: #ffffff"/>
  </g>
  <g id="axes_1">
   <g id="patch_2">
    <path d="M 38.88 86.4
L 321.12 86.4
Q 331.2 86.4 331.2 96.48
L 331.2 551.52
Q 331.2 561.6 321.12 561.6
L 38.88 561.6
Q 28.8 561.6 28.8 551.52
L 28.8 96.48
Q 28.8 86.4 38.88 86.4
z
" clip-path="url(#p0d9d27d8e0)" style="fill: #fafbfc; stroke-dasharray: 6,4; stroke-dashoffset: 0; stroke: #cfd6de; stroke-linejoin: miter"/>
   </g>
   <g id="patch_3">
    <path d="M 370.08 86.4
L 753.12 86.4
Q 763.2 86.4 763.2 96.48
L 763.2 551.52
Q 763.2 561.6 753.12 561.6
L 370.08 561.6
Q 360 561.6 360 551.52
L 360 96.48
Q 360 86.4 370.08 86.4
z
" clip-path="url(#p0d9d27d8e0)" style="fill: #fafbfc; stroke-dasharray: 6,4; stroke-dashoffset: 0; stroke: #cfd6de; stroke-linejoin: miter"/>
   </g>
   <g id="patch_4">
    <path d="M 802.08 86.4
L 1084.32 86.4
Q 1094.4 86.4 1094.4 96.48
L 1094.4 551.52
Q 1094.4 561.6 1084.32 561.6
L 802.08 561.6
Q 792 561.6 792 551.52
L 792 96.48
Q 792 86.4 802.08 86.4
z
" clip-path="url(#p0d9d27d8e0)" style="fill: #fafbfc; stroke-dasharray: 6,4; stroke-dashoffset: 0; stroke: #cfd6de; stroke-linejoin: miter"/>
   </g>
   <g id="patch_5">
    <path d="M 1133.28 86.4
L 1386.72 86.4
Q 1396.8 86.4 1396.8 96.48
L 1396.8 551.52
Q 1396.8 561.6 1386.72 561.6
L 1133.28 561.6
Q 1123.2 561.6 1123.2 551.52
L 1123.2 96.48
Q 1123.2 86.4 1133.28 86.4
z
" clip-path="url(#p0d9d27d8e0)" style="fill: #fafbfc; stroke-dasharray: 6,4; stroke-dashoffset: 0; stroke: #cfd6de; stroke-linejoin: miter"/>
   </g>
   <g id="patch_6">
    <path d="M 38.88 597.6
L 1386.72 597.6
Q 1396.8 597.6 1396.8 607.68
L 1396.8 1077.12
Q 1396.8 1087.2 1386.72 1087.2
L 38.88 1087.2
Q 28.8 1087.2 28.8 1077.12
L 28.8 607.68
Q 28.8 597.6 38.88 597.6
z
" clip-path="url(#p0d9d27d8e0)" style="fill: #fafbfc; stroke-dasharray: 6,4; stroke-dashoffset: 0; stroke: #cfd6de; stroke-linejoin: miter"/>
   </g>
   <g id="text_1">
    <text style="font-weight: 700; font-size: 10.5px; font-family: 'Microsoft YaHei', 'DejaVu Sans'; text-anchor: start; fill: #5b6470" x="40.32" y="101.993437" transform="rotate(-0 40.32 101.993437)">World (ISpatialPartitionWorld)</text>
   </g>
   <g id="text_2">
    <text style="font-weight: 700; font-size: 10.5px; font-family: 'Microsoft YaHei', 'DejaVu Sans'; text-anchor: start; fill: #5b6470" x="371.52" y="101.993437" transform="rotate(-0 371.52 101.993437)">Chunk (ChunkedGrid)</text>
   </g>
   <g id="text_3">
    <text style="font-weight: 700; font-size: 10.5px; font-family: 'Microsoft YaHei', 'DejaVu Sans'; text-anchor: start; fill: #5b6470" x="803.52" y="101.993437" transform="rotate(-0 803.52 101.993437)">Cell (Grid Cell)</text>
   </g>
   <g id="text_4">
    <text style="font-weight: 700; font-size: 10.5px; font-family: 'Microsoft YaHei', 'DejaVu Sans'; text-anchor: start; fill: #5b6470" x="1134.72" y="101.957344" transform="rotate(-0 1134.72 101.957344)">Entity</text>
   </g>
   <g id="text_5">
    <text style="font-weight: 700; font-size: 10.5px; font-family: 'Microsoft YaHei', 'DejaVu Sans'; text-anchor: start; fill: #5b6470" x="40.32" y="613.193437" transform="rotate(-0 40.32 613.193437)">Query Execution Pipeline</text>
   </g>
   <g id="patch_7">
    <path d="M 70.56 158.4
L 289.44 158.4
Q 295.2 158.4 295.2 164.16
L 295.2 231.84
Q 295.2 237.6 289.44 237.6
L 70.56 237.6
Q 64.8 237.6 64.8 231.84
L 64.8 164.16
Q 64.8 158.4 70.56 158.4
z
" clip-path="url(#p0d9d27d8e0)" style="fill: #e9eff5; stroke: #7490a8; stroke-linejoin: miter"/>
   </g>
   <g id="patch_8">
    <path d="M 70.56 288
L 289.44 288
Q 295.2 288 295.2 293.76
L 295.2 361.44
Q 295.2 367.2 289.44 367.2
L 70.56 367.2
Q 64.8 367.2 64.8 361.44
L 64.8 293.76
Q 64.8 288 70.56 288
z
" clip-path="url(#p0d9d27d8e0)" style="fill: #e9eff5; stroke: #7490a8; stroke-linejoin: miter"/>
   </g>
   <g id="patch_9">
    <path d="M 387.36 151.2
L 483.84 151.2
Q 489.6 151.2 489.6 156.96
L 489.6 217.44
Q 489.6 223.2 483.84 223.2
L 387.36 223.2
Q 381.6 223.2 381.6 217.44
L 381.6 156.96
Q 381.6 151.2 387.36 151.2
z
" clip-path="url(#p0d9d27d8e0)" style="fill: #eceef0; stroke: #828a92; stroke-linejoin: miter"/>
   </g>
   <g id="patch_10">
    <path d="M 509.76 151.2
L 606.24 151.2
Q 612 151.2 612 156.96
L 612 217.44
Q 612 223.2 606.24 223.2
L 509.76 223.2
Q 504 223.2 504 217.44
L 504 156.96
Q 504 151.2 509.76 151.2
z
" clip-path="url(#p0d9d27d8e0)" style="fill: #eceef0; stroke: #828a92; stroke-linejoin: miter"/>
   </g>
   <g id="patch_11">
    <path d="M 632.16 151.2
L 728.64 151.2
Q 734.4 151.2 734.4 156.96
L 734.4 217.44
Q 734.4 223.2 728.64 223.2
L 632.16 223.2
Q 626.4 223.2 626.4 217.44
L 626.4 156.96
Q 626.4 151.2 632.16 151.2
z
" clip-path="url(#p0d9d27d8e0)" style="fill: #eceef0; stroke: #828a92; stroke-linejoin: miter"/>
   </g>
   <g id="patch_12">
    <path d="M 387.36 237.6
L 483.84 237.6
Q 489.6 237.6 489.6 243.36
L 489.6 303.84
Q 489.6 309.6 483.84 309.6
L 387.36 309.6
Q 381.6 309.6 381.6 303.84
L 381.6 243.36
Q 381.6 237.6 387.36 237.6
z
" clip-path="url(#p0d9d27d8e0)" style="fill: #eceef0; stroke: #828a92; stroke-linejoin: miter"/>
   </g>
   <g id="patch_13">
    <path d="M 509.76 237.6
L 606.24 237.6
Q 612 237.6 612 243.36
L 612 303.84
Q 612 309.6 606.24 309.6
L 509.76 309.6
Q 504 309.6 504 303.84
L 504 243.36
Q 504 237.6 509.76 237.6
z
" clip-path="url(#p0d9d27d8e0)" style="fill: #e9eff5; stroke: #7490a8; stroke-linejoin: miter"/>
   </g>
   <g id="patch_14">
    <path d="M 632.16 237.6
L 728.64 237.6
Q 734.4 237.6 734.4 243.36
L 734.4 303.84
Q 734.4 309.6 728.64 309.6
L 632.16 309.6
Q 626.4 309.6 626.4 303.84
L 626.4 243.36
Q 626.4 237.6 632.16 237.6
z
" clip-path="url(#p0d9d27d8e0)" style="fill: #eceef0; stroke: #828a92; stroke-linejoin: miter"/>
   </g>
   <g id="patch_15">
    <path d="M 387.36 324
L 483.84 324
Q 489.6 324 489.6 329.76
L 489.6 390.24
Q 489.6 396 483.84 396
L 387.36 396
Q 381.6 396 381.6 390.24
L 381.6 329.76
Q 381.6 324 387.36 324
z
" clip-path="url(#p0d9d27d8e0)" style="fill: #eceef0; stroke: #828a92; stroke-linejoin: miter"/>
   </g>
   <g id="patch_16">
    <path d="M 509.76 324
L 606.24 324
Q 612 324 612 329.76
L 612 390.24
Q 612 396 606.24 396
L 509.76 396
Q 504 396 504 390.24
L 504 329.76
Q 504 324 509.76 324
z
" clip-path="url(#p0d9d27d8e0)" style="fill: #eceef0; stroke: #828a92; stroke-linejoin: miter"/>
   </g>
   <g id="patch_17">
    <path d="M 632.16 324
L 728.64 324
Q 734.4 324 734.4 329.76
L 734.4 390.24
Q 734.4 396 728.64 396
L 632.16 396
Q 626.4 396 626.4 390.24
L 626.4 329.76
Q 626.4 324 632.16 324
z
" clip-path="url(#p0d9d27d8e0)" style="fill: #eceef0; stroke: #828a92; stroke-linejoin: miter"/>
   </g>
   <g id="patch_18">
    <path d="M 387.36 424.8
L 728.64 424.8
Q 734.4 424.8 734.4 430.56
L 734.4 491.04
Q 734.4 496.8 728.64 496.8
L 387.36 496.8
Q 381.6 496.8 381.6 491.04
L 381.6 430.56
Q 381.6 424.8 387.36 424.8
z
" clip-path="url(#p0d9d27d8e0)" style="fill: #ebeef2; stroke: #7d8ba0; stroke-linejoin: miter"/>
   </g>
   <g id="patch_19">
    <path d="M 855.36 172.8
L 944.64 172.8
Q 950.4 172.8 950.4 178.56
L 950.4 231.84
Q 950.4 237.6 944.64 237.6
L 855.36 237.6
Q 849.6 237.6 849.6 231.84
L 849.6 178.56
Q 849.6 172.8 855.36 172.8
z
" clip-path="url(#p0d9d27d8e0)" style="fill: #e9eff5; stroke: #7490a8; stroke-linejoin: miter"/>
   </g>
   <g id="patch_20">
    <path d="M 826.56 302.4
L 1059.84 302.4
Q 1065.6 302.4 1065.6 308.16
L 1065.6 375.84
Q 1065.6 381.6 1059.84 381.6
L 826.56 381.6
Q 820.8 381.6 820.8 375.84
L 820.8 308.16
Q 820.8 302.4 826.56 302.4
z
" clip-path="url(#p0d9d27d8e0)" style="fill: #ebeef2; stroke: #7d8ba0; stroke-linejoin: miter"/>
   </g>
   <g id="patch_21">
    <path d="M 1157.76 172.8
L 1362.24 172.8
Q 1368 172.8 1368 178.56
L 1368 253.44
Q 1368 259.2 1362.24 259.2
L 1157.76 259.2
Q 1152 259.2 1152 253.44
L 1152 178.56
Q 1152 172.8 1157.76 172.8
z
" clip-path="url(#p0d9d27d8e0)" style="fill: #f4ede9; stroke: #b08d7f; stroke-linejoin: miter"/>
   </g>
   <g id="patch_22">
    <path d="M 1157.76 309.6
L 1362.24 309.6
Q 1368 309.6 1368 315.36
L 1368 390.24
Q 1368 396 1362.24 396
L 1157.76 396
Q 1152 396 1152 390.24
L 1152 315.36
Q 1152 309.6 1157.76 309.6
z
" clip-path="url(#p0d9d27d8e0)" style="fill: #f4ede9; stroke: #b08d7f; stroke-linejoin: miter"/>
   </g>
   <g id="patch_23">
    <path d="M 63.36 669.6
L 267.84 669.6
Q 273.6 669.6 273.6 675.36
L 273.6 743.04
Q 273.6 748.8 267.84 748.8
L 63.36 748.8
Q 57.6 748.8 57.6 743.04
L 57.6 675.36
Q 57.6 669.6 63.36 669.6
z
" clip-path="url(#p0d9d27d8e0)" style="fill: #e9eff5; stroke: #7490a8; stroke-linejoin: miter"/>
   </g>
   <g id="patch_24">
    <path d="M 336.96 669.6
L 541.44 669.6
Q 547.2 669.6 547.2 675.36
L 547.2 743.04
Q 547.2 748.8 541.44 748.8
L 336.96 748.8
Q 331.2 748.8 331.2 743.04
L 331.2 675.36
Q 331.2 669.6 336.96 669.6
z
" clip-path="url(#p0d9d27d8e0)" style="fill: #e9eff5; stroke: #7490a8; stroke-linejoin: miter"/>
   </g>
   <g id="patch_25">
    <path d="M 610.56 669.6
L 815.04 669.6
Q 820.8 669.6 820.8 675.36
L 820.8 743.04
Q 820.8 748.8 815.04 748.8
L 610.56 748.8
Q 604.8 748.8 604.8 743.04
L 604.8 675.36
Q 604.8 669.6 610.56 669.6
z
" clip-path="url(#p0d9d27d8e0)" style="fill: #e9eff5; stroke: #7490a8; stroke-linejoin: miter"/>
   </g>
   <g id="patch_26">
    <path d="M 884.16 669.6
L 1088.64 669.6
Q 1094.4 669.6 1094.4 675.36
L 1094.4 743.04
Q 1094.4 748.8 1088.64 748.8
L 884.16 748.8
Q 878.4 748.8 878.4 743.04
L 878.4 675.36
Q 878.4 669.6 884.16 669.6
z
" clip-path="url(#p0d9d27d8e0)" style="fill: #e9eff5; stroke: #7490a8; stroke-linejoin: miter"/>
   </g>
   <g id="patch_27">
    <path d="M 1157.76 669.6
L 1362.24 669.6
Q 1368 669.6 1368 675.36
L 1368 743.04
Q 1368 748.8 1362.24 748.8
L 1157.76 748.8
Q 1152 748.8 1152 743.04
L 1152 675.36
Q 1152 669.6 1157.76 669.6
z
" clip-path="url(#p0d9d27d8e0)" style="fill: #f4ede9; stroke: #b08d7f; stroke-linejoin: miter"/>
   </g>
   <g id="text_6">
    <text style="font-weight: 700; font-size: 12.5px; font-family: 'Microsoft YaHei', 'DejaVu Sans'; text-anchor: middle; fill: #23272e" x="180" y="191.792187" transform="rotate(-0 180 191.792187)">World</text>
   </g>
   <g id="text_7">
    <text style="font-size: 10.2px; font-family: 'Microsoft YaHei', 'DejaVu Sans'; text-anchor: middle; fill: #5b6470" x="180" y="208.673625" transform="rotate(-0 180 208.673625)">ISpatialPartitionWorld</text>
   </g>
   <g id="text_8">
    <text style="font-weight: 700; font-size: 12.5px; font-family: 'Microsoft YaHei', 'DejaVu Sans'; text-anchor: middle; fill: #23272e" x="180" y="321.392187" transform="rotate(-0 180 321.392187)">WorldBounds</text>
   </g>
   <g id="text_9">
    <text style="font-size: 10.2px; font-family: 'Microsoft YaHei', 'DejaVu Sans'; text-anchor: middle; fill: #5b6470" x="180" y="338.273625" transform="rotate(-0 180 338.273625)">Min / Max / ChunkSize</text>
   </g>
   <g id="text_10">
    <text style="font-weight: 700; font-size: 12.5px; font-family: 'Microsoft YaHei', 'DejaVu Sans'; text-anchor: middle; fill: #23272e" x="435.6" y="180.992188" transform="rotate(-0 435.6 180.992188)">Chunk</text>
   </g>
   <g id="text_11">
    <text style="font-size: 10.2px; font-family: 'Microsoft YaHei', 'DejaVu Sans'; text-anchor: middle; fill: #5b6470" x="435.6" y="197.873625" transform="rotate(-0 435.6 197.873625)">(0,0)</text>
   </g>
   <g id="text_12">
    <text style="font-weight: 700; font-size: 12.5px; font-family: 'Microsoft YaHei', 'DejaVu Sans'; text-anchor: middle; fill: #23272e" x="558" y="180.992188" transform="rotate(-0 558 180.992188)">Chunk</text>
   </g>
   <g id="text_13">
    <text style="font-size: 10.2px; font-family: 'Microsoft YaHei', 'DejaVu Sans'; text-anchor: middle; fill: #5b6470" x="558" y="197.873625" transform="rotate(-0 558 197.873625)">(1,0)</text>
   </g>
   <g id="text_14">
    <text style="font-weight: 700; font-size: 12.5px; font-family: 'Microsoft YaHei', 'DejaVu Sans'; text-anchor: middle; fill: #23272e" x="680.4" y="180.992188" transform="rotate(-0 680.4 180.992188)">Chunk</text>
   </g>
   <g id="text_15">
    <text style="font-size: 10.2px; font-family: 'Microsoft YaHei', 'DejaVu Sans'; text-anchor: middle; fill: #5b6470" x="680.4" y="197.873625" transform="rotate(-0 680.4 197.873625)">(2,0)</text>
   </g>
   <g id="text_16">
    <text style="font-weight: 700; font-size: 12.5px; font-family: 'Microsoft YaHei', 'DejaVu Sans'; text-anchor: middle; fill: #23272e" x="435.6" y="267.392187" transform="rotate(-0 435.6 267.392187)">Chunk</text>
   </g>
   <g id="text_17">
    <text style="font-size: 10.2px; font-family: 'Microsoft YaHei', 'DejaVu Sans'; text-anchor: middle; fill: #5b6470" x="435.6" y="284.273625" transform="rotate(-0 435.6 284.273625)">(0,1)</text>
   </g>
   <g id="text_18">
    <text style="font-weight: 700; font-size: 12.5px; font-family: 'Microsoft YaHei', 'DejaVu Sans'; text-anchor: middle; fill: #23272e" x="558" y="267.392187" transform="rotate(-0 558 267.392187)">Active</text>
   </g>
   <g id="text_19">
    <text style="font-size: 10.2px; font-family: 'Microsoft YaHei', 'DejaVu Sans'; text-anchor: middle; fill: #5b6470" x="558" y="284.273625" transform="rotate(-0 558 284.273625)">(1,1)</text>
   </g>
   <g id="text_20">
    <text style="font-weight: 700; font-size: 12.5px; font-family: 'Microsoft YaHei', 'DejaVu Sans'; text-anchor: middle; fill: #23272e" x="680.4" y="267.392187" transform="rotate(-0 680.4 267.392187)">Chunk</text>
   </g>
   <g id="text_21">
    <text style="font-size: 10.2px; font-family: 'Microsoft YaHei', 'DejaVu Sans'; text-anchor: middle; fill: #5b6470" x="680.4" y="284.273625" transform="rotate(-0 680.4 284.273625)">(2,1)</text>
   </g>
   <g id="text_22">
    <text style="font-weight: 700; font-size: 12.5px; font-family: 'Microsoft YaHei', 'DejaVu Sans'; text-anchor: middle; fill: #23272e" x="435.6" y="353.792187" transform="rotate(-0 435.6 353.792187)">Chunk</text>
   </g>
   <g id="text_23">
    <text style="font-size: 10.2px; font-family: 'Microsoft YaHei', 'DejaVu Sans'; text-anchor: middle; fill: #5b6470" x="435.6" y="370.673625" transform="rotate(-0 435.6 370.673625)">(0,2)</text>
   </g>
   <g id="text_24">
    <text style="font-weight: 700; font-size: 12.5px; font-family: 'Microsoft YaHei', 'DejaVu Sans'; text-anchor: middle; fill: #23272e" x="558" y="353.792187" transform="rotate(-0 558 353.792187)">Chunk</text>
   </g>
   <g id="text_25">
    <text style="font-size: 10.2px; font-family: 'Microsoft YaHei', 'DejaVu Sans'; text-anchor: middle; fill: #5b6470" x="558" y="370.673625" transform="rotate(-0 558 370.673625)">(1,2)</text>
   </g>
   <g id="text_26">
    <text style="font-weight: 700; font-size: 12.5px; font-family: 'Microsoft YaHei', 'DejaVu Sans'; text-anchor: middle; fill: #23272e" x="680.4" y="353.792187" transform="rotate(-0 680.4 353.792187)">Chunk</text>
   </g>
   <g id="text_27">
    <text style="font-size: 10.2px; font-family: 'Microsoft YaHei', 'DejaVu Sans'; text-anchor: middle; fill: #5b6470" x="680.4" y="370.673625" transform="rotate(-0 680.4 370.673625)">(2,2)</text>
   </g>
   <g id="text_28">
    <text style="font-weight: 700; font-size: 12.5px; font-family: 'Microsoft YaHei', 'DejaVu Sans'; text-anchor: middle; fill: #23272e" x="558" y="454.592187" transform="rotate(-0 558 454.592187)">ChunkIndex</text>
   </g>
   <g id="text_29">
    <text style="font-size: 10.2px; font-family: 'Microsoft YaHei', 'DejaVu Sans'; text-anchor: middle; fill: #5b6470" x="558" y="471.473625" transform="rotate(-0 558 471.473625)">Dictionary&lt;ChunkCoord, Chunk&gt;</text>
   </g>
   <g id="text_30">
    <text style="font-weight: 700; font-size: 12.5px; font-family: 'Microsoft YaHei', 'DejaVu Sans'; text-anchor: middle; fill: #23272e" x="900" y="205.832188" transform="rotate(-0 900 205.832188)">Cell</text>
   </g>
   <g id="text_31">
    <text style="font-weight: 700; font-size: 12.5px; font-family: 'Microsoft YaHei', 'DejaVu Sans'; text-anchor: middle; fill: #23272e" x="943.2" y="335.792187" transform="rotate(-0 943.2 335.792187)">CellData</text>
   </g>
   <g id="text_32">
    <text style="font-size: 10.2px; font-family: 'Microsoft YaHei', 'DejaVu Sans'; text-anchor: middle; fill: #5b6470" x="943.2" y="352.614656" transform="rotate(-0 943.2 352.614656)">EntityList / Density</text>
   </g>
   <g id="text_33">
    <text style="font-weight: 700; font-size: 12.5px; font-family: 'Microsoft YaHei', 'DejaVu Sans'; text-anchor: middle; fill: #23272e" x="1260" y="202.909219" transform="rotate(-0 1260 202.909219)">Entity</text>
   </g>
   <g id="text_34">
    <text style="font-size: 10.2px; font-family: 'Microsoft YaHei', 'DejaVu Sans'; text-anchor: middle; fill: #5b6470" x="1260" y="219.833625" transform="rotate(-0 1260 219.833625)">WorldPositionCm</text>
   </g>
   <g id="text_35">
    <text style="font-size: 10.2px; font-family: 'Microsoft YaHei', 'DejaVu Sans'; text-anchor: middle; fill: #5b6470" x="1260" y="233.513625" transform="rotate(-0 1260 233.513625)">SpatialBounds</text>
   </g>
   <g id="text_36">
    <text style="font-weight: 700; font-size: 12.5px; font-family: 'Microsoft YaHei', 'DejaVu Sans'; text-anchor: middle; fill: #23272e" x="1260" y="346.592187" transform="rotate(-0 1260 346.592187)">Components</text>
   </g>
   <g id="text_37">
    <text style="font-size: 10.2px; font-family: 'Microsoft YaHei', 'DejaVu Sans'; text-anchor: middle; fill: #5b6470" x="1260" y="363.473625" transform="rotate(-0 1260 363.473625)">Spatial / Physics / Vision</text>
   </g>
   <g id="text_38">
    <text style="font-weight: 700; font-size: 12.5px; font-family: 'Microsoft YaHei', 'DejaVu Sans'; text-anchor: middle; fill: #23272e" x="165.6" y="702.992188" transform="rotate(-0 165.6 702.992188)">1 · QueryRadius</text>
   </g>
   <g id="text_39">
    <text style="font-size: 10.2px; font-family: 'Microsoft YaHei', 'DejaVu Sans'; text-anchor: middle; fill: #5b6470" x="165.6" y="719.873625" transform="rotate(-0 165.6 719.873625)">(center, radius)</text>
   </g>
   <g id="text_40">
    <text style="font-weight: 700; font-size: 12.5px; font-family: 'Microsoft YaHei', 'DejaVu Sans'; text-anchor: middle; fill: #23272e" x="439.2" y="702.992188" transform="rotate(-0 439.2 702.992188)">2 · WorldToChunk</text>
   </g>
   <g id="text_41">
    <text style="font-size: 10.2px; font-family: 'Microsoft YaHei', 'DejaVu Sans'; text-anchor: middle; fill: #5b6470" x="439.2" y="719.873625" transform="rotate(-0 439.2 719.873625)">Coords(center)</text>
   </g>
   <g id="text_42">
    <text style="font-weight: 700; font-size: 12.5px; font-family: 'Microsoft YaHei', 'DejaVu Sans'; text-anchor: middle; fill: #23272e" x="712.8" y="709.832187" transform="rotate(-0 712.8 709.832187)">3 · SelectOverlapping Chunks</text>
   </g>
   <g id="text_43">
    <text style="font-weight: 700; font-size: 12.5px; font-family: 'Microsoft YaHei', 'DejaVu Sans'; text-anchor: middle; fill: #23272e" x="986.4" y="709.832187" transform="rotate(-0 986.4 709.832187)">4 · CellToEntity Filter</text>
   </g>
   <g id="text_44">
    <text style="font-weight: 700; font-size: 12.5px; font-family: 'Microsoft YaHei', 'DejaVu Sans'; text-anchor: middle; fill: #23272e" x="1260" y="709.832187" transform="rotate(-0 1260 709.832187)">5 · Return Results</text>
   </g>
   <g id="line2d_1">
    <path d="M 331.2 324
L 352.8 324
" clip-path="url(#p0d9d27d8e0)" style="fill: none; stroke: #8a94a3; stroke-width: 1.2; stroke-linecap: round"/>
   </g>
   <g id="line2d_2">
    <path d="M 352.8 324
L 345.6 324
" clip-path="url(#p0d9d27d8e0)" style="fill: none; stroke: #8a94a3; stroke-width: 1.2; stroke-linecap: round"/>
   </g>
   <g id="line2d_3">
    <path d="M 345.6 324
L 345.6 324
" clip-path="url(#p0d9d27d8e0)" style="fill: none; stroke: #8a94a3; stroke-width: 1.2; stroke-linecap: round"/>
   </g>
   <g id="line2d_4">
    <path d="M 345.6 324
L 338.4 324
" clip-path="url(#p0d9d27d8e0)" style="fill: none; stroke: #8a94a3; stroke-width: 1.2; stroke-linecap: round"/>
   </g>
   <g id="line2d_5">
    <path d="M 338.4 324
L 360 324
" clip-path="url(#p0d9d27d8e0)" style="fill: none; stroke: #8a94a3; stroke-width: 1.2; stroke-linecap: round"/>
   </g>
   <g id="line2d_6">
    <path d="M 763.2 324
L 784.8 324
" clip-path="url(#p0d9d27d8e0)" style="fill: none; stroke: #8a94a3; stroke-width: 1.2; stroke-linecap: round"/>
   </g>
   <g id="line2d_7">
    <path d="M 784.8 324
L 777.6 324
" clip-path="url(#p0d9d27d8e0)" style="fill: none; stroke: #8a94a3; stroke-width: 1.2; stroke-linecap: round"/>
   </g>
   <g id="line2d_8">
    <path d="M 777.6 324
L 777.6 324
" clip-path="url(#p0d9d27d8e0)" style="fill: none; stroke: #8a94a3; stroke-width: 1.2; stroke-linecap: round"/>
   </g>
   <g id="line2d_9">
    <path d="M 777.6 324
L 770.4 324
" clip-path="url(#p0d9d27d8e0)" style="fill: none; stroke: #8a94a3; stroke-width: 1.2; stroke-linecap: round"/>
   </g>
   <g id="line2d_10">
    <path d="M 770.4 324
L 792 324
" clip-path="url(#p0d9d27d8e0)" style="fill: none; stroke: #8a94a3; stroke-width: 1.2; stroke-linecap: round"/>
   </g>
   <g id="line2d_11">
    <path d="M 1094.4 324
L 1116 324
" clip-path="url(#p0d9d27d8e0)" style="fill: none; stroke: #8a94a3; stroke-width: 1.2; stroke-linecap: round"/>
   </g>
   <g id="line2d_12">
    <path d="M 1116 324
L 1108.8 324
" clip-path="url(#p0d9d27d8e0)" style="fill: none; stroke: #8a94a3; stroke-width: 1.2; stroke-linecap: round"/>
   </g>
   <g id="line2d_13">
    <path d="M 1108.8 324
L 1108.8 324
" clip-path="url(#p0d9d27d8e0)" style="fill: none; stroke: #8a94a3; stroke-width: 1.2; stroke-linecap: round"/>
   </g>
   <g id="line2d_14">
    <path d="M 1108.8 324
L 1101.6 324
" clip-path="url(#p0d9d27d8e0)" style="fill: none; stroke: #8a94a3; stroke-width: 1.2; stroke-linecap: round"/>
   </g>
   <g id="line2d_15">
    <path d="M 1101.6 324
L 1123.2 324
" clip-path="url(#p0d9d27d8e0)" style="fill: none; stroke: #8a94a3; stroke-width: 1.2; stroke-linecap: round"/>
   </g>
   <g id="line2d_16">
    <path d="M 900 237.6
L 900 259.2
" clip-path="url(#p0d9d27d8e0)" style="fill: none; stroke: #8a94a3; stroke-width: 1.2; stroke-linecap: round"/>
   </g>
   <g id="line2d_17">
    <path d="M 900 259.2
L 900 270
" clip-path="url(#p0d9d27d8e0)" style="fill: none; stroke: #8a94a3; stroke-width: 1.2; stroke-linecap: round"/>
   </g>
   <g id="line2d_18">
    <path d="M 900 270
L 943.2 270
" clip-path="url(#p0d9d27d8e0)" style="fill: none; stroke: #8a94a3; stroke-width: 1.2; stroke-linecap: round"/>
   </g>
   <g id="line2d_19">
    <path d="M 943.2 270
L 943.2 280.8
" clip-path="url(#p0d9d27d8e0)" style="fill: none; stroke: #8a94a3; stroke-width: 1.2; stroke-linecap: round"/>
   </g>
   <g id="line2d_20">
    <path d="M 943.2 280.8
L 943.2 302.4
" clip-path="url(#p0d9d27d8e0)" style="fill: none; stroke: #8a94a3; stroke-width: 1.2; stroke-linecap: round"/>
   </g>
   <g id="line2d_21">
    <path d="M 273.6 709.2
L 295.2 709.2
" clip-path="url(#p0d9d27d8e0)" style="fill: none; stroke: #8a94a3; stroke-width: 1.2; stroke-linecap: round"/>
   </g>
   <g id="line2d_22">
    <path d="M 295.2 709.2
L 302.4 709.2
" clip-path="url(#p0d9d27d8e0)" style="fill: none; stroke: #8a94a3; stroke-width: 1.2; stroke-linecap: round"/>
   </g>
   <g id="line2d_23">
    <path d="M 302.4 709.2
L 302.4 709.2
" clip-path="url(#p0d9d27d8e0)" style="fill: none; stroke: #8a94a3; stroke-width: 1.2; stroke-linecap: round"/>
   </g>
   <g id="line2d_24">
    <path d="M 302.4 709.2
L 309.6 709.2
" clip-path="url(#p0d9d27d8e0)" style="fill: none; stroke: #8a94a3; stroke-width: 1.2; stroke-linecap: round"/>
   </g>
   <g id="line2d_25">
    <path d="M 309.6 709.2
L 331.2 709.2
" clip-path="url(#p0d9d27d8e0)" style="fill: none; stroke: #8a94a3; stroke-width: 1.2; stroke-linecap: round"/>
   </g>
   <g id="line2d_26">
    <path d="M 547.2 709.2
L 568.8 709.2
" clip-path="url(#p0d9d27d8e0)" style="fill: none; stroke: #8a94a3; stroke-width: 1.2; stroke-linecap: round"/>
   </g>
   <g id="line2d_27">
    <path d="M 568.8 709.2
L 576 709.2
" clip-path="url(#p0d9d27d8e0)" style="fill: none; stroke: #8a94a3; stroke-width: 1.2; stroke-linecap: round"/>
   </g>
   <g id="line2d_28">
    <path d="M 576 709.2
L 576 709.2
" clip-path="url(#p0d9d27d8e0)" style="fill: none; stroke: #8a94a3; stroke-width: 1.2; stroke-linecap: round"/>
   </g>
   <g id="line2d_29">
    <path d="M 576 709.2
L 583.2 709.2
" clip-path="url(#p0d9d27d8e0)" style="fill: none; stroke: #8a94a3; stroke-width: 1.2; stroke-linecap: round"/>
   </g>
   <g id="line2d_30">
    <path d="M 583.2 709.2
L 604.8 709.2
" clip-path="url(#p0d9d27d8e0)" style="fill: none; stroke: #8a94a3; stroke-width: 1.2; stroke-linecap: round"/>
   </g>
   <g id="line2d_31">
    <path d="M 820.8 709.2
L 842.4 709.2
" clip-path="url(#p0d9d27d8e0)" style="fill: none; stroke: #8a94a3; stroke-width: 1.2; stroke-linecap: round"/>
   </g>
   <g id="line2d_32">
    <path d="M 842.4 709.2
L 849.6 709.2
" clip-path="url(#p0d9d27d8e0)" style="fill: none; stroke: #8a94a3; stroke-width: 1.2; stroke-linecap: round"/>
   </g>
   <g id="line2d_33">
    <path d="M 849.6 709.2
L 849.6 709.2
" clip-path="url(#p0d9d27d8e0)" style="fill: none; stroke: #8a94a3; stroke-width: 1.2; stroke-linecap: round"/>
   </g>
   <g id="line2d_34">
    <path d="M 849.6 709.2
L 856.8 709.2
" clip-path="url(#p0d9d27d8e0)" style="fill: none; stroke: #8a94a3; stroke-width: 1.2; stroke-linecap: round"/>
   </g>
   <g id="line2d_35">
    <path d="M 856.8 709.2
L 878.4 709.2
" clip-path="url(#p0d9d27d8e0)" style="fill: none; stroke: #8a94a3; stroke-width: 1.2; stroke-linecap: round"/>
   </g>
   <g id="line2d_36">
    <path d="M 1094.4 709.2
L 1116 709.2
" clip-path="url(#p0d9d27d8e0)" style="fill: none; stroke: #8a94a3; stroke-width: 1.2; stroke-linecap: round"/>
   </g>
   <g id="line2d_37">
    <path d="M 1116 709.2
L 1123.2 709.2
" clip-path="url(#p0d9d27d8e0)" style="fill: none; stroke: #8a94a3; stroke-width: 1.2; stroke-linecap: round"/>
   </g>
   <g id="line2d_38">
    <path d="M 1123.2 709.2
L 1123.2 709.2
" clip-path="url(#p0d9d27d8e0)" style="fill: none; stroke: #8a94a3; stroke-width: 1.2; stroke-linecap: round"/>
   </g>
   <g id="line2d_39">
    <path d="M 1123.2 709.2
L 1130.4 709.2
" clip-path="url(#p0d9d27d8e0)" style="fill: none; stroke: #8a94a3; stroke-width: 1.2; stroke-linecap: round"/>
   </g>
   <g id="line2d_40">
    <path d="M 1130.4 709.2
L 1152 709.2
" clip-path="url(#p0d9d27d8e0)" style="fill: none; stroke: #8a94a3; stroke-width: 1.2; stroke-linecap: round"/>
   </g>
   <g id="patch_28">
    <path d="M 340.40127 324
Q 349.202994 324 358.004719 324
" clip-path="url(#p0d9d27d8e0)" style="fill: none"/>
    <path d="M 353.204719 321.6
L 358.004719 324
L 353.204719 326.4
z
" clip-path="url(#p0d9d27d8e0)" style="fill: #8a94a3"/>
   </g>
   <g id="patch_29">
    <path d="M 772.40127 324
Q 781.202994 324 790.004719 324
" clip-path="url(#p0d9d27d8e0)" style="fill: none"/>
    <path d="M 785.204719 321.6
L 790.004719 324
L 785.204719 326.4
z
" clip-path="url(#p0d9d27d8e0)" style="fill: #8a94a3"/>
   </g>
   <g id="patch_30">
    <path d="M 1103.60127 324
Q 1112.402994 324 1121.204719 324
" clip-path="url(#p0d9d27d8e0)" style="fill: none"/>
    <path d="M 1116.404719 321.6
L 1121.204719 324
L 1116.404719 326.4
z
" clip-path="url(#p0d9d27d8e0)" style="fill: #8a94a3"/>
   </g>
   <g id="patch_31">
    <path d="M 943.2 282.80127
Q 943.2 291.602994 943.2 300.404719
" clip-path="url(#p0d9d27d8e0)" style="fill: none"/>
    <path d="M 945.6 295.604719
L 943.2 300.404719
L 940.8 295.604719
z
" clip-path="url(#p0d9d27d8e0)" style="fill: #8a94a3"/>
   </g>
   <g id="patch_32">
    <path d="M 311.60127 709.2
Q 320.402994 709.2 329.204719 709.2
" clip-path="url(#p0d9d27d8e0)" style="fill: none"/>
    <path d="M 324.404719 706.8
L 329.204719 709.2
L 324.404719 711.6
z
" clip-path="url(#p0d9d27d8e0)" style="fill: #8a94a3"/>
   </g>
   <g id="patch_33">
    <path d="M 585.20127 709.2
Q 594.002994 709.2 602.804719 709.2
" clip-path="url(#p0d9d27d8e0)" style="fill: none"/>
    <path d="M 598.004719 706.8
L 602.804719 709.2
L 598.004719 711.6
z
" clip-path="url(#p0d9d27d8e0)" style="fill: #8a94a3"/>
   </g>
   <g id="patch_34">
    <path d="M 858.80127 709.2
Q 867.602994 709.2 876.404719 709.2
" clip-path="url(#p0d9d27d8e0)" style="fill: none"/>
    <path d="M 871.604719 706.8
L 876.404719 709.2
L 871.604719 711.6
z
" clip-path="url(#p0d9d27d8e0)" style="fill: #8a94a3"/>
   </g>
   <g id="patch_35">
    <path d="M 1132.40127 709.2
Q 1141.202994 709.2 1150.004719 709.2
" clip-path="url(#p0d9d27d8e0)" style="fill: none"/>
    <path d="M 1145.204719 706.8
L 1150.004719 709.2
L 1145.204719 711.6
z
" clip-path="url(#p0d9d27d8e0)" style="fill: #8a94a3"/>
   </g>
   <g id="text_45">
    <text style="font-weight: 700; font-size: 20px; font-family: 'Microsoft YaHei', 'DejaVu Sans'; text-anchor: middle; fill: #181b20" x="712.8" y="40.4675" transform="rotate(-0 712.8 40.4675)">ChunkedGrid Spatial Partition - Architecture</text>
   </g>
   <g id="text_46">
    <text style="font-size: 12px; font-family: 'Microsoft YaHei', 'DejaVu Sans'; text-anchor: middle; fill: #5b6470" x="712.8" y="68.6325" transform="rotate(-0 712.8 68.6325)">World -&gt; Chunk -&gt; Cell -&gt; Entity 4-Level Hierarchy</text>
   </g>
   <g id="text_47">
    <text style="font-size: 9.5px; font-family: 'Microsoft YaHei', 'DejaVu Sans'; text-anchor: start; fill: #8a94a3" x="57.6" y="799.539141" transform="rotate(-0 57.6 799.539141)">1. Accept query params</text>
   </g>
   <g id="text_48">
    <text style="font-size: 9.5px; font-family: 'Microsoft YaHei', 'DejaVu Sans'; text-anchor: start; fill: #8a94a3" x="57.6" y="816.874063" transform="rotate(-0 57.6 816.874063)">Center + Range/Shape</text>
   </g>
   <g id="text_49">
    <text style="font-size: 9.5px; font-family: 'Microsoft YaHei', 'DejaVu Sans'; text-anchor: start; fill: #8a94a3" x="331.2" y="799.594063" transform="rotate(-0 331.2 799.594063)">2. Coordinate transform</text>
   </g>
   <g id="text_50">
    <text style="font-size: 9.5px; font-family: 'Microsoft YaHei', 'DejaVu Sans'; text-anchor: start; fill: #8a94a3" x="331.2" y="816.874063" transform="rotate(-0 331.2 816.874063)">World -&gt; Chunk index</text>
   </g>
   <g id="text_51">
    <text style="font-size: 9.5px; font-family: 'Microsoft YaHei', 'DejaVu Sans'; text-anchor: start; fill: #8a94a3" x="604.8" y="799.594063" transform="rotate(-0 604.8 799.594063)">3. Chunk selection</text>
   </g>
   <g id="text_52">
    <text style="font-size: 9.5px; font-family: 'Microsoft YaHei', 'DejaVu Sans'; text-anchor: start; fill: #8a94a3" x="604.8" y="816.874063" transform="rotate(-0 604.8 816.874063)">AABB overlap test</text>
   </g>
   <g id="text_53">
    <text style="font-size: 9.5px; font-family: 'Microsoft YaHei', 'DejaVu Sans'; text-anchor: start; fill: #8a94a3" x="604.8" y="834.154063" transform="rotate(-0 604.8 834.154063)">Iterate relevant chunks</text>
   </g>
   <g id="text_54">
    <text style="font-size: 9.5px; font-family: 'Microsoft YaHei', 'DejaVu Sans'; text-anchor: start; fill: #8a94a3" x="878.4" y="799.705391" transform="rotate(-0 878.4 799.705391)">4. Cell filtering</text>
   </g>
   <g id="text_55">
    <text style="font-size: 9.5px; font-family: 'Microsoft YaHei', 'DejaVu Sans'; text-anchor: start; fill: #8a94a3" x="878.4" y="816.819141" transform="rotate(-0 878.4 816.819141)">Exact geometry test</text>
   </g>
   <g id="text_56">
    <text style="font-size: 9.5px; font-family: 'Microsoft YaHei', 'DejaVu Sans'; text-anchor: start; fill: #8a94a3" x="878.4" y="834.154063" transform="rotate(-0 878.4 834.154063)">Distance/Angle/Boundary</text>
   </g>
   <g id="text_57">
    <text style="font-size: 9.5px; font-family: 'Microsoft YaHei', 'DejaVu Sans'; text-anchor: start; fill: #8a94a3" x="1152" y="799.594063" transform="rotate(-0 1152 799.594063)">5. Return results</text>
   </g>
   <g id="text_58">
    <text style="font-size: 9.5px; font-family: 'Microsoft YaHei', 'DejaVu Sans'; text-anchor: start; fill: #8a94a3" x="1152" y="816.874063" transform="rotate(-0 1152 816.874063)">EntityId[]</text>
   </g>
   <g id="text_59">
    <text style="font-size: 9.5px; font-family: 'Microsoft YaHei', 'DejaVu Sans'; text-anchor: start; fill: #8a94a3" x="1152" y="834.154063" transform="rotate(-0 1152 834.154063)">Optional distance sort</text>
   </g>
   <g id="text_60">
    <text style="font-size: 9.5px; font-family: 'Microsoft YaHei', 'DejaVu Sans'; text-anchor: start; fill: #8a94a3" x="57.6" y="943.594063" transform="rotate(-0 57.6 943.594063)">Key Tech:</text>
   </g>
   <g id="text_61">
    <text style="font-size: 9.5px; font-family: 'Microsoft YaHei', 'DejaVu Sans'; text-anchor: start; fill: #8a94a3" x="57.6" y="960.874063" transform="rotate(-0 57.6 960.874063)">- Lazy Chunk: empty chunks alloc no memory</text>
   </g>
   <g id="text_62">
    <text style="font-size: 9.5px; font-family: 'Microsoft YaHei', 'DejaVu Sans'; text-anchor: start; fill: #8a94a3" x="57.6" y="978.154063" transform="rotate(-0 57.6 978.154063)">- Auto split: density threshold triggers cell split</text>
   </g>
   <g id="text_63">
    <text style="font-size: 9.5px; font-family: 'Microsoft YaHei', 'DejaVu Sans'; text-anchor: start; fill: #8a94a3" x="57.6" y="995.434062" transform="rotate(-0 57.6 995.434062)">- Thread-safe: reads lock-free, writes chunk-locked</text>
   </g>
  </g>
 </g>
 <defs>
  <clipPath id="p0d9d27d8e0">
   <rect x="0" y="0" width="1425.6" height="1123.2"/>
  </clipPath>
 </defs>
</svg>
