<?xml version="1.0" encoding="utf-8" standalone="no"?>
<!DOCTYPE svg PUBLIC "-//W3C//DTD SVG 1.1//EN"
  "http://www.w3.org/Graphics/SVG/1.1/DTD/svg11.dtd">
<svg xmlns:xlink="http://www.w3.org/1999/xlink" width="1238.4pt" height="957.6pt" viewBox="0 0 1238.4 957.6" xmlns="http://www.w3.org/2000/svg" version="1.1">
 <metadata>
  <rdf:RDF xmlns:dc="http://purl.org/dc/elements/1.1/" xmlns:cc="http://creativecommons.org/ns#" xmlns:rdf="http://www.w3.org/1999/02/22-rdf-syntax-ns#">
   <cc:Work>
    <dc:type rdf:resource="http://purl.org/dc/dcmitype/StillImage"/>
    <dc:date>2026-07-20T06:14:24.230974</dc:date>
    <dc:format>image/svg+xml</dc:format>
    <dc:creator>
     <cc:Agent>
      <dc:title>Matplotlib v3.10.9, https://matplotlib.org/</dc:title>
     </cc:Agent>
    </dc:creator>
   </cc:Work>
  </rdf:RDF>
 </metadata>
 <defs>
  <style type="text/css">*{stroke-linejoin: round; stroke-linecap: butt}</style>
 </defs>
 <g id="figure_1">
  <g id="patch_1">
   <path d="M 0 957.6
L 1238.4 957.6
L 1238.4 0
L 0 0
z
" style="fill: #ffffff"/>
  </g>
  <g id="axes_1">
   <g id="patch_2">
    <path d="M 514.08 835.2
L 868.32 835.2
Q 878.4 835.2 878.4 845.28
L 878.4 918.72
Q 878.4 928.8 868.32 928.8
L 514.08 928.8
Q 504 928.8 504 918.72
L 504 845.28
Q 504 835.2 514.08 835.2
z
" clip-path="url(#p265b6f9e93)" style="fill: #eceef0; stroke-dasharray: 6,4; stroke-dashoffset: 0; stroke: #828a92; stroke-linejoin: miter"/>
   </g>
   <g id="text_1">
    <text style="font-weight: 700; font-size: 10.5px; font-family: 'Microsoft YaHei', 'DejaVu Sans'; text-anchor: start; fill: #5b6470" x="515.52" y="850.926328" transform="rotate(-0 515.52 850.926328)">Platform Adapters</text>
   </g>
   <g id="patch_3">
    <path d="M 545.76 381.6
L 836.64 381.6
Q 842.4 381.6 842.4 387.36
L 842.4 534.24
Q 842.4 540 836.64 540
L 545.76 540
Q 540 540 540 534.24
L 540 387.36
Q 540 381.6 545.76 381.6
z
" clip-path="url(#p265b6f9e93)" style="fill: #f3f5f8; stroke: #5b6470; stroke-width: 1.6; stroke-linejoin: miter"/>
   </g>
   <g id="patch_4">
    <path d="M 92.16 392.4
L 296.64 392.4
Q 302.4 392.4 302.4 398.16
L 302.4 494.64
Q 302.4 500.4 296.64 500.4
L 92.16 500.4
Q 86.4 500.4 86.4 494.64
L 86.4 398.16
Q 86.4 392.4 92.16 392.4
z
" clip-path="url(#p265b6f9e93)" style="fill: #edf3ee; stroke: #7fa087; stroke-linejoin: miter"/>
   </g>
   <g id="patch_5">
    <path d="M 401.76 108
L 606.24 108
Q 612 108 612 113.76
L 612 210.24
Q 612 216 606.24 216
L 401.76 216
Q 396 216 396 210.24
L 396 113.76
Q 396 108 401.76 108
z
" clip-path="url(#p265b6f9e93)" style="fill: #e9eff5; stroke: #7490a8; stroke-linejoin: miter"/>
   </g>
   <g id="patch_6">
    <path d="M 790.56 108
L 995.04 108
Q 1000.8 108 1000.8 113.76
L 1000.8 210.24
Q 1000.8 216 995.04 216
L 790.56 216
Q 784.8 216 784.8 210.24
L 784.8 113.76
Q 784.8 108 790.56 108
z
" clip-path="url(#p265b6f9e93)" style="fill: #f0f0ea; stroke: #999a7e; stroke-linejoin: miter"/>
   </g>
   <g id="patch_7">
    <path d="M 956.16 291.6
L 1160.64 291.6
Q 1166.4 291.6 1166.4 297.36
L 1166.4 393.84
Q 1166.4 399.6 1160.64 399.6
L 956.16 399.6
Q 950.4 399.6 950.4 393.84
L 950.4 297.36
Q 950.4 291.6 956.16 291.6
z
" clip-path="url(#p265b6f9e93)" style="fill: #f5f0e8; stroke: #b39b7d; stroke-linejoin: miter"/>
   </g>
   <g id="patch_8">
    <path d="M 92.16 522
L 296.64 522
Q 302.4 522 302.4 527.76
L 302.4 624.24
Q 302.4 630 296.64 630
L 92.16 630
Q 86.4 630 86.4 624.24
L 86.4 527.76
Q 86.4 522 92.16 522
z
" clip-path="url(#p265b6f9e93)" style="fill: #f1edf3; stroke: #9d8ba8; stroke-linejoin: miter"/>
   </g>
   <g id="patch_9">
    <path d="M 956.16 522
L 1160.64 522
Q 1166.4 522 1166.4 527.76
L 1166.4 624.24
Q 1166.4 630 1160.64 630
L 956.16 630
Q 950.4 630 950.4 624.24
L 950.4 527.76
Q 950.4 522 956.16 522
z
" clip-path="url(#p265b6f9e93)" style="fill: #f4ede9; stroke: #b08d7f; stroke-linejoin: miter"/>
   </g>
   <g id="patch_10">
    <path d="M 401.76 705.6
L 606.24 705.6
Q 612 705.6 612 711.36
L 612 807.84
Q 612 813.6 606.24 813.6
L 401.76 813.6
Q 396 813.6 396 807.84
L 396 711.36
Q 396 705.6 401.76 705.6
z
" clip-path="url(#p265b6f9e93)" style="fill: #ebeef2; stroke: #7d8ba0; stroke-linejoin: miter"/>
   </g>
   <g id="patch_11">
    <path d="M 790.56 705.6
L 995.04 705.6
Q 1000.8 705.6 1000.8 711.36
L 1000.8 807.84
Q 1000.8 813.6 995.04 813.6
L 790.56 813.6
Q 784.8 813.6 784.8 807.84
L 784.8 711.36
Q 784.8 705.6 790.56 705.6
z
" clip-path="url(#p265b6f9e93)" style="fill: #eaf2f1; stroke: #76a09c; stroke-linejoin: miter"/>
   </g>
   <g id="patch_12">
    <path d="M 531.36 869.76
L 620.64 869.76
Q 626.4 869.76 626.4 875.52
L 626.4 904.32
Q 626.4 910.08 620.64 910.08
L 531.36 910.08
Q 525.6 910.08 525.6 904.32
L 525.6 875.52
Q 525.6 869.76 531.36 869.76
z
" clip-path="url(#p265b6f9e93)" style="fill: #eceef0; stroke: #828a92; stroke-linejoin: miter"/>
   </g>
   <g id="patch_13">
    <path d="M 646.56 869.76
L 735.84 869.76
Q 741.6 869.76 741.6 875.52
L 741.6 904.32
Q 741.6 910.08 735.84 910.08
L 646.56 910.08
Q 640.8 910.08 640.8 904.32
L 640.8 875.52
Q 640.8 869.76 646.56 869.76
z
" clip-path="url(#p265b6f9e93)" style="fill: #eceef0; stroke: #828a92; stroke-linejoin: miter"/>
   </g>
   <g id="patch_14">
    <path d="M 761.76 869.76
L 851.04 869.76
Q 856.8 869.76 856.8 875.52
L 856.8 904.32
Q 856.8 910.08 851.04 910.08
L 761.76 910.08
Q 756 910.08 756 904.32
L 756 875.52
Q 756 869.76 761.76 869.76
z
" clip-path="url(#p265b6f9e93)" style="fill: #eceef0; stroke: #828a92; stroke-linejoin: miter"/>
   </g>
   <g id="patch_15">
    <path d="M 568.8 433.8
L 639.84 433.8
Q 644.16 433.8 644.16 438.12
L 644.16 453.96
Q 644.16 458.28 639.84 458.28
L 568.8 458.28
Q 564.48 458.28 564.48 453.96
L 564.48 438.12
Q 564.48 433.8 568.8 433.8
z
" clip-path="url(#p265b6f9e93)" style="fill: #ffffff; stroke: #c9d1da; stroke-width: 0.9; stroke-linejoin: miter"/>
   </g>
   <g id="patch_16">
    <path d="M 655.68 433.8
L 726.72 433.8
Q 731.04 433.8 731.04 438.12
L 731.04 453.96
Q 731.04 458.28 726.72 458.28
L 655.68 458.28
Q 651.36 458.28 651.36 453.96
L 651.36 438.12
Q 651.36 433.8 655.68 433.8
z
" clip-path="url(#p265b6f9e93)" style="fill: #ffffff; stroke: #c9d1da; stroke-width: 0.9; stroke-linejoin: miter"/>
   </g>
   <g id="patch_17">
    <path d="M 742.56 433.8
L 813.6 433.8
Q 817.92 433.8 817.92 438.12
L 817.92 453.96
Q 817.92 458.28 813.6 458.28
L 742.56 458.28
Q 738.24 458.28 738.24 453.96
L 738.24 438.12
Q 738.24 433.8 742.56 433.8
z
" clip-path="url(#p265b6f9e93)" style="fill: #ffffff; stroke: #c9d1da; stroke-width: 0.9; stroke-linejoin: miter"/>
   </g>
   <g id="patch_18">
    <path d="M 568.8 465.48
L 639.84 465.48
Q 644.16 465.48 644.16 469.8
L 644.16 485.64
Q 644.16 489.96 639.84 489.96
L 568.8 489.96
Q 564.48 489.96 564.48 485.64
L 564.48 469.8
Q 564.48 465.48 568.8 465.48
z
" clip-path="url(#p265b6f9e93)" style="fill: #ffffff; stroke: #c9d1da; stroke-width: 0.9; stroke-linejoin: miter"/>
   </g>
   <g id="patch_19">
    <path d="M 655.68 465.48
L 726.72 465.48
Q 731.04 465.48 731.04 469.8
L 731.04 485.64
Q 731.04 489.96 726.72 489.96
L 655.68 489.96
Q 651.36 489.96 651.36 485.64
L 651.36 469.8
Q 651.36 465.48 655.68 465.48
z
" clip-path="url(#p265b6f9e93)" style="fill: #ffffff; stroke: #c9d1da; stroke-width: 0.9; stroke-linejoin: miter"/>
   </g>
   <g id="patch_20">
    <path d="M 742.56 465.48
L 813.6 465.48
Q 817.92 465.48 817.92 469.8
L 817.92 485.64
Q 817.92 489.96 813.6 489.96
L 742.56 489.96
Q 738.24 489.96 738.24 485.64
L 738.24 469.8
Q 738.24 465.48 742.56 465.48
z
" clip-path="url(#p265b6f9e93)" style="fill: #ffffff; stroke: #c9d1da; stroke-width: 0.9; stroke-linejoin: miter"/>
   </g>
   <g id="text_2">
    <text style="font-weight: 700; font-size: 12.5px; font-family: 'Microsoft YaHei', 'DejaVu Sans'; text-anchor: middle; fill: #23272e" x="691.2" y="420.709219" transform="rotate(-0 691.2 420.709219)">GameEngine</text>
   </g>
   <g id="text_3">
    <text style="font-size: 10px; font-family: 'Microsoft YaHei', 'DejaVu Sans'; text-anchor: middle; fill: #3a4149" x="604.32" y="448.793906" transform="rotate(-0 604.32 448.793906)">Tick</text>
   </g>
   <g id="text_4">
    <text style="font-size: 10px; font-family: 'Microsoft YaHei', 'DejaVu Sans'; text-anchor: middle; fill: #3a4149" x="691.2" y="448.793906" transform="rotate(-0 691.2 448.793906)">Pacemaker</text>
   </g>
   <g id="text_5">
    <text style="font-size: 10px; font-family: 'Microsoft YaHei', 'DejaVu Sans'; text-anchor: middle; fill: #3a4149" x="778.08" y="448.793906" transform="rotate(-0 778.08 448.793906)">World</text>
   </g>
   <g id="text_6">
    <text style="font-size: 10px; font-family: 'Microsoft YaHei', 'DejaVu Sans'; text-anchor: middle; fill: #3a4149" x="604.32" y="480.473906" transform="rotate(-0 604.32 480.473906)">TimeFlow</text>
   </g>
   <g id="text_7">
    <text style="font-size: 10px; font-family: 'Microsoft YaHei', 'DejaVu Sans'; text-anchor: middle; fill: #3a4149" x="691.2" y="480.473906" transform="rotate(-0 691.2 480.473906)">Session</text>
   </g>
   <g id="text_8">
    <text style="font-size: 10px; font-family: 'Microsoft YaHei', 'DejaVu Sans'; text-anchor: middle; fill: #3a4149" x="778.08" y="480.503594" transform="rotate(-0 778.08 480.503594)">Config</text>
   </g>
   <g id="text_9">
    <text style="font-size: 10.2px; font-family: 'Microsoft YaHei', 'DejaVu Sans'; text-anchor: middle; fill: #5b6470" x="691.2" y="505.313625" transform="rotate(-0 691.2 505.313625)">Deterministic tick loop · Everything-is-Mod</text>
   </g>
   <g id="text_10">
    <text style="font-weight: 700; font-size: 12.5px; font-family: 'Microsoft YaHei', 'DejaVu Sans'; text-anchor: middle; fill: #23272e" x="194.4" y="433.352188" transform="rotate(-0 194.4 433.352188)">GAS</text>
   </g>
   <g id="text_11">
    <text style="font-size: 10.2px; font-family: 'Microsoft YaHei', 'DejaVu Sans'; text-anchor: middle; fill: #5b6470" x="194.4" y="450.353156" transform="rotate(-0 194.4 450.353156)">Ability · Effect · Attribute</text>
   </g>
   <g id="text_12">
    <text style="font-size: 10.2px; font-family: 'Microsoft YaHei', 'DejaVu Sans'; text-anchor: middle; fill: #5b6470" x="194.4" y="463.854656" transform="rotate(-0 194.4 463.854656)">Tag · Cue · Target</text>
   </g>
   <g id="text_13">
    <text style="font-weight: 700; font-size: 12.5px; font-family: 'Microsoft YaHei', 'DejaVu Sans'; text-anchor: middle; fill: #23272e" x="504" y="148.909219" transform="rotate(-0 504 148.909219)">Navigation</text>
   </g>
   <g id="text_14">
    <text style="font-size: 10.2px; font-family: 'Microsoft YaHei', 'DejaVu Sans'; text-anchor: middle; fill: #5b6470" x="504" y="165.953156" transform="rotate(-0 504 165.953156)">NavMesh · Pathfinding</text>
   </g>
   <g id="text_15">
    <text style="font-size: 10.2px; font-family: 'Microsoft YaHei', 'DejaVu Sans'; text-anchor: middle; fill: #5b6470" x="504" y="179.513625" transform="rotate(-0 504 179.513625)">MassNav · Avoidance</text>
   </g>
   <g id="text_16">
    <text style="font-weight: 700; font-size: 12.5px; font-family: 'Microsoft YaHei', 'DejaVu Sans'; text-anchor: middle; fill: #23272e" x="892.8" y="148.952188" transform="rotate(-0 892.8 148.952188)">Spatial / Physics</text>
   </g>
   <g id="text_17">
    <text style="font-size: 10.2px; font-family: 'Microsoft YaHei', 'DejaVu Sans'; text-anchor: middle; fill: #5b6470" x="892.8" y="165.833625" transform="rotate(-0 892.8 165.833625)">SpatialQuery · Physics2D</text>
   </g>
   <g id="text_18">
    <text style="font-size: 10.2px; font-family: 'Microsoft YaHei', 'DejaVu Sans'; text-anchor: middle; fill: #5b6470" x="892.8" y="179.513625" transform="rotate(-0 892.8 179.513625)">Terrain · ChunkedGrid</text>
   </g>
   <g id="text_19">
    <text style="font-weight: 700; font-size: 12.5px; font-family: 'Microsoft YaHei', 'DejaVu Sans'; text-anchor: middle; fill: #23272e" x="1058.4" y="332.552188" transform="rotate(-0 1058.4 332.552188)">Presentation</text>
   </g>
   <g id="text_20">
    <text style="font-size: 10.2px; font-family: 'Microsoft YaHei', 'DejaVu Sans'; text-anchor: middle; fill: #5b6470" x="1058.4" y="349.433625" transform="rotate(-0 1058.4 349.433625)">Performer · Visual · HUD</text>
   </g>
   <g id="text_21">
    <text style="font-size: 10.2px; font-family: 'Microsoft YaHei', 'DejaVu Sans'; text-anchor: middle; fill: #5b6470" x="1058.4" y="363.113625" transform="rotate(-0 1058.4 363.113625)">Primitive · Animation</text>
   </g>
   <g id="text_22">
    <text style="font-weight: 700; font-size: 12.5px; font-family: 'Microsoft YaHei', 'DejaVu Sans'; text-anchor: middle; fill: #23272e" x="194.4" y="562.952188" transform="rotate(-0 194.4 562.952188)">Input</text>
   </g>
   <g id="text_23">
    <text style="font-size: 10.2px; font-family: 'Microsoft YaHei', 'DejaVu Sans'; text-anchor: middle; fill: #5b6470" x="194.4" y="579.833625" transform="rotate(-0 194.4 579.833625)">InputRuntime · Order</text>
   </g>
   <g id="text_24">
    <text style="font-size: 10.2px; font-family: 'Microsoft YaHei', 'DejaVu Sans'; text-anchor: middle; fill: #5b6470" x="194.4" y="593.513625" transform="rotate(-0 194.4 593.513625)">Selection · Interaction</text>
   </g>
   <g id="text_25">
    <text style="font-weight: 700; font-size: 12.5px; font-family: 'Microsoft YaHei', 'DejaVu Sans'; text-anchor: middle; fill: #23272e" x="1058.4" y="562.952188" transform="rotate(-0 1058.4 562.952188)">Modding</text>
   </g>
   <g id="text_26">
    <text style="font-size: 10.2px; font-family: 'Microsoft YaHei', 'DejaVu Sans'; text-anchor: middle; fill: #5b6470" x="1058.4" y="579.833625" transform="rotate(-0 1058.4 579.833625)">ModLoader · VFS · ALC</text>
   </g>
   <g id="text_27">
    <text style="font-size: 10.2px; font-family: 'Microsoft YaHei', 'DejaVu Sans'; text-anchor: middle; fill: #5b6470" x="1058.4" y="593.633156" transform="rotate(-0 1058.4 593.633156)">ConfigPipeline · Registry</text>
   </g>
   <g id="text_28">
    <text style="font-weight: 700; font-size: 12.5px; font-family: 'Microsoft YaHei', 'DejaVu Sans'; text-anchor: middle; fill: #23272e" x="504" y="746.552188" transform="rotate(-0 504 746.552188)">ECS / Data</text>
   </g>
   <g id="text_29">
    <text style="font-size: 10.2px; font-family: 'Microsoft YaHei', 'DejaVu Sans'; text-anchor: middle; fill: #5b6470" x="504" y="763.433625" transform="rotate(-0 504 763.433625)">World · Entity · Component</text>
   </g>
   <g id="text_30">
    <text style="font-size: 10.2px; font-family: 'Microsoft YaHei', 'DejaVu Sans'; text-anchor: middle; fill: #5b6470" x="504" y="777.113625" transform="rotate(-0 504 777.113625)">Chunk · Query · Template</text>
   </g>
   <g id="text_31">
    <text style="font-weight: 700; font-size: 12.5px; font-family: 'Microsoft YaHei', 'DejaVu Sans'; text-anchor: middle; fill: #23272e" x="892.8" y="746.552188" transform="rotate(-0 892.8 746.552188)">Scripting / Graph</text>
   </g>
   <g id="text_32">
    <text style="font-size: 10.2px; font-family: 'Microsoft YaHei', 'DejaVu Sans'; text-anchor: middle; fill: #5b6470" x="892.8" y="763.433625" transform="rotate(-0 892.8 763.433625)">GraphRuntime · VM</text>
   </g>
   <g id="text_33">
    <text style="font-size: 10.2px; font-family: 'Microsoft YaHei', 'DejaVu Sans'; text-anchor: middle; fill: #5b6470" x="892.8" y="777.113625" transform="rotate(-0 892.8 777.113625)">Compiler · OpCode</text>
   </g>
   <g id="text_34">
    <text style="font-weight: 700; font-size: 12.5px; font-family: 'Microsoft YaHei', 'DejaVu Sans'; text-anchor: middle; fill: #23272e" x="576" y="890.552188" transform="rotate(-0 576 890.552188)">Raylib</text>
   </g>
   <g id="text_35">
    <text style="font-weight: 700; font-size: 12.5px; font-family: 'Microsoft YaHei', 'DejaVu Sans'; text-anchor: middle; fill: #23272e" x="691.2" y="890.552188" transform="rotate(-0 691.2 890.552188)">Web</text>
   </g>
   <g id="text_36">
    <text style="font-weight: 700; font-size: 12.5px; font-family: 'Microsoft YaHei', 'DejaVu Sans'; text-anchor: middle; fill: #23272e" x="806.4" y="890.552188" transform="rotate(-0 806.4 890.552188)">UE5</text>
   </g>
   <g id="line2d_1">
    <path d="M 540 456.417391
L 302.4 449.530435
" clip-path="url(#p265b6f9e93)" style="fill: none; stroke: #8a94a3; stroke-width: 1.2; stroke-linecap: round"/>
   </g>
   <g id="line2d_2">
    <path d="M 641.580723 381.6
L 537.831325 216
" clip-path="url(#p265b6f9e93)" style="fill: none; stroke: #8a94a3; stroke-width: 1.2; stroke-linecap: round"/>
   </g>
   <g id="line2d_3">
    <path d="M 744.636145 381.6
L 856.366265 216
" clip-path="url(#p265b6f9e93)" style="fill: none; stroke: #8a94a3; stroke-width: 1.2; stroke-linecap: round"/>
   </g>
   <g id="line2d_4">
    <path d="M 842.4 413.364706
L 950.4 379.482353
" clip-path="url(#p265b6f9e93)" style="fill: none; stroke: #8a94a3; stroke-width: 1.2; stroke-linecap: round"/>
   </g>
   <g id="line2d_5">
    <path d="M 540 495.86087
L 302.4 550.956522
" clip-path="url(#p265b6f9e93)" style="fill: none; stroke: #8a94a3; stroke-width: 1.2; stroke-linecap: round"/>
   </g>
   <g id="line2d_6">
    <path d="M 842.4 508.235294
L 950.4 542.117647
" clip-path="url(#p265b6f9e93)" style="fill: none; stroke: #8a94a3; stroke-width: 1.2; stroke-linecap: round"/>
   </g>
   <g id="line2d_7">
    <path d="M 641.580723 540
L 537.831325 705.6
" clip-path="url(#p265b6f9e93)" style="fill: none; stroke: #8a94a3; stroke-width: 1.2; stroke-linecap: round"/>
   </g>
   <g id="line2d_8">
    <path d="M 744.636145 540
L 856.366265 705.6
" clip-path="url(#p265b6f9e93)" style="fill: none; stroke: #8a94a3; stroke-width: 1.2; stroke-linecap: round"/>
   </g>
   <g id="line2d_9">
    <path d="M 691.2 540
L 691.2 835.2
" clip-path="url(#p265b6f9e93)" style="fill: none; stroke-dasharray: 6,4.8; stroke-dashoffset: 0; stroke: #8a94a3; stroke-width: 1.2"/>
   </g>
   <g id="text_37">
    <text style="font-weight: 700; font-size: 20px; font-family: 'Microsoft YaHei', 'DejaVu Sans'; text-anchor: middle; fill: #181b20" x="619.2" y="40.4675" transform="rotate(-0 619.2 40.4675)">Ludots Engine Architecture</text>
   </g>
   <g id="text_38">
    <text style="font-size: 12px; font-family: 'Microsoft YaHei', 'DejaVu Sans'; text-anchor: middle; fill: #5b6470" x="619.2" y="68.6325" transform="rotate(-0 619.2 68.6325)">Hexagonal ECS + Everything-is-Mod</text>
   </g>
   <g id="patch_21">
    <path d="M 36 93.6
L 201.6 93.6
Q 208.8 93.6 208.8 100.8
L 208.8 361.44
Q 208.8 368.64 201.6 368.64
L 36 368.64
Q 28.8 368.64 28.8 361.44
L 28.8 100.8
Q 28.8 93.6 36 93.6
z
" clip-path="url(#p265b6f9e93)" style="fill: #ffffff; stroke: #dfe3e9; stroke-linejoin: miter"/>
   </g>
   <g id="text_39">
    <text style="font-weight: 700; font-size: 10.5px; font-family: 'Microsoft YaHei', 'DejaVu Sans'; text-anchor: start; fill: #23272e" x="41.76" y="110.633438" transform="rotate(-0 41.76 110.633438)">Legend</text>
   </g>
   <g id="patch_22">
    <path d="M 45.36 124.2
L 58.32 124.2
Q 61.92 124.2 61.92 127.8
L 61.92 135
Q 61.92 138.6 58.32 138.6
L 45.36 138.6
Q 41.76 138.6 41.76 135
L 41.76 127.8
Q 41.76 124.2 45.36 124.2
z
" clip-path="url(#p265b6f9e93)" style="fill: #f3f5f8; stroke: #5b6470; stroke-linejoin: miter"/>
   </g>
   <g id="text_40">
    <text style="font-size: 10.2px; font-family: 'Microsoft YaHei', 'DejaVu Sans'; text-anchor: start; fill: #3a4149" x="67.68" y="134.150016" transform="rotate(-0 67.68 134.150016)">Core Engine</text>
   </g>
   <g id="patch_23">
    <path d="M 45.36 147.96
L 58.32 147.96
Q 61.92 147.96 61.92 151.56
L 61.92 158.76
Q 61.92 162.36 58.32 162.36
L 45.36 162.36
Q 41.76 162.36 41.76 158.76
L 41.76 151.56
Q 41.76 147.96 45.36 147.96
z
" clip-path="url(#p265b6f9e93)" style="fill: #edf3ee; stroke: #7fa087; stroke-linejoin: miter"/>
   </g>
   <g id="text_41">
    <text style="font-size: 10.2px; font-family: 'Microsoft YaHei', 'DejaVu Sans'; text-anchor: start; fill: #3a4149" x="67.68" y="157.9395" transform="rotate(-0 67.68 157.9395)">Gameplay Ability System</text>
   </g>
   <g id="patch_24">
    <path d="M 45.36 171.72
L 58.32 171.72
Q 61.92 171.72 61.92 175.32
L 61.92 182.52
Q 61.92 186.12 58.32 186.12
L 45.36 186.12
Q 41.76 186.12 41.76 182.52
L 41.76 175.32
Q 41.76 171.72 45.36 171.72
z
" clip-path="url(#p265b6f9e93)" style="fill: #e9eff5; stroke: #7490a8; stroke-linejoin: miter"/>
   </g>
   <g id="text_42">
    <text style="font-size: 10.2px; font-family: 'Microsoft YaHei', 'DejaVu Sans'; text-anchor: start; fill: #3a4149" x="67.68" y="181.759266" transform="rotate(-0 67.68 181.759266)">Navigation &amp; Pathfinding</text>
   </g>
   <g id="patch_25">
    <path d="M 45.36 195.48
L 58.32 195.48
Q 61.92 195.48 61.92 199.08
L 61.92 206.28
Q 61.92 209.88 58.32 209.88
L 45.36 209.88
Q 41.76 209.88 41.76 206.28
L 41.76 199.08
Q 41.76 195.48 45.36 195.48
z
" clip-path="url(#p265b6f9e93)" style="fill: #f0f0ea; stroke: #999a7e; stroke-linejoin: miter"/>
   </g>
   <g id="text_43">
    <text style="font-size: 10.2px; font-family: 'Microsoft YaHei', 'DejaVu Sans'; text-anchor: start; fill: #3a4149" x="67.68" y="205.4595" transform="rotate(-0 67.68 205.4595)">Spatial &amp; Physics</text>
   </g>
   <g id="patch_26">
    <path d="M 45.36 219.24
L 58.32 219.24
Q 61.92 219.24 61.92 222.84
L 61.92 230.04
Q 61.92 233.64 58.32 233.64
L 45.36 233.64
Q 41.76 233.64 41.76 230.04
L 41.76 222.84
Q 41.76 219.24 45.36 219.24
z
" clip-path="url(#p265b6f9e93)" style="fill: #f5f0e8; stroke: #b39b7d; stroke-linejoin: miter"/>
   </g>
   <g id="text_44">
    <text style="font-size: 10.2px; font-family: 'Microsoft YaHei', 'DejaVu Sans'; text-anchor: start; fill: #3a4149" x="67.68" y="229.2195" transform="rotate(-0 67.68 229.2195)">Presentation &amp; Rendering</text>
   </g>
   <g id="patch_27">
    <path d="M 45.36 243
L 58.32 243
Q 61.92 243 61.92 246.6
L 61.92 253.8
Q 61.92 257.4 58.32 257.4
L 45.36 257.4
Q 41.76 257.4 41.76 253.8
L 41.76 246.6
Q 41.76 243 45.36 243
z
" clip-path="url(#p265b6f9e93)" style="fill: #f1edf3; stroke: #9d8ba8; stroke-linejoin: miter"/>
   </g>
   <g id="text_45">
    <text style="font-size: 10.2px; font-family: 'Microsoft YaHei', 'DejaVu Sans'; text-anchor: start; fill: #3a4149" x="67.68" y="253.008984" transform="rotate(-0 67.68 253.008984)">Input &amp; Orders</text>
   </g>
   <g id="patch_28">
    <path d="M 45.36 266.76
L 58.32 266.76
Q 61.92 266.76 61.92 270.36
L 61.92 277.56
Q 61.92 281.16 58.32 281.16
L 45.36 281.16
Q 41.76 281.16 41.76 277.56
L 41.76 270.36
Q 41.76 266.76 45.36 266.76
z
" clip-path="url(#p265b6f9e93)" style="fill: #f4ede9; stroke: #b08d7f; stroke-linejoin: miter"/>
   </g>
   <g id="text_46">
    <text style="font-size: 10.2px; font-family: 'Microsoft YaHei', 'DejaVu Sans'; text-anchor: start; fill: #3a4149" x="67.68" y="276.7395" transform="rotate(-0 67.68 276.7395)">Modding &amp; VFS</text>
   </g>
   <g id="patch_29">
    <path d="M 45.36 290.52
L 58.32 290.52
Q 61.92 290.52 61.92 294.12
L 61.92 301.32
Q 61.92 304.92 58.32 304.92
L 45.36 304.92
Q 41.76 304.92 41.76 301.32
L 41.76 294.12
Q 41.76 290.52 45.36 290.52
z
" clip-path="url(#p265b6f9e93)" style="fill: #ebeef2; stroke: #7d8ba0; stroke-linejoin: miter"/>
   </g>
   <g id="text_47">
    <text style="font-size: 10.2px; font-family: 'Microsoft YaHei', 'DejaVu Sans'; text-anchor: start; fill: #3a4149" x="67.68" y="300.528984" transform="rotate(-0 67.68 300.528984)">ECS &amp; Data Model</text>
   </g>
   <g id="patch_30">
    <path d="M 45.36 314.28
L 58.32 314.28
Q 61.92 314.28 61.92 317.88
L 61.92 325.08
Q 61.92 328.68 58.32 328.68
L 45.36 328.68
Q 41.76 328.68 41.76 325.08
L 41.76 317.88
Q 41.76 314.28 45.36 314.28
z
" clip-path="url(#p265b6f9e93)" style="fill: #eaf2f1; stroke: #76a09c; stroke-linejoin: miter"/>
   </g>
   <g id="text_48">
    <text style="font-size: 10.2px; font-family: 'Microsoft YaHei', 'DejaVu Sans'; text-anchor: start; fill: #3a4149" x="67.68" y="324.2595" transform="rotate(-0 67.68 324.2595)">Scripting &amp; GraphRuntime</text>
   </g>
   <g id="patch_31">
    <path d="M 45.36 338.04
L 58.32 338.04
Q 61.92 338.04 61.92 341.64
L 61.92 348.84
Q 61.92 352.44 58.32 352.44
L 45.36 352.44
Q 41.76 352.44 41.76 348.84
L 41.76 341.64
Q 41.76 338.04 45.36 338.04
z
" clip-path="url(#p265b6f9e93)" style="fill: #eceef0; stroke: #828a92; stroke-linejoin: miter"/>
   </g>
   <g id="text_49">
    <text style="font-size: 10.2px; font-family: 'Microsoft YaHei', 'DejaVu Sans'; text-anchor: start; fill: #3a4149" x="67.68" y="348.10875" transform="rotate(-0 67.68 348.10875)">Platform Adapters</text>
   </g>
  </g>
 </g>
 <defs>
  <clipPath id="p265b6f9e93">
   <rect x="0" y="0" width="1238.4" height="957.6"/>
  </clipPath>
 </defs>
</svg>
