<?xml version="1.0" encoding="utf-8" standalone="no"?>
<!DOCTYPE svg PUBLIC "-//W3C//DTD SVG 1.1//EN"
  "http://www.w3.org/Graphics/SVG/1.1/DTD/svg11.dtd">
<svg xmlns:xlink="http://www.w3.org/1999/xlink" width="1209.6pt" height="993.6pt" viewBox="0 0 1209.6 993.6" xmlns="http://www.w3.org/2000/svg" version="1.1">
 <metadata>
  <rdf:RDF xmlns:dc="http://purl.org/dc/elements/1.1/" xmlns:cc="http://creativecommons.org/ns#" xmlns:rdf="http://www.w3.org/1999/02/22-rdf-syntax-ns#">
   <cc:Work>
    <dc:type rdf:resource="http://purl.org/dc/dcmitype/StillImage"/>
    <dc:date>2026-07-20T06:14:31.779721</dc:date>
    <dc:format>image/svg+xml</dc:format>
    <dc:creator>
     <cc:Agent>
      <dc:title>Matplotlib v3.10.9, https://matplotlib.org/</dc:title>
     </cc:Agent>
    </dc:creator>
   </cc:Work>
  </rdf:RDF>
 </metadata>
 <defs>
  <style type="text/css">*{stroke-linejoin: round; stroke-linecap: butt}</style>
 </defs>
 <g id="figure_1">
  <g id="patch_1">
   <path d="M 0 993.6 
L 1209.6 993.6 
L 1209.6 0 
L 0 0 
z
" style="fill: #ffffff"/>
  </g>
  <g id="axes_1">
   <g id="patch_2">
    <path d="M 218.88 93.6 
L 1170.72 93.6 
Q 1180.8 93.6 1180.8 103.68 
L 1180.8 213.12 
Q 1180.8 223.2 1170.72 223.2 
L 218.88 223.2 
Q 208.8 223.2 208.8 213.12 
L 208.8 103.68 
Q 208.8 93.6 218.88 93.6 
z
" clip-path="url(#p45d653a0f1)" style="fill: #e9eff5; stroke-dasharray: 6,4; stroke-dashoffset: 0; stroke: #7490a8; stroke-linejoin: miter"/>
   </g>
   <g id="patch_3">
    <path d="M 218.88 259.2 
L 1170.72 259.2 
Q 1180.8 259.2 1180.8 269.28 
L 1180.8 378.72 
Q 1180.8 388.8 1170.72 388.8 
L 218.88 388.8 
Q 208.8 388.8 208.8 378.72 
L 208.8 269.28 
Q 208.8 259.2 218.88 259.2 
z
" clip-path="url(#p45d653a0f1)" style="fill: #e9eff5; stroke-dasharray: 6,4; stroke-dashoffset: 0; stroke: #7490a8; stroke-linejoin: miter"/>
   </g>
   <g id="patch_4">
    <path d="M 218.88 424.8 
L 1170.72 424.8 
Q 1180.8 424.8 1180.8 434.88 
L 1180.8 544.32 
Q 1180.8 554.4 1170.72 554.4 
L 218.88 554.4 
Q 208.8 554.4 208.8 544.32 
L 208.8 434.88 
Q 208.8 424.8 218.88 424.8 
z
" clip-path="url(#p45d653a0f1)" style="fill: #e9eff5; stroke-dasharray: 6,4; stroke-dashoffset: 0; stroke: #7490a8; stroke-linejoin: miter"/>
   </g>
   <g id="patch_5">
    <path d="M 218.88 590.4 
L 1170.72 590.4 
Q 1180.8 590.4 1180.8 600.48 
L 1180.8 709.92 
Q 1180.8 720 1170.72 720 
L 218.88 720 
Q 208.8 720 208.8 709.92 
L 208.8 600.48 
Q 208.8 590.4 218.88 590.4 
z
" clip-path="url(#p45d653a0f1)" style="fill: #f4ede9; stroke-dasharray: 6,4; stroke-dashoffset: 0; stroke: #b08d7f; stroke-linejoin: miter"/>
   </g>
   <g id="patch_6">
    <path d="M 218.88 756 
L 1170.72 756 
Q 1180.8 756 1180.8 766.08 
L 1180.8 875.52 
Q 1180.8 885.6 1170.72 885.6 
L 218.88 885.6 
Q 208.8 885.6 208.8 875.52 
L 208.8 766.08 
Q 208.8 756 218.88 756 
z
" clip-path="url(#p45d653a0f1)" style="fill: #edf3ee; stroke-dasharray: 6,4; stroke-dashoffset: 0; stroke: #7fa087; stroke-linejoin: miter"/>
   </g>
   <g id="text_1">
    <text style="font-weight: 700; font-size: 10.5px; font-family: 'Microsoft YaHei', 'DejaVu Sans'; text-anchor: start; fill: #5b6470" x="220.32" y="109.142578" transform="rotate(-0 220.32 109.142578)">Layer 1: CDT Geometry</text>
   </g>
   <g id="text_2">
    <text style="font-weight: 700; font-size: 10.5px; font-family: 'Microsoft YaHei', 'DejaVu Sans'; text-anchor: start; fill: #5b6470" x="220.32" y="274.793437" transform="rotate(-0 220.32 274.793437)">Layer 2: NavMesh Grid</text>
   </g>
   <g id="text_3">
    <text style="font-weight: 700; font-size: 10.5px; font-family: 'Microsoft YaHei', 'DejaVu Sans'; text-anchor: start; fill: #5b6470" x="220.32" y="440.393438" transform="rotate(-0 220.32 440.393438)">Layer 3: HPA Abstraction</text>
   </g>
   <g id="text_4">
    <text style="font-weight: 700; font-size: 10.5px; font-family: 'Microsoft YaHei', 'DejaVu Sans'; text-anchor: start; fill: #5b6470" x="220.32" y="605.957344" transform="rotate(-0 220.32 605.957344)">Layer 4: MassNav Execution</text>
   </g>
   <g id="text_5">
    <text style="font-weight: 700; font-size: 10.5px; font-family: 'Microsoft YaHei', 'DejaVu Sans'; text-anchor: start; fill: #5b6470" x="220.32" y="771.593437" transform="rotate(-0 220.32 771.593437)">Layer 5: Avoidance</text>
   </g>
   <g id="patch_7">
    <path d="M 243.36 133.2 
L 447.84 133.2 
Q 453.6 133.2 453.6 138.96 
L 453.6 192.24 
Q 453.6 198 447.84 198 
L 243.36 198 
Q 237.6 198 237.6 192.24 
L 237.6 138.96 
Q 237.6 133.2 243.36 133.2 
z
" clip-path="url(#p45d653a0f1)" style="fill: #e9eff5; stroke: #7490a8; stroke-linejoin: miter"/>
   </g>
   <g id="patch_8">
    <path d="M 473.76 133.2 
L 678.24 133.2 
Q 684 133.2 684 138.96 
L 684 192.24 
Q 684 198 678.24 198 
L 473.76 198 
Q 468 198 468 192.24 
L 468 138.96 
Q 468 133.2 473.76 133.2 
z
" clip-path="url(#p45d653a0f1)" style="fill: #e9eff5; stroke: #7490a8; stroke-linejoin: miter"/>
   </g>
   <g id="patch_9">
    <path d="M 704.16 133.2 
L 908.64 133.2 
Q 914.4 133.2 914.4 138.96 
L 914.4 192.24 
Q 914.4 198 908.64 198 
L 704.16 198 
Q 698.4 198 698.4 192.24 
L 698.4 138.96 
Q 698.4 133.2 704.16 133.2 
z
" clip-path="url(#p45d653a0f1)" style="fill: #e9eff5; stroke: #7490a8; stroke-linejoin: miter"/>
   </g>
   <g id="patch_10">
    <path d="M 934.56 133.2 
L 1139.04 133.2 
Q 1144.8 133.2 1144.8 138.96 
L 1144.8 192.24 
Q 1144.8 198 1139.04 198 
L 934.56 198 
Q 928.8 198 928.8 192.24 
L 928.8 138.96 
Q 928.8 133.2 934.56 133.2 
z
" clip-path="url(#p45d653a0f1)" style="fill: #e9eff5; stroke: #7490a8; stroke-linejoin: miter"/>
   </g>
   <g id="patch_11">
    <path d="M 237.6 298.8 
L 406.08 298.8 
Q 411.84 298.8 411.84 304.56 
L 411.84 357.84 
Q 411.84 363.6 406.08 363.6 
L 237.6 363.6 
Q 231.84 363.6 231.84 357.84 
L 231.84 304.56 
Q 231.84 298.8 237.6 298.8 
z
" clip-path="url(#p45d653a0f1)" style="fill: #e9eff5; stroke: #7490a8; stroke-linejoin: miter"/>
   </g>
   <g id="patch_12">
    <path d="M 427.68 298.8 
L 596.16 298.8 
Q 601.92 298.8 601.92 304.56 
L 601.92 357.84 
Q 601.92 363.6 596.16 363.6 
L 427.68 363.6 
Q 421.92 363.6 421.92 357.84 
L 421.92 304.56 
Q 421.92 298.8 427.68 298.8 
z
" clip-path="url(#p45d653a0f1)" style="fill: #e9eff5; stroke: #7490a8; stroke-linejoin: miter"/>
   </g>
   <g id="patch_13">
    <path d="M 617.76 298.8 
L 786.24 298.8 
Q 792 298.8 792 304.56 
L 792 357.84 
Q 792 363.6 786.24 363.6 
L 617.76 363.6 
Q 612 363.6 612 357.84 
L 612 304.56 
Q 612 298.8 617.76 298.8 
z
" clip-path="url(#p45d653a0f1)" style="fill: #e9eff5; stroke: #7490a8; stroke-linejoin: miter"/>
   </g>
   <g id="patch_14">
    <path d="M 807.84 298.8 
L 976.32 298.8 
Q 982.08 298.8 982.08 304.56 
L 982.08 357.84 
Q 982.08 363.6 976.32 363.6 
L 807.84 363.6 
Q 802.08 363.6 802.08 357.84 
L 802.08 304.56 
Q 802.08 298.8 807.84 298.8 
z
" clip-path="url(#p45d653a0f1)" style="fill: #e9eff5; stroke: #7490a8; stroke-linejoin: miter"/>
   </g>
   <g id="patch_15">
    <path d="M 997.92 298.8 
L 1166.4 298.8 
Q 1172.16 298.8 1172.16 304.56 
L 1172.16 357.84 
Q 1172.16 363.6 1166.4 363.6 
L 997.92 363.6 
Q 992.16 363.6 992.16 357.84 
L 992.16 304.56 
Q 992.16 298.8 997.92 298.8 
z
" clip-path="url(#p45d653a0f1)" style="fill: #e9eff5; stroke: #7490a8; stroke-linejoin: miter"/>
   </g>
   <g id="patch_16">
    <path d="M 237.6 464.4 
L 406.08 464.4 
Q 411.84 464.4 411.84 470.16 
L 411.84 523.44 
Q 411.84 529.2 406.08 529.2 
L 237.6 529.2 
Q 231.84 529.2 231.84 523.44 
L 231.84 470.16 
Q 231.84 464.4 237.6 464.4 
z
" clip-path="url(#p45d653a0f1)" style="fill: #e9eff5; stroke: #7490a8; stroke-linejoin: miter"/>
   </g>
   <g id="patch_17">
    <path d="M 427.68 464.4 
L 596.16 464.4 
Q 601.92 464.4 601.92 470.16 
L 601.92 523.44 
Q 601.92 529.2 596.16 529.2 
L 427.68 529.2 
Q 421.92 529.2 421.92 523.44 
L 421.92 470.16 
Q 421.92 464.4 427.68 464.4 
z
" clip-path="url(#p45d653a0f1)" style="fill: #e9eff5; stroke: #7490a8; stroke-linejoin: miter"/>
   </g>
   <g id="patch_18">
    <path d="M 617.76 464.4 
L 786.24 464.4 
Q 792 464.4 792 470.16 
L 792 523.44 
Q 792 529.2 786.24 529.2 
L 617.76 529.2 
Q 612 529.2 612 523.44 
L 612 470.16 
Q 612 464.4 617.76 464.4 
z
" clip-path="url(#p45d653a0f1)" style="fill: #e9eff5; stroke: #7490a8; stroke-linejoin: miter"/>
   </g>
   <g id="patch_19">
    <path d="M 807.84 464.4 
L 976.32 464.4 
Q 982.08 464.4 982.08 470.16 
L 982.08 523.44 
Q 982.08 529.2 976.32 529.2 
L 807.84 529.2 
Q 802.08 529.2 802.08 523.44 
L 802.08 470.16 
Q 802.08 464.4 807.84 464.4 
z
" clip-path="url(#p45d653a0f1)" style="fill: #e9eff5; stroke: #7490a8; stroke-linejoin: miter"/>
   </g>
   <g id="patch_20">
    <path d="M 997.92 464.4 
L 1166.4 464.4 
Q 1172.16 464.4 1172.16 470.16 
L 1172.16 523.44 
Q 1172.16 529.2 1166.4 529.2 
L 997.92 529.2 
Q 992.16 529.2 992.16 523.44 
L 992.16 470.16 
Q 992.16 464.4 997.92 464.4 
z
" clip-path="url(#p45d653a0f1)" style="fill: #e9eff5; stroke: #7490a8; stroke-linejoin: miter"/>
   </g>
   <g id="patch_21">
    <path d="M 237.6 630 
L 406.08 630 
Q 411.84 630 411.84 635.76 
L 411.84 689.04 
Q 411.84 694.8 406.08 694.8 
L 237.6 694.8 
Q 231.84 694.8 231.84 689.04 
L 231.84 635.76 
Q 231.84 630 237.6 630 
z
" clip-path="url(#p45d653a0f1)" style="fill: #f4ede9; stroke: #b08d7f; stroke-linejoin: miter"/>
   </g>
   <g id="patch_22">
    <path d="M 427.68 630 
L 596.16 630 
Q 601.92 630 601.92 635.76 
L 601.92 689.04 
Q 601.92 694.8 596.16 694.8 
L 427.68 694.8 
Q 421.92 694.8 421.92 689.04 
L 421.92 635.76 
Q 421.92 630 427.68 630 
z
" clip-path="url(#p45d653a0f1)" style="fill: #f4ede9; stroke: #b08d7f; stroke-linejoin: miter"/>
   </g>
   <g id="patch_23">
    <path d="M 617.76 630 
L 786.24 630 
Q 792 630 792 635.76 
L 792 689.04 
Q 792 694.8 786.24 694.8 
L 617.76 694.8 
Q 612 694.8 612 689.04 
L 612 635.76 
Q 612 630 617.76 630 
z
" clip-path="url(#p45d653a0f1)" style="fill: #f4ede9; stroke: #b08d7f; stroke-linejoin: miter"/>
   </g>
   <g id="patch_24">
    <path d="M 807.84 630 
L 976.32 630 
Q 982.08 630 982.08 635.76 
L 982.08 689.04 
Q 982.08 694.8 976.32 694.8 
L 807.84 694.8 
Q 802.08 694.8 802.08 689.04 
L 802.08 635.76 
Q 802.08 630 807.84 630 
z
" clip-path="url(#p45d653a0f1)" style="fill: #f4ede9; stroke: #b08d7f; stroke-linejoin: miter"/>
   </g>
   <g id="patch_25">
    <path d="M 997.92 630 
L 1166.4 630 
Q 1172.16 630 1172.16 635.76 
L 1172.16 689.04 
Q 1172.16 694.8 1166.4 694.8 
L 997.92 694.8 
Q 992.16 694.8 992.16 689.04 
L 992.16 635.76 
Q 992.16 630 997.92 630 
z
" clip-path="url(#p45d653a0f1)" style="fill: #f4ede9; stroke: #b08d7f; stroke-linejoin: miter"/>
   </g>
   <g id="patch_26">
    <path d="M 243.36 795.6 
L 447.84 795.6 
Q 453.6 795.6 453.6 801.36 
L 453.6 854.64 
Q 453.6 860.4 447.84 860.4 
L 243.36 860.4 
Q 237.6 860.4 237.6 854.64 
L 237.6 801.36 
Q 237.6 795.6 243.36 795.6 
z
" clip-path="url(#p45d653a0f1)" style="fill: #edf3ee; stroke: #7fa087; stroke-linejoin: miter"/>
   </g>
   <g id="patch_27">
    <path d="M 473.76 795.6 
L 678.24 795.6 
Q 684 795.6 684 801.36 
L 684 854.64 
Q 684 860.4 678.24 860.4 
L 473.76 860.4 
Q 468 860.4 468 854.64 
L 468 801.36 
Q 468 795.6 473.76 795.6 
z
" clip-path="url(#p45d653a0f1)" style="fill: #edf3ee; stroke: #7fa087; stroke-linejoin: miter"/>
   </g>
   <g id="patch_28">
    <path d="M 704.16 795.6 
L 908.64 795.6 
Q 914.4 795.6 914.4 801.36 
L 914.4 854.64 
Q 914.4 860.4 908.64 860.4 
L 704.16 860.4 
Q 698.4 860.4 698.4 854.64 
L 698.4 801.36 
Q 698.4 795.6 704.16 795.6 
z
" clip-path="url(#p45d653a0f1)" style="fill: #edf3ee; stroke: #7fa087; stroke-linejoin: miter"/>
   </g>
   <g id="patch_29">
    <path d="M 934.56 795.6 
L 1139.04 795.6 
Q 1144.8 795.6 1144.8 801.36 
L 1144.8 854.64 
Q 1144.8 860.4 1139.04 860.4 
L 934.56 860.4 
Q 928.8 860.4 928.8 854.64 
L 928.8 801.36 
Q 928.8 795.6 934.56 795.6 
z
" clip-path="url(#p45d653a0f1)" style="fill: #edf3ee; stroke: #7fa087; stroke-linejoin: miter"/>
   </g>
   <g id="text_6">
    <text style="font-weight: 700; font-size: 12.5px; font-family: 'Microsoft YaHei', 'DejaVu Sans'; text-anchor: middle; fill: #23272e" x="345.6" y="166.232188" transform="rotate(-0 345.6 166.232188)">CdtTriangulator</text>
   </g>
   <g id="text_7">
    <text style="font-weight: 700; font-size: 12.5px; font-family: 'Microsoft YaHei', 'DejaVu Sans'; text-anchor: middle; fill: #23272e" x="576" y="166.232188" transform="rotate(-0 576 166.232188)">ContourExtractor</text>
   </g>
   <g id="text_8">
    <text style="font-weight: 700; font-size: 12.5px; font-family: 'Microsoft YaHei', 'DejaVu Sans'; text-anchor: middle; fill: #23272e" x="806.4" y="166.232188" transform="rotate(-0 806.4 166.232188)">Triangulator</text>
   </g>
   <g id="text_9">
    <text style="font-weight: 700; font-size: 12.5px; font-family: 'Microsoft YaHei', 'DejaVu Sans'; text-anchor: middle; fill: #23272e" x="1036.8" y="166.232188" transform="rotate(-0 1036.8 166.232188)">NavObstacleGeometry</text>
   </g>
   <g id="text_10">
    <text style="font-weight: 700; font-size: 12.5px; font-family: 'Microsoft YaHei', 'DejaVu Sans'; text-anchor: middle; fill: #23272e" x="321.84" y="331.832188" transform="rotate(-0 321.84 331.832188)">BakePipeline</text>
   </g>
   <g id="text_11">
    <text style="font-weight: 700; font-size: 12.5px; font-family: 'Microsoft YaHei', 'DejaVu Sans'; text-anchor: middle; fill: #23272e" x="511.92" y="331.832188" transform="rotate(-0 511.92 331.832188)">NavBakeService</text>
   </g>
   <g id="text_12">
    <text style="font-weight: 700; font-size: 12.5px; font-family: 'Microsoft YaHei', 'DejaVu Sans'; text-anchor: middle; fill: #23272e" x="702" y="331.832188" transform="rotate(-0 702 331.832188)">NavTileStore</text>
   </g>
   <g id="text_13">
    <text style="font-weight: 700; font-size: 12.5px; font-family: 'Microsoft YaHei', 'DejaVu Sans'; text-anchor: middle; fill: #23272e" x="892.08" y="331.789219" transform="rotate(-0 892.08 331.789219)">NavQueryService</text>
   </g>
   <g id="text_14">
    <text style="font-weight: 700; font-size: 12.5px; font-family: 'Microsoft YaHei', 'DejaVu Sans'; text-anchor: middle; fill: #23272e" x="1082.16" y="331.789219" transform="rotate(-0 1082.16 331.789219)">DetourEngine</text>
   </g>
   <g id="text_15">
    <text style="font-weight: 700; font-size: 12.5px; font-family: 'Microsoft YaHei', 'DejaVu Sans'; text-anchor: middle; fill: #23272e" x="321.84" y="497.432187" transform="rotate(-0 321.84 497.432187)">ClusterGraph</text>
   </g>
   <g id="text_16">
    <text style="font-weight: 700; font-size: 12.5px; font-family: 'Microsoft YaHei', 'DejaVu Sans'; text-anchor: middle; fill: #23272e" x="511.92" y="497.432187" transform="rotate(-0 511.92 497.432187)">MultiLayerGraph</text>
   </g>
   <g id="text_17">
    <text style="font-weight: 700; font-size: 12.5px; font-family: 'Microsoft YaHei', 'DejaVu Sans'; text-anchor: middle; fill: #23272e" x="702" y="497.432187" transform="rotate(-0 702 497.432187)">HierarchicalPathService</text>
   </g>
   <g id="text_18">
    <text style="font-weight: 700; font-size: 12.5px; font-family: 'Microsoft YaHei', 'DejaVu Sans'; text-anchor: middle; fill: #23272e" x="892.08" y="497.389219" transform="rotate(-0 892.08 497.389219)">InterLayerMapping</text>
   </g>
   <g id="text_19">
    <text style="font-weight: 700; font-size: 12.5px; font-family: 'Microsoft YaHei', 'DejaVu Sans'; text-anchor: middle; fill: #23272e" x="1082.16" y="497.432187" transform="rotate(-0 1082.16 497.432187)">GraphRouteTable</text>
   </g>
   <g id="text_20">
    <text style="font-weight: 700; font-size: 12.5px; font-family: 'Microsoft YaHei', 'DejaVu Sans'; text-anchor: middle; fill: #23272e" x="321.84" y="656.149219" transform="rotate(-0 321.84 656.149219)">MassNavigation</text>
   </g>
   <g id="text_21">
    <text style="font-size: 10.2px; font-family: 'Microsoft YaHei', 'DejaVu Sans'; text-anchor: middle; fill: #5b6470" x="321.84" y="673.073625" transform="rotate(-0 321.84 673.073625)">Runtime</text>
   </g>
   <g id="text_22">
    <text style="font-weight: 700; font-size: 12.5px; font-family: 'Microsoft YaHei', 'DejaVu Sans'; text-anchor: middle; fill: #23272e" x="511.92" y="656.149219" transform="rotate(-0 511.92 656.149219)">MassNavigation</text>
   </g>
   <g id="text_23">
    <text style="font-size: 10.2px; font-family: 'Microsoft YaHei', 'DejaVu Sans'; text-anchor: middle; fill: #5b6470" x="511.92" y="673.073625" transform="rotate(-0 511.92 673.073625)">SimulationRuntime</text>
   </g>
   <g id="text_24">
    <text style="font-weight: 700; font-size: 12.5px; font-family: 'Microsoft YaHei', 'DejaVu Sans'; text-anchor: middle; fill: #23272e" x="702" y="656.149219" transform="rotate(-0 702 656.149219)">MassNavigation</text>
   </g>
   <g id="text_25">
    <text style="font-size: 10.2px; font-family: 'Microsoft YaHei', 'DejaVu Sans'; text-anchor: middle; fill: #5b6470" x="702" y="673.073625" transform="rotate(-0 702 673.073625)">FlowSolverState</text>
   </g>
   <g id="text_26">
    <text style="font-weight: 700; font-size: 12.5px; font-family: 'Microsoft YaHei', 'DejaVu Sans'; text-anchor: middle; fill: #23272e" x="892.08" y="656.149219" transform="rotate(-0 892.08 656.149219)">MassNavigation</text>
   </g>
   <g id="text_27">
    <text style="font-size: 10.2px; font-family: 'Microsoft YaHei', 'DejaVu Sans'; text-anchor: middle; fill: #5b6470" x="892.08" y="673.014656" transform="rotate(-0 892.08 673.014656)">FormationSystem</text>
   </g>
   <g id="text_28">
    <text style="font-weight: 700; font-size: 12.5px; font-family: 'Microsoft YaHei', 'DejaVu Sans'; text-anchor: middle; fill: #23272e" x="1082.16" y="656.149219" transform="rotate(-0 1082.16 656.149219)">MassNavigation</text>
   </g>
   <g id="text_29">
    <text style="font-size: 10.2px; font-family: 'Microsoft YaHei', 'DejaVu Sans'; text-anchor: middle; fill: #5b6470" x="1082.16" y="673.073625" transform="rotate(-0 1082.16 673.073625)">OrderIngestionSystem</text>
   </g>
   <g id="text_30">
    <text style="font-weight: 700; font-size: 12.5px; font-family: 'Microsoft YaHei', 'DejaVu Sans'; text-anchor: middle; fill: #23272e" x="345.6" y="828.632187" transform="rotate(-0 345.6 828.632187)">OrcaSolver2D</text>
   </g>
   <g id="text_31">
    <text style="font-weight: 700; font-size: 12.5px; font-family: 'Microsoft YaHei', 'DejaVu Sans'; text-anchor: middle; fill: #23272e" x="576" y="828.632187" transform="rotate(-0 576 828.632187)">SonarSolver2D</text>
   </g>
   <g id="text_32">
    <text style="font-weight: 700; font-size: 12.5px; font-family: 'Microsoft YaHei', 'DejaVu Sans'; text-anchor: middle; fill: #23272e" x="806.4" y="828.632187" transform="rotate(-0 806.4 828.632187)">HexGridAOI</text>
   </g>
   <g id="text_33">
    <text style="font-weight: 700; font-size: 12.5px; font-family: 'Microsoft YaHei', 'DejaVu Sans'; text-anchor: middle; fill: #23272e" x="1036.8" y="828.632187" transform="rotate(-0 1036.8 828.632187)">FlowAvoidanceTuning</text>
   </g>
   <g id="line2d_1">
    <path d="M 694.8 223.2 
L 694.8 259.2 
" clip-path="url(#p45d653a0f1)" style="fill: none; stroke: #8a94a3; stroke-width: 1.2; stroke-linecap: round"/>
   </g>
   <g id="line2d_2">
    <path d="M 694.8 388.8 
L 694.8 424.8 
" clip-path="url(#p45d653a0f1)" style="fill: none; stroke: #8a94a3; stroke-width: 1.2; stroke-linecap: round"/>
   </g>
   <g id="line2d_3">
    <path d="M 694.8 554.4 
L 694.8 590.4 
" clip-path="url(#p45d653a0f1)" style="fill: none; stroke: #8a94a3; stroke-width: 1.2; stroke-linecap: round"/>
   </g>
   <g id="line2d_4">
    <path d="M 694.8 720 
L 694.8 756 
" clip-path="url(#p45d653a0f1)" style="fill: none; stroke: #8a94a3; stroke-width: 1.2; stroke-linecap: round"/>
   </g>
   <g id="patch_30">
    <path d="M 694.8 225.199512 
Q 694.8 241.201573 694.8 257.203633 
" clip-path="url(#p45d653a0f1)" style="fill: none"/>
    <path d="M 697.2 252.403633 
L 694.8 257.203633 
L 692.4 252.403633 
z
" clip-path="url(#p45d653a0f1)" style="fill: #8a94a3"/>
   </g>
   <g id="patch_31">
    <path d="M 694.8 390.799512 
Q 694.8 406.801573 694.8 422.803633 
" clip-path="url(#p45d653a0f1)" style="fill: none"/>
    <path d="M 697.2 418.003633 
L 694.8 422.803633 
L 692.4 418.003633 
z
" clip-path="url(#p45d653a0f1)" style="fill: #8a94a3"/>
   </g>
   <g id="patch_32">
    <path d="M 694.8 556.399512 
Q 694.8 572.401573 694.8 588.403633 
" clip-path="url(#p45d653a0f1)" style="fill: none"/>
    <path d="M 697.2 583.603633 
L 694.8 588.403633 
L 692.4 583.603633 
z
" clip-path="url(#p45d653a0f1)" style="fill: #8a94a3"/>
   </g>
   <g id="patch_33">
    <path d="M 694.8 721.999512 
Q 694.8 738.001573 694.8 754.003633 
" clip-path="url(#p45d653a0f1)" style="fill: none"/>
    <path d="M 697.2 749.203633 
L 694.8 754.003633 
L 692.4 749.203633 
z
" clip-path="url(#p45d653a0f1)" style="fill: #8a94a3"/>
   </g>
   <g id="text_34">
    <text style="font-weight: 700; font-size: 20px; font-family: 'Microsoft YaHei', 'DejaVu Sans'; text-anchor: middle; fill: #181b20" x="604.8" y="40.4675" transform="rotate(-0 604.8 40.4675)">Ludots Navigation Stack</text>
   </g>
   <g id="text_35">
    <text style="font-size: 12px; font-family: 'Microsoft YaHei', 'DejaVu Sans'; text-anchor: middle; fill: #5b6470" x="604.8" y="68.6325" transform="rotate(-0 604.8 68.6325)">Navigation Technology Stack: CDT -&gt; NavMesh -&gt; HPA -&gt; MassNav -&gt; Avoidance</text>
   </g>
   <g id="text_36">
    <text style="font-size: 9.5px; font-family: 'Microsoft YaHei', 'DejaVu Sans'; text-anchor: start; fill: #8a94a3" x="43.2" y="921.994062" transform="rotate(-0 43.2 921.994062)">Note: CDT = Constrained Delaunay Triangulation</text>
   </g>
   <g id="text_37">
    <text style="font-size: 9.5px; font-family: 'Microsoft YaHei', 'DejaVu Sans'; text-anchor: start; fill: #8a94a3" x="43.2" y="940.825391" transform="rotate(-0 43.2 940.825391)">HPA = Hierarchical Pathfinding A*</text>
   </g>
   <g id="text_38">
    <text style="font-size: 9.5px; font-family: 'Microsoft YaHei', 'DejaVu Sans'; text-anchor: start; fill: #8a94a3" x="43.2" y="959.545391" transform="rotate(-0 43.2 959.545391)">MassNav supports 1000+ units @ 60Hz fixed-step</text>
   </g>
   <g id="patch_34">
    <path d="M 36 93.6 
L 187.2 93.6 
Q 194.4 93.6 194.4 100.8 
L 194.4 195.12 
Q 194.4 202.32 187.2 202.32 
L 36 202.32 
Q 28.8 202.32 28.8 195.12 
L 28.8 100.8 
Q 28.8 93.6 36 93.6 
z
" clip-path="url(#p45d653a0f1)" style="fill: #ffffff; stroke: #dfe3e9; stroke-linejoin: miter"/>
   </g>
   <g id="text_39">
    <text style="font-weight: 700; font-size: 10.5px; font-family: 'Microsoft YaHei', 'DejaVu Sans'; text-anchor: start; fill: #23272e" x="41.76" y="110.633438" transform="rotate(-0 41.76 110.633438)">Legend</text>
   </g>
   <g id="patch_35">
    <path d="M 45.36 124.2 
L 58.32 124.2 
Q 61.92 124.2 61.92 127.8 
L 61.92 135 
Q 61.92 138.6 58.32 138.6 
L 45.36 138.6 
Q 41.76 138.6 41.76 135 
L 41.76 127.8 
Q 41.76 124.2 45.36 124.2 
z
" clip-path="url(#p45d653a0f1)" style="fill: #e9eff5; stroke: #7490a8; stroke-linejoin: miter"/>
   </g>
   <g id="text_40">
    <text style="font-size: 10.2px; font-family: 'Microsoft YaHei', 'DejaVu Sans'; text-anchor: start; fill: #3a4149" x="67.68" y="134.150016" transform="rotate(-0 67.68 134.150016)">Navigation Core</text>
   </g>
   <g id="patch_36">
    <path d="M 45.36 147.96 
L 58.32 147.96 
Q 61.92 147.96 61.92 151.56 
L 61.92 158.76 
Q 61.92 162.36 58.32 162.36 
L 45.36 162.36 
Q 41.76 162.36 41.76 158.76 
L 41.76 151.56 
Q 41.76 147.96 45.36 147.96 
z
" clip-path="url(#p45d653a0f1)" style="fill: #f4ede9; stroke: #b08d7f; stroke-linejoin: miter"/>
   </g>
   <g id="text_41">
    <text style="font-size: 10.2px; font-family: 'Microsoft YaHei', 'DejaVu Sans'; text-anchor: start; fill: #3a4149" x="67.68" y="157.968984" transform="rotate(-0 67.68 157.968984)">Mass Execution</text>
   </g>
   <g id="patch_37">
    <path d="M 45.36 171.72 
L 58.32 171.72 
Q 61.92 171.72 61.92 175.32 
L 61.92 182.52 
Q 61.92 186.12 58.32 186.12 
L 45.36 186.12 
Q 41.76 186.12 41.76 182.52 
L 41.76 175.32 
Q 41.76 171.72 45.36 171.72 
z
" clip-path="url(#p45d653a0f1)" style="fill: #edf3ee; stroke: #7fa087; stroke-linejoin: miter"/>
   </g>
   <g id="text_42">
    <text style="font-size: 10.2px; font-family: 'Microsoft YaHei', 'DejaVu Sans'; text-anchor: start; fill: #3a4149" x="67.68" y="181.728984" transform="rotate(-0 67.68 181.728984)">Avoidance / GAS</text>
   </g>
  </g>
 </g>
 <defs>
  <clipPath id="p45d653a0f1">
   <rect x="0" y="0" width="1209.6" height="993.6"/>
  </clipPath>
 </defs>
</svg>
