<?xml version="1.0" encoding="utf-8" standalone="no"?>
<!DOCTYPE svg PUBLIC "-//W3C//DTD SVG 1.1//EN"
  "http://www.w3.org/Graphics/SVG/1.1/DTD/svg11.dtd">
<svg xmlns:xlink="http://www.w3.org/1999/xlink" width="1022.4pt" height="1454.4pt" viewBox="0 0 1022.4 1454.4" xmlns="http://www.w3.org/2000/svg" version="1.1">
 <metadata>
  <rdf:RDF xmlns:dc="http://purl.org/dc/elements/1.1/" xmlns:cc="http://creativecommons.org/ns#" xmlns:rdf="http://www.w3.org/1999/02/22-rdf-syntax-ns#">
   <cc:Work>
    <dc:type rdf:resource="http://purl.org/dc/dcmitype/StillImage"/>
    <dc:date>2026-07-20T06:14:38.103368</dc:date>
    <dc:format>image/svg+xml</dc:format>
    <dc:creator>
     <cc:Agent>
      <dc:title>Matplotlib v3.10.9, https://matplotlib.org/</dc:title>
     </cc:Agent>
    </dc:creator>
   </cc:Work>
  </rdf:RDF>
 </metadata>
 <defs>
  <style type="text/css">*{stroke-linejoin: round; stroke-linecap: butt}</style>
 </defs>
 <g id="figure_1">
  <g id="patch_1">
   <path d="M 0 1454.4 
L 1022.4 1454.4 
L 1022.4 0 
L 0 0 
z
" style="fill: #ffffff"/>
  </g>
  <g id="axes_1">
   <g id="patch_2">
    <path d="M 53.28 1281.6 
L 969.12 1281.6 
Q 979.2 1281.6 979.2 1291.68 
L 979.2 1408.32 
Q 979.2 1418.4 969.12 1418.4 
L 53.28 1418.4 
Q 43.2 1418.4 43.2 1408.32 
L 43.2 1291.68 
Q 43.2 1281.6 53.28 1281.6 
z
" clip-path="url(#p46235ab95c)" style="fill: #f0f0ea; stroke-dasharray: 6,4; stroke-dashoffset: 0; stroke: #999a7e; stroke-linejoin: miter"/>
   </g>
   <g id="text_1">
    <text style="font-weight: 700; font-size: 10.5px; font-family: 'Microsoft YaHei', 'DejaVu Sans'; text-anchor: start; fill: #5b6470" x="54.72" y="1297.193438" transform="rotate(-0 54.72 1297.193438)">Presentation Systems (Independent Visual Loop)</text>
   </g>
   <g id="patch_3">
    <path d="M 48.96 100.8 
L 973.44 100.8 
Q 979.2 100.8 979.2 106.56 
L 979.2 188.64 
Q 979.2 194.4 973.44 194.4 
L 48.96 194.4 
Q 43.2 194.4 43.2 188.64 
L 43.2 106.56 
Q 43.2 100.8 48.96 100.8 
z
" clip-path="url(#p46235ab95c)" style="fill: #f4ede9; stroke: #b08d7f; stroke-linejoin: miter"/>
   </g>
   <g id="patch_4">
    <path d="M 48.96 208.8 
L 973.44 208.8 
Q 979.2 208.8 979.2 214.56 
L 979.2 339.84 
Q 979.2 345.6 973.44 345.6 
L 48.96 345.6 
Q 43.2 345.6 43.2 339.84 
L 43.2 214.56 
Q 43.2 208.8 48.96 208.8 
z
" clip-path="url(#p46235ab95c)" style="fill: #f1edf3; stroke: #9d8ba8; stroke-linejoin: miter"/>
   </g>
   <g id="patch_5">
    <path d="M 48.96 360 
L 973.44 360 
Q 979.2 360 979.2 365.76 
L 979.2 447.84 
Q 979.2 453.6 973.44 453.6 
L 48.96 453.6 
Q 43.2 453.6 43.2 447.84 
L 43.2 365.76 
Q 43.2 360 48.96 360 
z
" clip-path="url(#p46235ab95c)" style="fill: #e9eff5; stroke: #7490a8; stroke-linejoin: miter"/>
   </g>
   <g id="patch_6">
    <path d="M 48.96 468 
L 973.44 468 
Q 979.2 468 979.2 473.76 
L 979.2 599.04 
Q 979.2 604.8 973.44 604.8 
L 48.96 604.8 
Q 43.2 604.8 43.2 599.04 
L 43.2 473.76 
Q 43.2 468 48.96 468 
z
" clip-path="url(#p46235ab95c)" style="fill: #edf3ee; stroke: #7fa087; stroke-linejoin: miter"/>
   </g>
   <g id="patch_7">
    <path d="M 48.96 619.2 
L 973.44 619.2 
Q 979.2 619.2 979.2 624.96 
L 979.2 707.04 
Q 979.2 712.8 973.44 712.8 
L 48.96 712.8 
Q 43.2 712.8 43.2 707.04 
L 43.2 624.96 
Q 43.2 619.2 48.96 619.2 
z
" clip-path="url(#p46235ab95c)" style="fill: #edf3ee; stroke: #7fa087; stroke-linejoin: miter"/>
   </g>
   <g id="patch_8">
    <path d="M 48.96 727.2 
L 973.44 727.2 
Q 979.2 727.2 979.2 732.96 
L 979.2 815.04 
Q 979.2 820.8 973.44 820.8 
L 48.96 820.8 
Q 43.2 820.8 43.2 815.04 
L 43.2 732.96 
Q 43.2 727.2 48.96 727.2 
z
" clip-path="url(#p46235ab95c)" style="fill: #edf3ee; stroke: #7fa087; stroke-linejoin: miter"/>
   </g>
   <g id="patch_9">
    <path d="M 48.96 835.2 
L 973.44 835.2 
Q 979.2 835.2 979.2 840.96 
L 979.2 923.04 
Q 979.2 928.8 973.44 928.8 
L 48.96 928.8 
Q 43.2 928.8 43.2 923.04 
L 43.2 840.96 
Q 43.2 835.2 48.96 835.2 
z
" clip-path="url(#p46235ab95c)" style="fill: #f4ede9; stroke: #b08d7f; stroke-linejoin: miter"/>
   </g>
   <g id="patch_10">
    <path d="M 48.96 943.2 
L 973.44 943.2 
Q 979.2 943.2 979.2 948.96 
L 979.2 1031.04 
Q 979.2 1036.8 973.44 1036.8 
L 48.96 1036.8 
Q 43.2 1036.8 43.2 1031.04 
L 43.2 948.96 
Q 43.2 943.2 48.96 943.2 
z
" clip-path="url(#p46235ab95c)" style="fill: #f5f0e8; stroke: #b39b7d; stroke-linejoin: miter"/>
   </g>
   <g id="patch_11">
    <path d="M 48.96 1051.2 
L 973.44 1051.2 
Q 979.2 1051.2 979.2 1056.96 
L 979.2 1139.04 
Q 979.2 1144.8 973.44 1144.8 
L 48.96 1144.8 
Q 43.2 1144.8 43.2 1139.04 
L 43.2 1056.96 
Q 43.2 1051.2 48.96 1051.2 
z
" clip-path="url(#p46235ab95c)" style="fill: #f0f0ea; stroke: #999a7e; stroke-linejoin: miter"/>
   </g>
   <g id="patch_12">
    <path d="M 48.96 1159.2 
L 973.44 1159.2 
Q 979.2 1159.2 979.2 1164.96 
L 979.2 1247.04 
Q 979.2 1252.8 973.44 1252.8 
L 48.96 1252.8 
Q 43.2 1252.8 43.2 1247.04 
L 43.2 1164.96 
Q 43.2 1159.2 48.96 1159.2 
z
" clip-path="url(#p46235ab95c)" style="fill: #f0f0ea; stroke: #999a7e; stroke-linejoin: miter"/>
   </g>
   <g id="patch_13">
    <path d="M 70.56 1321.2 
L 951.84 1321.2 
Q 957.6 1321.2 957.6 1326.96 
L 957.6 1401.84 
Q 957.6 1407.6 951.84 1407.6 
L 70.56 1407.6 
Q 64.8 1407.6 64.8 1401.84 
L 64.8 1326.96 
Q 64.8 1321.2 70.56 1321.2 
z
" clip-path="url(#p46235ab95c)" style="fill: #f0f0ea; stroke: #999a7e; stroke-linejoin: miter"/>
   </g>
   <g id="patch_14">
    <path d="M 72 136.44 
L 205.2 136.44 
Q 209.52 136.44 209.52 140.76 
L 209.52 156.6 
Q 209.52 160.92 205.2 160.92 
L 72 160.92 
Q 67.68 160.92 67.68 156.6 
L 67.68 140.76 
Q 67.68 136.44 72 136.44 
z
" clip-path="url(#p46235ab95c)" style="fill: #ffffff; stroke: #c9d1da; stroke-width: 0.9; stroke-linejoin: miter"/>
   </g>
   <g id="patch_15">
    <path d="M 221.04 136.44 
L 354.24 136.44 
Q 358.56 136.44 358.56 140.76 
L 358.56 156.6 
Q 358.56 160.92 354.24 160.92 
L 221.04 160.92 
Q 216.72 160.92 216.72 156.6 
L 216.72 140.76 
Q 216.72 136.44 221.04 136.44 
z
" clip-path="url(#p46235ab95c)" style="fill: #ffffff; stroke: #c9d1da; stroke-width: 0.9; stroke-linejoin: miter"/>
   </g>
   <g id="patch_16">
    <path d="M 370.08 136.44 
L 503.28 136.44 
Q 507.6 136.44 507.6 140.76 
L 507.6 156.6 
Q 507.6 160.92 503.28 160.92 
L 370.08 160.92 
Q 365.76 160.92 365.76 156.6 
L 365.76 140.76 
Q 365.76 136.44 370.08 136.44 
z
" clip-path="url(#p46235ab95c)" style="fill: #ffffff; stroke: #c9d1da; stroke-width: 0.9; stroke-linejoin: miter"/>
   </g>
   <g id="patch_17">
    <path d="M 72 250.2 
L 205.2 250.2 
Q 209.52 250.2 209.52 254.52 
L 209.52 270.36 
Q 209.52 274.68 205.2 274.68 
L 72 274.68 
Q 67.68 274.68 67.68 270.36 
L 67.68 254.52 
Q 67.68 250.2 72 250.2 
z
" clip-path="url(#p46235ab95c)" style="fill: #ffffff; stroke: #c9d1da; stroke-width: 0.9; stroke-linejoin: miter"/>
   </g>
   <g id="patch_18">
    <path d="M 221.04 250.2 
L 354.24 250.2 
Q 358.56 250.2 358.56 254.52 
L 358.56 270.36 
Q 358.56 274.68 354.24 274.68 
L 221.04 274.68 
Q 216.72 274.68 216.72 270.36 
L 216.72 254.52 
Q 216.72 250.2 221.04 250.2 
z
" clip-path="url(#p46235ab95c)" style="fill: #ffffff; stroke: #c9d1da; stroke-width: 0.9; stroke-linejoin: miter"/>
   </g>
   <g id="patch_19">
    <path d="M 370.08 250.2 
L 503.28 250.2 
Q 507.6 250.2 507.6 254.52 
L 507.6 270.36 
Q 507.6 274.68 503.28 274.68 
L 370.08 274.68 
Q 365.76 274.68 365.76 270.36 
L 365.76 254.52 
Q 365.76 250.2 370.08 250.2 
z
" clip-path="url(#p46235ab95c)" style="fill: #ffffff; stroke: #c9d1da; stroke-width: 0.9; stroke-linejoin: miter"/>
   </g>
   <g id="patch_20">
    <path d="M 519.12 250.2 
L 652.32 250.2 
Q 656.64 250.2 656.64 254.52 
L 656.64 270.36 
Q 656.64 274.68 652.32 274.68 
L 519.12 274.68 
Q 514.8 274.68 514.8 270.36 
L 514.8 254.52 
Q 514.8 250.2 519.12 250.2 
z
" clip-path="url(#p46235ab95c)" style="fill: #ffffff; stroke: #c9d1da; stroke-width: 0.9; stroke-linejoin: miter"/>
   </g>
   <g id="patch_21">
    <path d="M 668.16 250.2 
L 801.36 250.2 
Q 805.68 250.2 805.68 254.52 
L 805.68 270.36 
Q 805.68 274.68 801.36 274.68 
L 668.16 274.68 
Q 663.84 274.68 663.84 270.36 
L 663.84 254.52 
Q 663.84 250.2 668.16 250.2 
z
" clip-path="url(#p46235ab95c)" style="fill: #ffffff; stroke: #c9d1da; stroke-width: 0.9; stroke-linejoin: miter"/>
   </g>
   <g id="patch_22">
    <path d="M 817.2 250.2 
L 950.4 250.2 
Q 954.72 250.2 954.72 254.52 
L 954.72 270.36 
Q 954.72 274.68 950.4 274.68 
L 817.2 274.68 
Q 812.88 274.68 812.88 270.36 
L 812.88 254.52 
Q 812.88 250.2 817.2 250.2 
z
" clip-path="url(#p46235ab95c)" style="fill: #ffffff; stroke: #c9d1da; stroke-width: 0.9; stroke-linejoin: miter"/>
   </g>
   <g id="patch_23">
    <path d="M 72 281.88 
L 205.2 281.88 
Q 209.52 281.88 209.52 286.2 
L 209.52 302.04 
Q 209.52 306.36 205.2 306.36 
L 72 306.36 
Q 67.68 306.36 67.68 302.04 
L 67.68 286.2 
Q 67.68 281.88 72 281.88 
z
" clip-path="url(#p46235ab95c)" style="fill: #ffffff; stroke: #c9d1da; stroke-width: 0.9; stroke-linejoin: miter"/>
   </g>
   <g id="patch_24">
    <path d="M 221.04 281.88 
L 354.24 281.88 
Q 358.56 281.88 358.56 286.2 
L 358.56 302.04 
Q 358.56 306.36 354.24 306.36 
L 221.04 306.36 
Q 216.72 306.36 216.72 302.04 
L 216.72 286.2 
Q 216.72 281.88 221.04 281.88 
z
" clip-path="url(#p46235ab95c)" style="fill: #ffffff; stroke: #c9d1da; stroke-width: 0.9; stroke-linejoin: miter"/>
   </g>
   <g id="patch_25">
    <path d="M 370.08 281.88 
L 503.28 281.88 
Q 507.6 281.88 507.6 286.2 
L 507.6 302.04 
Q 507.6 306.36 503.28 306.36 
L 370.08 306.36 
Q 365.76 306.36 365.76 302.04 
L 365.76 286.2 
Q 365.76 281.88 370.08 281.88 
z
" clip-path="url(#p46235ab95c)" style="fill: #ffffff; stroke: #c9d1da; stroke-width: 0.9; stroke-linejoin: miter"/>
   </g>
   <g id="patch_26">
    <path d="M 519.12 281.88 
L 652.32 281.88 
Q 656.64 281.88 656.64 286.2 
L 656.64 302.04 
Q 656.64 306.36 652.32 306.36 
L 519.12 306.36 
Q 514.8 306.36 514.8 302.04 
L 514.8 286.2 
Q 514.8 281.88 519.12 281.88 
z
" clip-path="url(#p46235ab95c)" style="fill: #ffffff; stroke: #c9d1da; stroke-width: 0.9; stroke-linejoin: miter"/>
   </g>
   <g id="patch_27">
    <path d="M 72 395.64 
L 205.2 395.64 
Q 209.52 395.64 209.52 399.96 
L 209.52 415.8 
Q 209.52 420.12 205.2 420.12 
L 72 420.12 
Q 67.68 420.12 67.68 415.8 
L 67.68 399.96 
Q 67.68 395.64 72 395.64 
z
" clip-path="url(#p46235ab95c)" style="fill: #ffffff; stroke: #c9d1da; stroke-width: 0.9; stroke-linejoin: miter"/>
   </g>
   <g id="patch_28">
    <path d="M 221.04 395.64 
L 354.24 395.64 
Q 358.56 395.64 358.56 399.96 
L 358.56 415.8 
Q 358.56 420.12 354.24 420.12 
L 221.04 420.12 
Q 216.72 420.12 216.72 415.8 
L 216.72 399.96 
Q 216.72 395.64 221.04 395.64 
z
" clip-path="url(#p46235ab95c)" style="fill: #ffffff; stroke: #c9d1da; stroke-width: 0.9; stroke-linejoin: miter"/>
   </g>
   <g id="patch_29">
    <path d="M 370.08 395.64 
L 503.28 395.64 
Q 507.6 395.64 507.6 399.96 
L 507.6 415.8 
Q 507.6 420.12 503.28 420.12 
L 370.08 420.12 
Q 365.76 420.12 365.76 415.8 
L 365.76 399.96 
Q 365.76 395.64 370.08 395.64 
z
" clip-path="url(#p46235ab95c)" style="fill: #ffffff; stroke: #c9d1da; stroke-width: 0.9; stroke-linejoin: miter"/>
   </g>
   <g id="patch_30">
    <path d="M 72 509.4 
L 205.2 509.4 
Q 209.52 509.4 209.52 513.72 
L 209.52 529.56 
Q 209.52 533.88 205.2 533.88 
L 72 533.88 
Q 67.68 533.88 67.68 529.56 
L 67.68 513.72 
Q 67.68 509.4 72 509.4 
z
" clip-path="url(#p46235ab95c)" style="fill: #ffffff; stroke: #c9d1da; stroke-width: 0.9; stroke-linejoin: miter"/>
   </g>
   <g id="patch_31">
    <path d="M 221.04 509.4 
L 354.24 509.4 
Q 358.56 509.4 358.56 513.72 
L 358.56 529.56 
Q 358.56 533.88 354.24 533.88 
L 221.04 533.88 
Q 216.72 533.88 216.72 529.56 
L 216.72 513.72 
Q 216.72 509.4 221.04 509.4 
z
" clip-path="url(#p46235ab95c)" style="fill: #ffffff; stroke: #c9d1da; stroke-width: 0.9; stroke-linejoin: miter"/>
   </g>
   <g id="patch_32">
    <path d="M 370.08 509.4 
L 503.28 509.4 
Q 507.6 509.4 507.6 513.72 
L 507.6 529.56 
Q 507.6 533.88 503.28 533.88 
L 370.08 533.88 
Q 365.76 533.88 365.76 529.56 
L 365.76 513.72 
Q 365.76 509.4 370.08 509.4 
z
" clip-path="url(#p46235ab95c)" style="fill: #ffffff; stroke: #c9d1da; stroke-width: 0.9; stroke-linejoin: miter"/>
   </g>
   <g id="patch_33">
    <path d="M 519.12 509.4 
L 652.32 509.4 
Q 656.64 509.4 656.64 513.72 
L 656.64 529.56 
Q 656.64 533.88 652.32 533.88 
L 519.12 533.88 
Q 514.8 533.88 514.8 529.56 
L 514.8 513.72 
Q 514.8 509.4 519.12 509.4 
z
" clip-path="url(#p46235ab95c)" style="fill: #ffffff; stroke: #c9d1da; stroke-width: 0.9; stroke-linejoin: miter"/>
   </g>
   <g id="patch_34">
    <path d="M 668.16 509.4 
L 801.36 509.4 
Q 805.68 509.4 805.68 513.72 
L 805.68 529.56 
Q 805.68 533.88 801.36 533.88 
L 668.16 533.88 
Q 663.84 533.88 663.84 529.56 
L 663.84 513.72 
Q 663.84 509.4 668.16 509.4 
z
" clip-path="url(#p46235ab95c)" style="fill: #ffffff; stroke: #c9d1da; stroke-width: 0.9; stroke-linejoin: miter"/>
   </g>
   <g id="patch_35">
    <path d="M 817.2 509.4 
L 950.4 509.4 
Q 954.72 509.4 954.72 513.72 
L 954.72 529.56 
Q 954.72 533.88 950.4 533.88 
L 817.2 533.88 
Q 812.88 533.88 812.88 529.56 
L 812.88 513.72 
Q 812.88 509.4 817.2 509.4 
z
" clip-path="url(#p46235ab95c)" style="fill: #ffffff; stroke: #c9d1da; stroke-width: 0.9; stroke-linejoin: miter"/>
   </g>
   <g id="patch_36">
    <path d="M 72 541.08 
L 205.2 541.08 
Q 209.52 541.08 209.52 545.4 
L 209.52 561.24 
Q 209.52 565.56 205.2 565.56 
L 72 565.56 
Q 67.68 565.56 67.68 561.24 
L 67.68 545.4 
Q 67.68 541.08 72 541.08 
z
" clip-path="url(#p46235ab95c)" style="fill: #ffffff; stroke: #c9d1da; stroke-width: 0.9; stroke-linejoin: miter"/>
   </g>
   <g id="patch_37">
    <path d="M 221.04 541.08 
L 354.24 541.08 
Q 358.56 541.08 358.56 545.4 
L 358.56 561.24 
Q 358.56 565.56 354.24 565.56 
L 221.04 565.56 
Q 216.72 565.56 216.72 561.24 
L 216.72 545.4 
Q 216.72 541.08 221.04 541.08 
z
" clip-path="url(#p46235ab95c)" style="fill: #ffffff; stroke: #c9d1da; stroke-width: 0.9; stroke-linejoin: miter"/>
   </g>
   <g id="patch_38">
    <path d="M 370.08 541.08 
L 503.28 541.08 
Q 507.6 541.08 507.6 545.4 
L 507.6 561.24 
Q 507.6 565.56 503.28 565.56 
L 370.08 565.56 
Q 365.76 565.56 365.76 561.24 
L 365.76 545.4 
Q 365.76 541.08 370.08 541.08 
z
" clip-path="url(#p46235ab95c)" style="fill: #ffffff; stroke: #c9d1da; stroke-width: 0.9; stroke-linejoin: miter"/>
   </g>
   <g id="patch_39">
    <path d="M 72 654.84 
L 205.2 654.84 
Q 209.52 654.84 209.52 659.16 
L 209.52 675 
Q 209.52 679.32 205.2 679.32 
L 72 679.32 
Q 67.68 679.32 67.68 675 
L 67.68 659.16 
Q 67.68 654.84 72 654.84 
z
" clip-path="url(#p46235ab95c)" style="fill: #ffffff; stroke: #c9d1da; stroke-width: 0.9; stroke-linejoin: miter"/>
   </g>
   <g id="patch_40">
    <path d="M 221.04 654.84 
L 354.24 654.84 
Q 358.56 654.84 358.56 659.16 
L 358.56 675 
Q 358.56 679.32 354.24 679.32 
L 221.04 679.32 
Q 216.72 679.32 216.72 675 
L 216.72 659.16 
Q 216.72 654.84 221.04 654.84 
z
" clip-path="url(#p46235ab95c)" style="fill: #ffffff; stroke: #c9d1da; stroke-width: 0.9; stroke-linejoin: miter"/>
   </g>
   <g id="patch_41">
    <path d="M 370.08 654.84 
L 503.28 654.84 
Q 507.6 654.84 507.6 659.16 
L 507.6 675 
Q 507.6 679.32 503.28 679.32 
L 370.08 679.32 
Q 365.76 679.32 365.76 675 
L 365.76 659.16 
Q 365.76 654.84 370.08 654.84 
z
" clip-path="url(#p46235ab95c)" style="fill: #ffffff; stroke: #c9d1da; stroke-width: 0.9; stroke-linejoin: miter"/>
   </g>
   <g id="patch_42">
    <path d="M 519.12 654.84 
L 652.32 654.84 
Q 656.64 654.84 656.64 659.16 
L 656.64 675 
Q 656.64 679.32 652.32 679.32 
L 519.12 679.32 
Q 514.8 679.32 514.8 675 
L 514.8 659.16 
Q 514.8 654.84 519.12 654.84 
z
" clip-path="url(#p46235ab95c)" style="fill: #ffffff; stroke: #c9d1da; stroke-width: 0.9; stroke-linejoin: miter"/>
   </g>
   <g id="patch_43">
    <path d="M 668.16 654.84 
L 801.36 654.84 
Q 805.68 654.84 805.68 659.16 
L 805.68 675 
Q 805.68 679.32 801.36 679.32 
L 668.16 679.32 
Q 663.84 679.32 663.84 675 
L 663.84 659.16 
Q 663.84 654.84 668.16 654.84 
z
" clip-path="url(#p46235ab95c)" style="fill: #ffffff; stroke: #c9d1da; stroke-width: 0.9; stroke-linejoin: miter"/>
   </g>
   <g id="patch_44">
    <path d="M 817.2 654.84 
L 950.4 654.84 
Q 954.72 654.84 954.72 659.16 
L 954.72 675 
Q 954.72 679.32 950.4 679.32 
L 817.2 679.32 
Q 812.88 679.32 812.88 675 
L 812.88 659.16 
Q 812.88 654.84 817.2 654.84 
z
" clip-path="url(#p46235ab95c)" style="fill: #ffffff; stroke: #c9d1da; stroke-width: 0.9; stroke-linejoin: miter"/>
   </g>
   <g id="patch_45">
    <path d="M 72 762.84 
L 205.2 762.84 
Q 209.52 762.84 209.52 767.16 
L 209.52 783 
Q 209.52 787.32 205.2 787.32 
L 72 787.32 
Q 67.68 787.32 67.68 783 
L 67.68 767.16 
Q 67.68 762.84 72 762.84 
z
" clip-path="url(#p46235ab95c)" style="fill: #ffffff; stroke: #c9d1da; stroke-width: 0.9; stroke-linejoin: miter"/>
   </g>
   <g id="patch_46">
    <path d="M 221.04 762.84 
L 354.24 762.84 
Q 358.56 762.84 358.56 767.16 
L 358.56 783 
Q 358.56 787.32 354.24 787.32 
L 221.04 787.32 
Q 216.72 787.32 216.72 783 
L 216.72 767.16 
Q 216.72 762.84 221.04 762.84 
z
" clip-path="url(#p46235ab95c)" style="fill: #ffffff; stroke: #c9d1da; stroke-width: 0.9; stroke-linejoin: miter"/>
   </g>
   <g id="patch_47">
    <path d="M 72 870.84 
L 205.2 870.84 
Q 209.52 870.84 209.52 875.16 
L 209.52 891 
Q 209.52 895.32 205.2 895.32 
L 72 895.32 
Q 67.68 895.32 67.68 891 
L 67.68 875.16 
Q 67.68 870.84 72 870.84 
z
" clip-path="url(#p46235ab95c)" style="fill: #ffffff; stroke: #c9d1da; stroke-width: 0.9; stroke-linejoin: miter"/>
   </g>
   <g id="patch_48">
    <path d="M 221.04 870.84 
L 354.24 870.84 
Q 358.56 870.84 358.56 875.16 
L 358.56 891 
Q 358.56 895.32 354.24 895.32 
L 221.04 895.32 
Q 216.72 895.32 216.72 891 
L 216.72 875.16 
Q 216.72 870.84 221.04 870.84 
z
" clip-path="url(#p46235ab95c)" style="fill: #ffffff; stroke: #c9d1da; stroke-width: 0.9; stroke-linejoin: miter"/>
   </g>
   <g id="patch_49">
    <path d="M 72 978.84 
L 205.2 978.84 
Q 209.52 978.84 209.52 983.16 
L 209.52 999 
Q 209.52 1003.32 205.2 1003.32 
L 72 1003.32 
Q 67.68 1003.32 67.68 999 
L 67.68 983.16 
Q 67.68 978.84 72 978.84 
z
" clip-path="url(#p46235ab95c)" style="fill: #ffffff; stroke: #c9d1da; stroke-width: 0.9; stroke-linejoin: miter"/>
   </g>
   <g id="patch_50">
    <path d="M 72 1086.84 
L 205.2 1086.84 
Q 209.52 1086.84 209.52 1091.16 
L 209.52 1107 
Q 209.52 1111.32 205.2 1111.32 
L 72 1111.32 
Q 67.68 1111.32 67.68 1107 
L 67.68 1091.16 
Q 67.68 1086.84 72 1086.84 
z
" clip-path="url(#p46235ab95c)" style="fill: #ffffff; stroke: #c9d1da; stroke-width: 0.9; stroke-linejoin: miter"/>
   </g>
   <g id="patch_51">
    <path d="M 221.04 1086.84 
L 354.24 1086.84 
Q 358.56 1086.84 358.56 1091.16 
L 358.56 1107 
Q 358.56 1111.32 354.24 1111.32 
L 221.04 1111.32 
Q 216.72 1111.32 216.72 1107 
L 216.72 1091.16 
Q 216.72 1086.84 221.04 1086.84 
z
" clip-path="url(#p46235ab95c)" style="fill: #ffffff; stroke: #c9d1da; stroke-width: 0.9; stroke-linejoin: miter"/>
   </g>
   <g id="patch_52">
    <path d="M 370.08 1086.84 
L 503.28 1086.84 
Q 507.6 1086.84 507.6 1091.16 
L 507.6 1107 
Q 507.6 1111.32 503.28 1111.32 
L 370.08 1111.32 
Q 365.76 1111.32 365.76 1107 
L 365.76 1091.16 
Q 365.76 1086.84 370.08 1086.84 
z
" clip-path="url(#p46235ab95c)" style="fill: #ffffff; stroke: #c9d1da; stroke-width: 0.9; stroke-linejoin: miter"/>
   </g>
   <g id="patch_53">
    <path d="M 72 1194.84 
L 205.2 1194.84 
Q 209.52 1194.84 209.52 1199.16 
L 209.52 1215 
Q 209.52 1219.32 205.2 1219.32 
L 72 1219.32 
Q 67.68 1219.32 67.68 1215 
L 67.68 1199.16 
Q 67.68 1194.84 72 1194.84 
z
" clip-path="url(#p46235ab95c)" style="fill: #ffffff; stroke: #c9d1da; stroke-width: 0.9; stroke-linejoin: miter"/>
   </g>
   <g id="patch_54">
    <path d="M 221.04 1194.84 
L 354.24 1194.84 
Q 358.56 1194.84 358.56 1199.16 
L 358.56 1215 
Q 358.56 1219.32 354.24 1219.32 
L 221.04 1219.32 
Q 216.72 1219.32 216.72 1215 
L 216.72 1199.16 
Q 216.72 1194.84 221.04 1194.84 
z
" clip-path="url(#p46235ab95c)" style="fill: #ffffff; stroke: #c9d1da; stroke-width: 0.9; stroke-linejoin: miter"/>
   </g>
   <g id="patch_55">
    <path d="M 93.6 1354.32 
L 219.6 1354.32 
Q 223.92 1354.32 223.92 1358.64 
L 223.92 1374.48 
Q 223.92 1378.8 219.6 1378.8 
L 93.6 1378.8 
Q 89.28 1378.8 89.28 1374.48 
L 89.28 1358.64 
Q 89.28 1354.32 93.6 1354.32 
z
" clip-path="url(#p46235ab95c)" style="fill: #ffffff; stroke: #c9d1da; stroke-width: 0.9; stroke-linejoin: miter"/>
   </g>
   <g id="patch_56">
    <path d="M 235.44 1354.32 
L 361.44 1354.32 
Q 365.76 1354.32 365.76 1358.64 
L 365.76 1374.48 
Q 365.76 1378.8 361.44 1378.8 
L 235.44 1378.8 
Q 231.12 1378.8 231.12 1374.48 
L 231.12 1358.64 
Q 231.12 1354.32 235.44 1354.32 
z
" clip-path="url(#p46235ab95c)" style="fill: #ffffff; stroke: #c9d1da; stroke-width: 0.9; stroke-linejoin: miter"/>
   </g>
   <g id="patch_57">
    <path d="M 377.28 1354.32 
L 503.28 1354.32 
Q 507.6 1354.32 507.6 1358.64 
L 507.6 1374.48 
Q 507.6 1378.8 503.28 1378.8 
L 377.28 1378.8 
Q 372.96 1378.8 372.96 1374.48 
L 372.96 1358.64 
Q 372.96 1354.32 377.28 1354.32 
z
" clip-path="url(#p46235ab95c)" style="fill: #ffffff; stroke: #c9d1da; stroke-width: 0.9; stroke-linejoin: miter"/>
   </g>
   <g id="patch_58">
    <path d="M 519.12 1354.32 
L 645.12 1354.32 
Q 649.44 1354.32 649.44 1358.64 
L 649.44 1374.48 
Q 649.44 1378.8 645.12 1378.8 
L 519.12 1378.8 
Q 514.8 1378.8 514.8 1374.48 
L 514.8 1358.64 
Q 514.8 1354.32 519.12 1354.32 
z
" clip-path="url(#p46235ab95c)" style="fill: #ffffff; stroke: #c9d1da; stroke-width: 0.9; stroke-linejoin: miter"/>
   </g>
   <g id="patch_59">
    <path d="M 660.96 1354.32 
L 786.96 1354.32 
Q 791.28 1354.32 791.28 1358.64 
L 791.28 1374.48 
Q 791.28 1378.8 786.96 1378.8 
L 660.96 1378.8 
Q 656.64 1378.8 656.64 1374.48 
L 656.64 1358.64 
Q 656.64 1354.32 660.96 1354.32 
z
" clip-path="url(#p46235ab95c)" style="fill: #ffffff; stroke: #c9d1da; stroke-width: 0.9; stroke-linejoin: miter"/>
   </g>
   <g id="patch_60">
    <path d="M 802.8 1354.32 
L 928.8 1354.32 
Q 933.12 1354.32 933.12 1358.64 
L 933.12 1374.48 
Q 933.12 1378.8 928.8 1378.8 
L 802.8 1378.8 
Q 798.48 1378.8 798.48 1374.48 
L 798.48 1358.64 
Q 798.48 1354.32 802.8 1354.32 
z
" clip-path="url(#p46235ab95c)" style="fill: #ffffff; stroke: #c9d1da; stroke-width: 0.9; stroke-linejoin: miter"/>
   </g>
   <g id="patch_61">
    <path d="M 93.6 1386 
L 219.6 1386 
Q 223.92 1386 223.92 1390.32 
L 223.92 1406.16 
Q 223.92 1410.48 219.6 1410.48 
L 93.6 1410.48 
Q 89.28 1410.48 89.28 1406.16 
L 89.28 1390.32 
Q 89.28 1386 93.6 1386 
z
" clip-path="url(#p46235ab95c)" style="fill: #ffffff; stroke: #c9d1da; stroke-width: 0.9; stroke-linejoin: miter"/>
   </g>
   <g id="patch_62">
    <path d="M 235.44 1386 
L 361.44 1386 
Q 365.76 1386 365.76 1390.32 
L 365.76 1406.16 
Q 365.76 1410.48 361.44 1410.48 
L 235.44 1410.48 
Q 231.12 1410.48 231.12 1406.16 
L 231.12 1390.32 
Q 231.12 1386 235.44 1386 
z
" clip-path="url(#p46235ab95c)" style="fill: #ffffff; stroke: #c9d1da; stroke-width: 0.9; stroke-linejoin: miter"/>
   </g>
   <g id="text_2">
    <text style="font-weight: 700; font-size: 12.5px; font-family: 'Microsoft YaHei', 'DejaVu Sans'; text-anchor: middle; fill: #23272e" x="511.2" y="123.392188" transform="rotate(-0 511.2 123.392188)">0 · SchemaUpdate</text>
   </g>
   <g id="text_3">
    <text style="font-size: 10px; font-family: 'Microsoft YaHei', 'DejaVu Sans'; text-anchor: middle; fill: #3a4149" x="138.6" y="151.405" transform="rotate(-0 138.6 151.405)">GasBudgetReset</text>
   </g>
   <g id="text_4">
    <text style="font-size: 10px; font-family: 'Microsoft YaHei', 'DejaVu Sans'; text-anchor: middle; fill: #3a4149" x="287.64" y="151.433906" transform="rotate(-0 287.64 151.433906)">AttrSchemaUpdate</text>
   </g>
   <g id="text_5">
    <text style="font-size: 10px; font-family: 'Microsoft YaHei', 'DejaVu Sans'; text-anchor: middle; fill: #3a4149" x="436.68" y="151.433906" transform="rotate(-0 436.68 151.433906)">SavePrevPos</text>
   </g>
   <g id="text_6">
    <text style="font-size: 10.2px; font-family: 'Microsoft YaHei', 'DejaVu Sans'; text-anchor: middle; fill: #5b6470" x="511.2" y="176.672063" transform="rotate(-0 511.2 176.672063)">Schema 注册 · 属性/Graph 更新</text>
   </g>
   <g id="text_7">
    <text style="font-weight: 700; font-size: 12.5px; font-family: 'Microsoft YaHei', 'DejaVu Sans'; text-anchor: middle; fill: #23272e" x="511.2" y="237.152188" transform="rotate(-0 511.2 237.152188)">1 · InputCollection</text>
   </g>
   <g id="text_8">
    <text style="font-size: 10px; font-family: 'Microsoft YaHei', 'DejaVu Sans'; text-anchor: middle; fill: #3a4149" x="138.6" y="265.193906" transform="rotate(-0 138.6 265.193906)">Session</text>
   </g>
   <g id="text_9">
    <text style="font-size: 10px; font-family: 'Microsoft YaHei', 'DejaVu Sans'; text-anchor: middle; fill: #3a4149" x="287.64" y="265.193906" transform="rotate(-0 287.64 265.193906)">InputSnapshot</text>
   </g>
   <g id="text_10">
    <text style="font-size: 10px; font-family: 'Microsoft YaHei', 'DejaVu Sans'; text-anchor: middle; fill: #3a4149" x="436.68" y="265.193906" transform="rotate(-0 436.68 265.193906)">Narrative</text>
   </g>
   <g id="text_11">
    <text style="font-size: 10px; font-family: 'Microsoft YaHei', 'DejaVu Sans'; text-anchor: middle; fill: #3a4149" x="585.72" y="265.193906" transform="rotate(-0 585.72 265.193906)">Camera</text>
   </g>
   <g id="text_12">
    <text style="font-size: 10px; font-family: 'Microsoft YaHei', 'DejaVu Sans'; text-anchor: middle; fill: #3a4149" x="734.76" y="265.193906" transform="rotate(-0 734.76 265.193906)">Clock</text>
   </g>
   <g id="text_13">
    <text style="font-size: 10px; font-family: 'Microsoft YaHei', 'DejaVu Sans'; text-anchor: middle; fill: #3a4149" x="883.8" y="265.165" transform="rotate(-0 883.8 265.165)">TimedTag</text>
   </g>
   <g id="text_14">
    <text style="font-size: 10px; font-family: 'Microsoft YaHei', 'DejaVu Sans'; text-anchor: middle; fill: #3a4149" x="138.6" y="296.816094" transform="rotate(-0 138.6 296.816094)">InventorySync</text>
   </g>
   <g id="text_15">
    <text style="font-size: 10px; font-family: 'Microsoft YaHei', 'DejaVu Sans'; text-anchor: middle; fill: #3a4149" x="287.64" y="296.845" transform="rotate(-0 287.64 296.845)">AbilityFormRouting</text>
   </g>
   <g id="text_16">
    <text style="font-size: 10px; font-family: 'Microsoft YaHei', 'DejaVu Sans'; text-anchor: middle; fill: #3a4149" x="436.68" y="296.873906" transform="rotate(-0 436.68 296.873906)">Nav2D</text>
   </g>
   <g id="text_17">
    <text style="font-size: 10px; font-family: 'Microsoft YaHei', 'DejaVu Sans'; text-anchor: middle; fill: #3a4149" x="585.72" y="296.845" transform="rotate(-0 585.72 296.845)">Physics2D</text>
   </g>
   <g id="text_18">
    <text style="font-size: 10.2px; font-family: 'Microsoft YaHei', 'DejaVu Sans'; text-anchor: middle; fill: #5b6470" x="511.2" y="321.713625" transform="rotate(-0 511.2 321.713625)">输入与状态收集</text>
   </g>
   <g id="text_19">
    <text style="font-weight: 700; font-size: 12.5px; font-family: 'Microsoft YaHei', 'DejaVu Sans'; text-anchor: middle; fill: #23272e" x="511.2" y="382.592187" transform="rotate(-0 511.2 382.592187)">2 · PostMovement</text>
   </g>
   <g id="text_20">
    <text style="font-size: 10px; font-family: 'Microsoft YaHei', 'DejaVu Sans'; text-anchor: middle; fill: #3a4149" x="138.6" y="410.605" transform="rotate(-0 138.6 410.605)">WorldToGridSync</text>
   </g>
   <g id="text_21">
    <text style="font-size: 10px; font-family: 'Microsoft YaHei', 'DejaVu Sans'; text-anchor: middle; fill: #3a4149" x="287.64" y="410.633906" transform="rotate(-0 287.64 410.633906)">SpatialPartition</text>
   </g>
   <g id="text_22">
    <text style="font-size: 10px; font-family: 'Microsoft YaHei', 'DejaVu Sans'; text-anchor: middle; fill: #3a4149" x="436.68" y="410.605" transform="rotate(-0 436.68 410.605)">Physics2DToWorldSync</text>
   </g>
   <g id="text_23">
    <text style="font-size: 10.2px; font-family: 'Microsoft YaHei', 'DejaVu Sans'; text-anchor: middle; fill: #5b6470" x="511.2" y="435.473625" transform="rotate(-0 511.2 435.473625)">移动后同步 · 空间更新</text>
   </g>
   <g id="text_24">
    <text style="font-weight: 700; font-size: 12.5px; font-family: 'Microsoft YaHei', 'DejaVu Sans'; text-anchor: middle; fill: #23272e" x="511.2" y="496.352187" transform="rotate(-0 511.2 496.352187)">3 · AbilityActivation</text>
   </g>
   <g id="text_25">
    <text style="font-size: 10px; font-family: 'Microsoft YaHei', 'DejaVu Sans'; text-anchor: middle; fill: #3a4149" x="138.6" y="524.393906" transform="rotate(-0 138.6 524.393906)">OrderBuffer</text>
   </g>
   <g id="text_26">
    <text style="font-size: 10px; font-family: 'Microsoft YaHei', 'DejaVu Sans'; text-anchor: middle; fill: #3a4149" x="287.64" y="524.365" transform="rotate(-0 287.64 524.365)">AbilityEnd</text>
   </g>
   <g id="text_27">
    <text style="font-size: 10px; font-family: 'Microsoft YaHei', 'DejaVu Sans'; text-anchor: middle; fill: #3a4149" x="436.68" y="524.393906" transform="rotate(-0 436.68 524.393906)">StopOrder</text>
   </g>
   <g id="text_28">
    <text style="font-size: 10px; font-family: 'Microsoft YaHei', 'DejaVu Sans'; text-anchor: middle; fill: #3a4149" x="585.72" y="524.393906" transform="rotate(-0 585.72 524.393906)">Reaction</text>
   </g>
   <g id="text_29">
    <text style="font-size: 10px; font-family: 'Microsoft YaHei', 'DejaVu Sans'; text-anchor: middle; fill: #3a4149" x="734.76" y="524.365" transform="rotate(-0 734.76 524.365)">Ability</text>
   </g>
   <g id="text_30">
    <text style="font-size: 10px; font-family: 'Microsoft YaHei', 'DejaVu Sans'; text-anchor: middle; fill: #3a4149" x="883.8" y="524.365" transform="rotate(-0 883.8 524.365)">AbilityExec</text>
   </g>
   <g id="text_31">
    <text style="font-size: 10px; font-family: 'Microsoft YaHei', 'DejaVu Sans'; text-anchor: middle; fill: #3a4149" x="138.6" y="556.073906" transform="rotate(-0 138.6 556.073906)">MoveToOrder</text>
   </g>
   <g id="text_32">
    <text style="font-size: 10px; font-family: 'Microsoft YaHei', 'DejaVu Sans'; text-anchor: middle; fill: #3a4149" x="287.64" y="556.073906" transform="rotate(-0 287.64 556.073906)">Continuation</text>
   </g>
   <g id="text_33">
    <text style="font-size: 10px; font-family: 'Microsoft YaHei', 'DejaVu Sans'; text-anchor: middle; fill: #3a4149" x="436.68" y="556.073906" transform="rotate(-0 436.68 556.073906)">Relationship</text>
   </g>
   <g id="text_34">
    <text style="font-size: 10.2px; font-family: 'Microsoft YaHei', 'DejaVu Sans'; text-anchor: middle; fill: #5b6470" x="511.2" y="580.913625" transform="rotate(-0 511.2 580.913625)">能力激活</text>
   </g>
   <g id="text_35">
    <text style="font-weight: 700; font-size: 12.5px; font-family: 'Microsoft YaHei', 'DejaVu Sans'; text-anchor: middle; fill: #23272e" x="511.2" y="641.950391" transform="rotate(-0 511.2 641.950391)">4 · EffectProcessing</text>
   </g>
   <g id="text_36">
    <text style="font-size: 10px; font-family: 'Microsoft YaHei', 'DejaVu Sans'; text-anchor: middle; fill: #3a4149" x="138.6" y="669.805" transform="rotate(-0 138.6 669.805)">DestroyOnParentEnd</text>
   </g>
   <g id="text_37">
    <text style="font-size: 10px; font-family: 'Microsoft YaHei', 'DejaVu Sans'; text-anchor: middle; fill: #3a4149" x="287.64" y="669.833906" transform="rotate(-0 287.64 669.833906)">ManifestMotion</text>
   </g>
   <g id="text_38">
    <text style="font-size: 10px; font-family: 'Microsoft YaHei', 'DejaVu Sans'; text-anchor: middle; fill: #3a4149" x="436.68" y="669.8925" transform="rotate(-0 436.68 669.8925)">EffectLoop</text>
   </g>
   <g id="text_39">
    <text style="font-size: 10px; font-family: 'Microsoft YaHei', 'DejaVu Sans'; text-anchor: middle; fill: #3a4149" x="585.72" y="669.805" transform="rotate(-0 585.72 669.805)">Projectile</text>
   </g>
   <g id="text_40">
    <text style="font-size: 10px; font-family: 'Microsoft YaHei', 'DejaVu Sans'; text-anchor: middle; fill: #3a4149" x="734.76" y="669.776094" transform="rotate(-0 734.76 669.776094)">EntitySpawn</text>
   </g>
   <g id="text_41">
    <text style="font-size: 10px; font-family: 'Microsoft YaHei', 'DejaVu Sans'; text-anchor: middle; fill: #3a4149" x="883.8" y="669.833906" transform="rotate(-0 883.8 669.833906)">Displacement</text>
   </g>
   <g id="text_42">
    <text style="font-size: 10.2px; font-family: 'Microsoft YaHei', 'DejaVu Sans'; text-anchor: middle; fill: #5b6470" x="511.2" y="694.673625" transform="rotate(-0 511.2 694.673625)">Effect 处理 · 含响应链</text>
   </g>
   <g id="text_43">
    <text style="font-weight: 700; font-size: 12.5px; font-family: 'Microsoft YaHei', 'DejaVu Sans'; text-anchor: middle; fill: #23272e" x="511.2" y="749.792187" transform="rotate(-0 511.2 749.792187)">5 · AttributeCalculation</text>
   </g>
   <g id="text_44">
    <text style="font-size: 10px; font-family: 'Microsoft YaHei', 'DejaVu Sans'; text-anchor: middle; fill: #3a4149" x="138.6" y="777.776094" transform="rotate(-0 138.6 777.776094)">Aggregator</text>
   </g>
   <g id="text_45">
    <text style="font-size: 10px; font-family: 'Microsoft YaHei', 'DejaVu Sans'; text-anchor: middle; fill: #3a4149" x="287.64" y="777.805" transform="rotate(-0 287.64 777.805)">AttributeBinding</text>
   </g>
   <g id="text_46">
    <text style="font-size: 10.2px; font-family: 'Microsoft YaHei', 'DejaVu Sans'; text-anchor: middle; fill: #5b6470" x="511.2" y="802.673625" transform="rotate(-0 511.2 802.673625)">属性计算</text>
   </g>
   <g id="text_47">
    <text style="font-weight: 700; font-size: 12.5px; font-family: 'Microsoft YaHei', 'DejaVu Sans'; text-anchor: middle; fill: #23272e" x="511.2" y="857.950391" transform="rotate(-0 511.2 857.950391)">6 · DeferredTriggerCollection</text>
   </g>
   <g id="text_48">
    <text style="font-size: 10px; font-family: 'Microsoft YaHei', 'DejaVu Sans'; text-anchor: middle; fill: #3a4149" x="138.6" y="885.863594" transform="rotate(-0 138.6 885.863594)">DeferredTriggerCollection</text>
   </g>
   <g id="text_49">
    <text style="font-size: 10px; font-family: 'Microsoft YaHei', 'DejaVu Sans'; text-anchor: middle; fill: #3a4149" x="287.64" y="885.863594" transform="rotate(-0 287.64 885.863594)">DeferredTriggerProcess</text>
   </g>
   <g id="text_50">
    <text style="font-size: 10.2px; font-family: 'Microsoft YaHei', 'DejaVu Sans'; text-anchor: middle; fill: #5b6470" x="511.2" y="910.673625" transform="rotate(-0 511.2 910.673625)">延迟触发器收集</text>
   </g>
   <g id="text_51">
    <text style="font-weight: 700; font-size: 12.5px; font-family: 'Microsoft YaHei', 'DejaVu Sans'; text-anchor: middle; fill: #23272e" x="511.2" y="965.792187" transform="rotate(-0 511.2 965.792187)">7 · Cleanup</text>
   </g>
   <g id="text_52">
    <text style="font-size: 10px; font-family: 'Microsoft YaHei', 'DejaVu Sans'; text-anchor: middle; fill: #3a4149" x="138.6" y="993.833906" transform="rotate(-0 138.6 993.833906)">—</text>
   </g>
   <g id="text_53">
    <text style="font-size: 10.2px; font-family: 'Microsoft YaHei', 'DejaVu Sans'; text-anchor: middle; fill: #5b6470" x="511.2" y="1018.673625" transform="rotate(-0 511.2 1018.673625)">清理</text>
   </g>
   <g id="text_54">
    <text style="font-weight: 700; font-size: 12.5px; font-family: 'Microsoft YaHei', 'DejaVu Sans'; text-anchor: middle; fill: #23272e" x="511.2" y="1073.792187" transform="rotate(-0 511.2 1073.792187)">8 · EventDispatch</text>
   </g>
   <g id="text_55">
    <text style="font-size: 10px; font-family: 'Microsoft YaHei', 'DejaVu Sans'; text-anchor: middle; fill: #3a4149" x="138.6" y="1101.833906" transform="rotate(-0 138.6 1101.833906)">AnimatorRuntime</text>
   </g>
   <g id="text_56">
    <text style="font-size: 10px; font-family: 'Microsoft YaHei', 'DejaVu Sans'; text-anchor: middle; fill: #3a4149" x="287.64" y="1101.805" transform="rotate(-0 287.64 1101.805)">GameplayEventDispatch</text>
   </g>
   <g id="text_57">
    <text style="font-size: 10px; font-family: 'Microsoft YaHei', 'DejaVu Sans'; text-anchor: middle; fill: #3a4149" x="436.68" y="1101.805" transform="rotate(-0 436.68 1101.805)">GasBudgetReport</text>
   </g>
   <g id="text_58">
    <text style="font-size: 10.2px; font-family: 'Microsoft YaHei', 'DejaVu Sans'; text-anchor: middle; fill: #5b6470" x="511.2" y="1126.673625" transform="rotate(-0 511.2 1126.673625)">事件分发</text>
   </g>
   <g id="text_59">
    <text style="font-weight: 700; font-size: 12.5px; font-family: 'Microsoft YaHei', 'DejaVu Sans'; text-anchor: middle; fill: #23272e" x="511.2" y="1181.792187" transform="rotate(-0 511.2 1181.792187)">9 · ClearPresentationFlags</text>
   </g>
   <g id="text_60">
    <text style="font-size: 10px; font-family: 'Microsoft YaHei', 'DejaVu Sans'; text-anchor: middle; fill: #3a4149" x="138.6" y="1209.805" transform="rotate(-0 138.6 1209.805)">PresentationBridge</text>
   </g>
   <g id="text_61">
    <text style="font-size: 10px; font-family: 'Microsoft YaHei', 'DejaVu Sans'; text-anchor: middle; fill: #3a4149" x="287.64" y="1209.805" transform="rotate(-0 287.64 1209.805)">ClearPresentationFlags</text>
   </g>
   <g id="text_62">
    <text style="font-size: 10.2px; font-family: 'Microsoft YaHei', 'DejaVu Sans'; text-anchor: middle; fill: #5b6470" x="511.2" y="1234.673625" transform="rotate(-0 511.2 1234.673625)">表现层标记清理</text>
   </g>
   <g id="text_63">
    <text style="font-weight: 700; font-size: 12.5px; font-family: 'Microsoft YaHei', 'DejaVu Sans'; text-anchor: middle; fill: #23272e" x="511.2" y="1341.229219" transform="rotate(-0 511.2 1341.229219)">Presentation Systems</text>
   </g>
   <g id="text_64">
    <text style="font-size: 10px; font-family: 'Microsoft YaHei', 'DejaVu Sans'; text-anchor: middle; fill: #3a4149" x="156.6" y="1369.313906" transform="rotate(-0 156.6 1369.313906)">FrameSetup</text>
   </g>
   <g id="text_65">
    <text style="font-size: 10px; font-family: 'Microsoft YaHei', 'DejaVu Sans'; text-anchor: middle; fill: #3a4149" x="298.44" y="1369.285" transform="rotate(-0 298.44 1369.285)">WorldToVisualSync</text>
   </g>
   <g id="text_66">
    <text style="font-size: 10px; font-family: 'Microsoft YaHei', 'DejaVu Sans'; text-anchor: middle; fill: #3a4149" x="440.28" y="1369.285" transform="rotate(-0 440.28 1369.285)">TerrainHeightSync</text>
   </g>
   <g id="text_67">
    <text style="font-size: 10px; font-family: 'Microsoft YaHei', 'DejaVu Sans'; text-anchor: middle; fill: #3a4149" x="582.12" y="1369.285" transform="rotate(-0 582.12 1369.285)">EntityVisualEmit</text>
   </g>
   <g id="text_68">
    <text style="font-size: 10px; font-family: 'Microsoft YaHei', 'DejaVu Sans'; text-anchor: middle; fill: #3a4149" x="723.96" y="1369.313906" transform="rotate(-0 723.96 1369.313906)">PresenterRule</text>
   </g>
   <g id="text_69">
    <text style="font-size: 10px; font-family: 'Microsoft YaHei', 'DejaVu Sans'; text-anchor: middle; fill: #3a4149" x="865.8" y="1369.313906" transform="rotate(-0 865.8 1369.313906)">PresenterRuntime</text>
   </g>
   <g id="text_70">
    <text style="font-size: 10px; font-family: 'Microsoft YaHei', 'DejaVu Sans'; text-anchor: middle; fill: #3a4149" x="156.6" y="1400.993906" transform="rotate(-0 156.6 1400.993906)">PresenterEmit</text>
   </g>
   <g id="text_71">
    <text style="font-size: 10px; font-family: 'Microsoft YaHei', 'DejaVu Sans'; text-anchor: middle; fill: #3a4149" x="298.44" y="1400.993906" transform="rotate(-0 298.44 1400.993906)">ResponseChainDirector</text>
   </g>
   <g id="line2d_1">
    <path d="M 511.2 194.4 
L 511.2 208.8 
" clip-path="url(#p46235ab95c)" style="fill: none; stroke: #8a94a3; stroke-width: 1.2; stroke-linecap: round"/>
   </g>
   <g id="line2d_2">
    <path d="M 511.2 345.6 
L 511.2 360 
" clip-path="url(#p46235ab95c)" style="fill: none; stroke: #8a94a3; stroke-width: 1.2; stroke-linecap: round"/>
   </g>
   <g id="line2d_3">
    <path d="M 511.2 453.6 
L 511.2 468 
" clip-path="url(#p46235ab95c)" style="fill: none; stroke: #8a94a3; stroke-width: 1.2; stroke-linecap: round"/>
   </g>
   <g id="line2d_4">
    <path d="M 511.2 604.8 
L 511.2 619.2 
" clip-path="url(#p46235ab95c)" style="fill: none; stroke: #8a94a3; stroke-width: 1.2; stroke-linecap: round"/>
   </g>
   <g id="line2d_5">
    <path d="M 511.2 712.8 
L 511.2 727.2 
" clip-path="url(#p46235ab95c)" style="fill: none; stroke: #8a94a3; stroke-width: 1.2; stroke-linecap: round"/>
   </g>
   <g id="line2d_6">
    <path d="M 511.2 820.8 
L 511.2 835.2 
" clip-path="url(#p46235ab95c)" style="fill: none; stroke: #8a94a3; stroke-width: 1.2; stroke-linecap: round"/>
   </g>
   <g id="line2d_7">
    <path d="M 511.2 928.8 
L 511.2 943.2 
" clip-path="url(#p46235ab95c)" style="fill: none; stroke: #8a94a3; stroke-width: 1.2; stroke-linecap: round"/>
   </g>
   <g id="line2d_8">
    <path d="M 511.2 1036.8 
L 511.2 1051.2 
" clip-path="url(#p46235ab95c)" style="fill: none; stroke: #8a94a3; stroke-width: 1.2; stroke-linecap: round"/>
   </g>
   <g id="line2d_9">
    <path d="M 511.2 1144.8 
L 511.2 1159.2 
" clip-path="url(#p46235ab95c)" style="fill: none; stroke: #8a94a3; stroke-width: 1.2; stroke-linecap: round"/>
   </g>
   <g id="line2d_10">
    <path d="M 511.2 1252.8 
L 511.2 1281.6 
" clip-path="url(#p46235ab95c)" style="fill: none; stroke-dasharray: 6,4.8; stroke-dashoffset: 0; stroke: #8a94a3; stroke-width: 1.2"/>
   </g>
   <g id="patch_63">
    <path d="M 511.2 196.400391 
Q 511.2 201.59969 511.2 206.798989 
" clip-path="url(#p46235ab95c)" style="fill: none"/>
    <path d="M 513.6 201.998989 
L 511.2 206.798989 
L 508.8 201.998989 
z
" clip-path="url(#p46235ab95c)" style="fill: #8a94a3"/>
   </g>
   <g id="patch_64">
    <path d="M 511.2 347.600391 
Q 511.2 352.79969 511.2 357.998989 
" clip-path="url(#p46235ab95c)" style="fill: none"/>
    <path d="M 513.6 353.198989 
L 511.2 357.998989 
L 508.8 353.198989 
z
" clip-path="url(#p46235ab95c)" style="fill: #8a94a3"/>
   </g>
   <g id="patch_65">
    <path d="M 511.2 455.600391 
Q 511.2 460.79969 511.2 465.998989 
" clip-path="url(#p46235ab95c)" style="fill: none"/>
    <path d="M 513.6 461.198989 
L 511.2 465.998989 
L 508.8 461.198989 
z
" clip-path="url(#p46235ab95c)" style="fill: #8a94a3"/>
   </g>
   <g id="patch_66">
    <path d="M 511.2 606.800391 
Q 511.2 611.99969 511.2 617.198989 
" clip-path="url(#p46235ab95c)" style="fill: none"/>
    <path d="M 513.6 612.398989 
L 511.2 617.198989 
L 508.8 612.398989 
z
" clip-path="url(#p46235ab95c)" style="fill: #8a94a3"/>
   </g>
   <g id="patch_67">
    <path d="M 511.2 714.800391 
Q 511.2 719.99969 511.2 725.198989 
" clip-path="url(#p46235ab95c)" style="fill: none"/>
    <path d="M 513.6 720.398989 
L 511.2 725.198989 
L 508.8 720.398989 
z
" clip-path="url(#p46235ab95c)" style="fill: #8a94a3"/>
   </g>
   <g id="patch_68">
    <path d="M 511.2 822.800391 
Q 511.2 827.99969 511.2 833.198989 
" clip-path="url(#p46235ab95c)" style="fill: none"/>
    <path d="M 513.6 828.398989 
L 511.2 833.198989 
L 508.8 828.398989 
z
" clip-path="url(#p46235ab95c)" style="fill: #8a94a3"/>
   </g>
   <g id="patch_69">
    <path d="M 511.2 930.800391 
Q 511.2 935.99969 511.2 941.198989 
" clip-path="url(#p46235ab95c)" style="fill: none"/>
    <path d="M 513.6 936.398989 
L 511.2 941.198989 
L 508.8 936.398989 
z
" clip-path="url(#p46235ab95c)" style="fill: #8a94a3"/>
   </g>
   <g id="patch_70">
    <path d="M 511.2 1038.800391 
Q 511.2 1043.99969 511.2 1049.198989 
" clip-path="url(#p46235ab95c)" style="fill: none"/>
    <path d="M 513.6 1044.398989 
L 511.2 1049.198989 
L 508.8 1044.398989 
z
" clip-path="url(#p46235ab95c)" style="fill: #8a94a3"/>
   </g>
   <g id="patch_71">
    <path d="M 511.2 1146.800391 
Q 511.2 1151.99969 511.2 1157.198989 
" clip-path="url(#p46235ab95c)" style="fill: none"/>
    <path d="M 513.6 1152.398989 
L 511.2 1157.198989 
L 508.8 1152.398989 
z
" clip-path="url(#p46235ab95c)" style="fill: #8a94a3"/>
   </g>
   <g id="patch_72">
    <path d="M 511.2 1254.800391 
Q 511.2 1267.200771 511.2 1279.601152 
" clip-path="url(#p46235ab95c)" style="fill: none"/>
    <path d="M 513.6 1274.801152 
L 511.2 1279.601152 
L 508.8 1274.801152 
z
" clip-path="url(#p46235ab95c)" style="fill: #8a94a3"/>
   </g>
   <g id="text_72">
    <text style="font-weight: 700; font-size: 20px; font-family: 'Microsoft YaHei', 'DejaVu Sans'; text-anchor: middle; fill: #181b20" x="511.2" y="40.4675" transform="rotate(-0 511.2 40.4675)">SystemGroup Pipeline</text>
   </g>
   <g id="text_73">
    <text style="font-size: 12px; font-family: 'Microsoft YaHei', 'DejaVu Sans'; text-anchor: middle; fill: #5b6470" x="511.2" y="68.6325" transform="rotate(-0 511.2 68.6325)">10 Phase Execution Order</text>
   </g>
  </g>
 </g>
 <defs>
  <clipPath id="p46235ab95c">
   <rect x="0" y="0" width="1022.4" height="1454.4"/>
  </clipPath>
 </defs>
</svg>
